<?xml version="1.0" standalone="no"?>
<!DOCTYPE svg PUBLIC "-//W3C//DTD SVG 1.1//EN" "http://www.w3.org/Graphics/SVG/1.1/DTD/svg11.dtd" >
<svg xmlns="http://www.w3.org/2000/svg" xmlns:xlink="http://www.w3.org/1999/xlink" version="1.1">
<metadata>
Created by FontForge 20161116 at Fri Jun 22 10:59:18 2012
 By Jimmy Wärting
Copyright (c) 2012 Linotype GmbH, www.linotype.com. All rights reserved. This font software may not be reproduced, modified, disclosed or transferred without the express written approval of Linotype GmbH. Avenir is a trademark of Linotype GmbH registered in the U.S. Patent and Trademark Office and may be registered in certain other jurisdictions. This typeface is original artwork of Adrian Frutiger and Akira Kobayashi. The design may be protected in certain jurisdictions.
</metadata>
<defs>
<font id="AvenirNextW1G-Light" horiz-adv-x="240" >
  <font-face 
    font-family="Avenir Next W1G Light"
    font-weight="300"
    font-stretch="normal"
    units-per-em="1000"
    panose-1="2 11 4 3 2 2 2 2 2 4"
    ascent="756"
    descent="-244"
    x-height="466"
    cap-height="708"
    bbox="-202 -250 1042 945"
    underline-thickness="50"
    underline-position="-100"
    stemh="46"
    stemv="49"
    unicode-range="U+000D-FB04"
  />
<missing-glyph horiz-adv-x="512" 
d="M278 117h-56v67h56v-67zM271 234h-46l-2 17c0 75 13 95 59 140c43 42 50 57 50 83c0 48 -35 85 -76 85s-74 -27 -82 -95l-50 8c9 95 63 137 135 137c71 0 124 -52 124 -131c0 -42 -12 -74 -63 -120s-49 -52 -49 -124zM50 50h412v617h-412v-617zM0 718h512v-718h-512v718z
" />
    <glyph glyph-name="napostrophe" unicode="&#x22;n" horiz-adv-x="578" 
d="M90 466h52c2 -26 4 -68 4 -93h2c27 64 97 105 167 105c122 0 174 -84 174 -194v-284h-54v264c0 92 -29 168 -132 168c-81 0 -154 -65 -154 -195v-237h-55v359c0 26 -1 76 -4 107zM113 742l-70 -185h-45l58 185h57z" />
    <glyph glyph-name="fi" unicode="fi" horiz-adv-x="529" 
d="M434 466v-466h-54v466h54zM448 651c0 -24 -20 -41 -40 -41c-21 0 -41 17 -41 41s20 41 41 41c20 0 40 -17 40 -41zM282 466v-46h-114v-420h-55v420h-97v46h97v139c0 108 56 163 147 163c18 0 38 -2 53 -7l-9 -47c-14 4 -28 7 -45 7c-73 0 -91 -56 -91 -122v-133h114z" />
    <glyph glyph-name="fl" unicode="fl" horiz-adv-x="529" 
d="M434 756v-756h-54v756h54zM282 466v-46h-114v-420h-55v420h-97v46h97v139c0 108 56 163 147 163c18 0 38 -2 53 -7l-9 -47c-14 4 -28 7 -45 7c-73 0 -91 -56 -91 -122v-133h114z" />
    <glyph glyph-name="f_f_l" unicode="ffl" horiz-adv-x="797" 
d="M702 756v-756h-54v756h54zM550 466v-46h-115v-420h-54v420h-213v-420h-55v420h-97v46h97v139c0 108 56 163 147 163c18 0 38 -2 53 -7l-9 -47c-14 4 -28 7 -45 7c-73 0 -91 -56 -91 -122v-133h213v139c0 108 56 163 147 163c18 0 37 -2 53 -7l-10 -47c-13 4 -28 7 -45 7
c-73 0 -91 -56 -91 -122v-133h115z" />
    <glyph glyph-name="f_f_i" unicode="ffi" horiz-adv-x="797" 
d="M550 466v-46h-115v-420h-54v420h-213v-420h-55v420h-97v46h97v139c0 108 56 163 147 163c18 0 38 -2 53 -7l-9 -47c-14 4 -28 7 -45 7c-73 0 -91 -56 -91 -122v-133h213v139c0 108 56 163 147 163c18 0 37 -2 53 -7l-10 -47c-13 4 -28 7 -45 7c-73 0 -91 -56 -91 -122
v-133h115zM702 466v-466h-54v466h54zM716 651c0 -24 -21 -41 -41 -41s-40 17 -40 41s20 41 40 41c21 0 41 -17 41 -41z" />
    <glyph glyph-name="f_f" unicode="ff" horiz-adv-x="559" 
d="M550 466v-46h-115v-420h-54v420h-213v-420h-55v420h-97v46h97v139c0 108 56 163 147 163c18 0 38 -2 53 -7l-9 -47c-14 4 -28 7 -45 7c-73 0 -91 -56 -91 -122v-133h213v139c0 108 56 163 147 163c18 0 37 -2 53 -7l-10 -47c-13 4 -28 7 -45 7c-73 0 -91 -56 -91 -122
v-133h115z" />
    <glyph glyph-name=".notdef" horiz-adv-x="512" 
d="M278 117h-56v67h56v-67zM271 234h-46l-2 17c0 75 13 95 59 140c43 42 50 57 50 83c0 48 -35 85 -76 85s-74 -27 -82 -95l-50 8c9 95 63 137 135 137c71 0 124 -52 124 -131c0 -42 -12 -74 -63 -120s-49 -52 -49 -124zM50 50h412v617h-412v-617zM0 718h512v-718h-512v718z
" />
    <glyph glyph-name=".null" horiz-adv-x="500" 
 />
    <glyph glyph-name=".null" horiz-adv-x="500" 
 />
    <glyph glyph-name="CR" unicode="&#xd;" horiz-adv-x="0" 
 />
    <glyph glyph-name="space" unicode=" " horiz-adv-x="250" 
 />
    <glyph glyph-name="exclam" unicode="!" horiz-adv-x="312" 
d="M185 708v-515h-57v515h57zM201 39c0 -23 -19 -45 -45 -45s-45 22 -45 45c0 25 19 46 45 46s45 -21 45 -46z" />
    <glyph glyph-name="quotedbl" unicode="&#x22;" horiz-adv-x="405" 
d="M106 475v233h48v-233h-48zM250 475v233h49v-233h-49z" />
    <glyph glyph-name="numbersign" unicode="#" horiz-adv-x="554" 
d="M108 0l30 222h-105v47h111l24 172h-109v47h116l29 220h48l-29 -220h144l30 220h48l-29 -220h96v-47h-103l-23 -172h100v-47h-107l-30 -222h-48l30 222h-145l-30 -222h-48zM216 441l-23 -172h144l23 172h-144z" />
    <glyph glyph-name="dollar" unicode="$" horiz-adv-x="574" 
d="M261 396v279c-74 -4 -137 -56 -137 -138c0 -81 60 -119 137 -141zM301 328v-294c71 3 146 45 146 146c0 78 -66 122 -146 148zM261 34v304c-97 30 -192 75 -192 195c0 113 86 180 192 187v72h40v-72c68 -1 138 -27 183 -80l-36 -34c-37 44 -91 69 -147 69v-293
c105 -36 203 -80 203 -206c0 -112 -88 -185 -203 -188v-72h-40v72c-88 2 -154 40 -203 102l40 31c47 -62 113 -86 163 -87z" />
    <glyph glyph-name="percent" unicode="%" horiz-adv-x="829" 
d="M383 548c0 -95 -75 -170 -170 -170c-96 0 -171 75 -171 170c0 96 75 171 171 171c95 0 170 -75 170 -171zM334 548c0 70 -55 123 -121 123c-67 0 -122 -53 -122 -123s55 -122 122 -122c66 0 121 52 121 122zM787 159c0 -95 -76 -170 -171 -170s-170 75 -170 170
s75 170 170 170s171 -75 171 -170zM738 159c0 70 -55 123 -122 123c-66 0 -121 -53 -121 -123s55 -122 121 -122c67 0 122 52 122 122zM657 716l-447 -746l-41 22l448 746z" />
    <glyph glyph-name="ampersand" unicode="&#x26;" horiz-adv-x="704" 
d="M652 379l-128 -221l151 -158h-78l-105 111c-58 -84 -126 -125 -221 -125c-118 0 -213 71 -213 197c0 106 70 166 165 211c-51 54 -88 107 -88 169c0 102 75 163 170 163c91 0 164 -59 164 -153s-78 -146 -164 -190l180 -188l103 184h64zM413 571c0 64 -47 108 -108 108
c-65 0 -114 -46 -114 -116c0 -55 45 -111 81 -146c73 36 141 78 141 154zM454 148l-198 209c-86 -40 -141 -93 -141 -175c0 -89 72 -148 159 -148c79 0 134 41 180 114z" />
    <glyph glyph-name="quotesingle" unicode="'" horiz-adv-x="260" 
d="M106 475v233h48v-233h-48z" />
    <glyph glyph-name="parenleft" unicode="(" horiz-adv-x="300" 
d="M97 288c0 -152 53 -306 131 -420l-43 -26c-83 121 -140 278 -140 446s57 333 140 446l43 -26c-77 -108 -131 -268 -131 -420z" />
    <glyph glyph-name="parenright" unicode=")" horiz-adv-x="300" 
d="M202 288c0 152 -54 312 -131 420l43 26c83 -113 141 -278 141 -446s-58 -333 -141 -446l-43 26c77 108 131 268 131 420z" />
    <glyph glyph-name="asterisk" unicode="*" horiz-adv-x="444" 
d="M246 708v-151l147 47l16 -45l-148 -46l94 -127l-38 -29l-95 130l-95 -130l-38 29l94 127l-148 46l16 45l147 -47v151h48z" />
    <glyph glyph-name="plus" unicode="+" horiz-adv-x="666" 
d="M358 554v-227h223v-47h-223v-227h-49v227h-224v47h224v227h49z" />
    <glyph glyph-name="comma" unicode="," horiz-adv-x="254" 
d="M174 94l-76 -233h-45l64 233h57z" />
    <glyph glyph-name="hyphen" unicode="-" horiz-adv-x="314" 
d="M262 269v-46h-210v46h210z" />
    <glyph glyph-name="period" unicode="." horiz-adv-x="254" 
d="M172 40c0 -25 -19 -46 -45 -46s-45 21 -45 46c0 23 19 45 45 45s45 -22 45 -45z" />
    <glyph glyph-name="slash" unicode="/" horiz-adv-x="370" 
d="M360 711l-303 -728l-47 15l305 729z" />
    <glyph glyph-name="zero" unicode="0" horiz-adv-x="574" 
d="M287 724c178 0 228 -193 228 -371c0 -177 -50 -369 -228 -369c-179 0 -228 192 -228 369c0 178 49 371 228 371zM287 675c-142 0 -171 -191 -171 -322c0 -130 29 -320 171 -320c141 0 171 190 171 320c0 131 -30 322 -171 322z" />
    <glyph glyph-name="one" unicode="1" horiz-adv-x="574" 
d="M344 708v-708h-57v638l-130 -111l-34 40l170 141h51z" />
    <glyph glyph-name="two" unicode="2" horiz-adv-x="574" 
d="M491 51v-51h-436v60l277 292c53 56 96 114 96 181c0 87 -66 143 -146 143c-76 0 -134 -50 -152 -125l-56 12c22 96 104 161 208 161c112 0 204 -68 204 -188c0 -90 -51 -152 -122 -226l-248 -259h375z" />
    <glyph glyph-name="three" unicode="3" horiz-adv-x="574" 
d="M215 347v49h29c89 0 168 40 168 140c0 84 -65 140 -144 140c-59 0 -102 -24 -139 -80l-43 28c43 68 103 100 184 100c108 0 198 -67 198 -185c0 -82 -50 -147 -130 -165v-2c93 -18 152 -87 152 -179c0 -125 -92 -209 -220 -209c-99 0 -170 44 -213 132l47 24
c34 -70 92 -107 166 -107c92 0 163 63 163 160c0 112 -99 154 -189 154h-29z" />
    <glyph glyph-name="four" unicode="4" horiz-adv-x="574" 
d="M424 708v-483h108v-50h-108v-175h-56v175h-326v57l306 476h76zM368 225v419h-2l-265 -419h267z" />
    <glyph glyph-name="five" unicode="5" horiz-adv-x="574" 
d="M466 708v-51h-296l-6 -236c32 14 71 19 105 19c133 0 226 -91 226 -222c0 -141 -99 -234 -229 -234c-99 0 -163 45 -202 116l47 27c37 -64 84 -94 152 -94c95 0 174 71 174 180c0 108 -75 180 -184 180c-50 0 -100 -15 -143 -38l7 353h349z" />
    <glyph glyph-name="six" unicode="6" horiz-adv-x="574" 
d="M383 708l-203 -324l2 -2c25 24 73 39 117 39c121 0 212 -90 212 -217c0 -130 -94 -220 -224 -220s-223 90 -223 220c0 67 24 127 62 190l191 314h66zM120 204c0 -98 69 -172 167 -172s167 74 167 172c0 97 -66 171 -165 171c-100 0 -169 -74 -169 -171z" />
    <glyph glyph-name="seven" unicode="7" horiz-adv-x="574" 
d="M486 708v-54l-288 -654h-64l295 657h-352v51h409z" />
    <glyph glyph-name="eight" unicode="8" horiz-adv-x="574" 
d="M370 376c86 -25 139 -98 139 -189c0 -124 -101 -203 -222 -203s-222 79 -222 203c0 91 54 165 139 189v2c-69 24 -112 91 -112 162c0 111 88 184 195 184s195 -73 195 -184c0 -71 -43 -138 -112 -162v-2zM148 537c0 -77 60 -136 139 -136s139 59 139 136
c0 81 -60 139 -139 139s-139 -58 -139 -139zM122 192c0 -91 66 -160 165 -160s165 69 165 160c0 92 -69 159 -165 159s-165 -67 -165 -159z" />
    <glyph glyph-name="nine" unicode="9" horiz-adv-x="574" 
d="M192 0l204 326l-2 2c-25 -24 -74 -39 -118 -39c-120 0 -212 88 -212 216c0 129 95 219 225 219s222 -89 222 -219c0 -67 -23 -127 -61 -189l-192 -316h-66zM455 505c0 98 -69 171 -167 171s-167 -73 -167 -171c0 -97 66 -170 166 -170c99 0 168 73 168 170z" />
    <glyph glyph-name="colon" unicode=":" horiz-adv-x="294" 
d="M192 424c0 -24 -19 -45 -45 -45s-45 21 -45 45s19 46 45 46s45 -22 45 -46zM192 40c0 -25 -19 -46 -45 -46s-45 21 -45 46c0 23 19 45 45 45s45 -22 45 -45z" />
    <glyph glyph-name="semicolon" unicode=";" horiz-adv-x="294" 
d="M192 424c0 -24 -19 -45 -45 -45s-45 21 -45 45s19 46 45 46s45 -22 45 -46zM188 94l-76 -233h-47l64 233h59z" />
    <glyph glyph-name="less" unicode="&#x3c;" horiz-adv-x="666" 
d="M581 557v-49l-436 -205l436 -205v-49l-496 234v40z" />
    <glyph glyph-name="equal" unicode="=" horiz-adv-x="666" 
d="M85 405h496v-47h-496v47zM85 249h496v-48h-496v48z" />
    <glyph glyph-name="greater" unicode="&#x3e;" horiz-adv-x="666" 
d="M85 508v49l496 -234v-40l-496 -234v49l436 205z" />
    <glyph glyph-name="question" unicode="?" horiz-adv-x="479" 
d="M267 240v-46h-56v58c0 67 31 108 77 148l30 26c34 30 61 62 61 119c0 81 -61 127 -135 127c-77 0 -129 -52 -141 -125l-54 10c20 103 96 165 197 165c105 0 190 -62 190 -174c0 -86 -41 -123 -91 -164c-60 -50 -78 -74 -78 -144zM289 39c0 -23 -18 -45 -44 -45
c-27 0 -45 22 -45 45c0 25 18 46 45 46c25 0 44 -21 44 -46z" />
    <glyph glyph-name="at" unicode="@" horiz-adv-x="800" 
d="M418 502c-89 0 -139 -106 -139 -191c0 -45 20 -104 85 -104c98 0 139 125 139 193c0 52 -21 102 -85 102zM697 143l30 -36c-76 -82 -184 -126 -309 -126c-228 0 -379 159 -379 373c0 211 168 373 378 373c187 0 351 -115 351 -319c0 -156 -85 -248 -195 -248
c-58 0 -85 33 -85 78h-3c-16 -32 -62 -78 -128 -78c-87 0 -136 67 -136 154c0 114 77 236 199 236c54 0 92 -29 104 -69h4l13 53h50l-49 -201c-4 -18 -10 -55 -10 -74c0 -29 12 -52 53 -52c82 0 129 90 129 196c0 172 -126 274 -298 274c-189 0 -318 -145 -318 -326
c0 -190 132 -322 325 -322c117 0 207 45 274 114z" />
    <glyph glyph-name="A" unicode="A" horiz-adv-x="690" 
d="M155 191l-80 -191h-63l307 708h57l301 -708h-63l-80 191h-379zM346 648l-170 -405h337z" />
    <glyph glyph-name="B" unicode="B" horiz-adv-x="629" 
d="M98 0v708h205c108 0 226 -38 226 -177c0 -82 -57 -139 -131 -156v-2c86 -9 165 -69 165 -179c0 -128 -109 -194 -253 -194h-212zM155 659v-265h152c77 0 164 34 164 133c0 97 -83 132 -179 132h-137zM155 346v-297h149c110 0 201 42 201 147c0 104 -81 150 -189 150h-161
z" />
    <glyph glyph-name="C" unicode="C" horiz-adv-x="721" 
d="M645 136l39 -31c-58 -76 -140 -124 -258 -124c-213 0 -365 157 -365 373s155 373 366 373c103 0 193 -37 244 -103l-41 -38c-41 52 -116 90 -202 90c-189 0 -307 -147 -307 -322c0 -174 118 -322 307 -322c83 0 153 25 217 104z" />
    <glyph glyph-name="D" unicode="D" horiz-adv-x="761" 
d="M98 0v708h224c190 0 378 -115 378 -354s-188 -354 -378 -354h-224zM155 657v-606h152c212 0 333 131 333 303c0 173 -121 303 -333 303h-152z" />
    <glyph glyph-name="E" unicode="E" horiz-adv-x="591" 
d="M154 343v-292h388v-51h-444v708h431v-51h-375v-264h351v-50h-351z" />
    <glyph glyph-name="F" unicode="F" horiz-adv-x="561" 
d="M155 342v-342h-57v708h420v-51h-363v-265h337v-50h-337z" />
    <glyph glyph-name="G" unicode="G" horiz-adv-x="784" 
d="M677 635l-36 -39c-51 51 -126 80 -211 80c-190 0 -309 -147 -309 -321s117 -323 311 -323c85 0 156 20 203 48v234h-170v50h227v-316c-70 -42 -161 -67 -261 -67c-217 0 -370 159 -370 374c0 214 156 372 369 372c107 0 187 -33 247 -92z" />
    <glyph glyph-name="H" unicode="H" horiz-adv-x="722" 
d="M98 0v708h57v-314h413v314h57v-708h-57v341h-413v-341h-57z" />
    <glyph glyph-name="I" unicode="I" horiz-adv-x="252" 
d="M155 708v-708h-57v708h57z" />
    <glyph glyph-name="J" unicode="J" horiz-adv-x="488" 
d="M26 116l53 15c15 -56 61 -99 125 -99c103 0 135 80 135 173v503h57v-507c0 -104 -42 -219 -186 -219c-97 0 -165 57 -184 134z" />
    <glyph glyph-name="K" unicode="K" horiz-adv-x="609" 
d="M155 708v-320l343 320h82l-358 -322l377 -386h-83l-361 378v-378h-57v708h57z" />
    <glyph glyph-name="L" unicode="L" horiz-adv-x="506" 
d="M155 708v-657h336v-51h-393v708h57z" />
    <glyph glyph-name="M" unicode="M" horiz-adv-x="892" 
d="M98 0v708h88l261 -613l259 613h88v-708h-57v635h-2l-273 -635h-32l-273 635h-2v-635h-57z" />
    <glyph glyph-name="N" unicode="N" horiz-adv-x="768" 
d="M170 708l441 -626h2v626h57v-708h-72l-441 630h-2v-630h-57v708h72z" />
    <glyph glyph-name="O" unicode="O" horiz-adv-x="857" 
d="M796 354c0 -216 -157 -373 -368 -373c-210 0 -367 157 -367 373s157 373 367 373c211 0 368 -157 368 -373zM736 354c0 175 -120 322 -308 322c-187 0 -307 -147 -307 -322c0 -174 119 -322 307 -322c189 0 308 148 308 322z" />
    <glyph glyph-name="P" unicode="P" horiz-adv-x="578" 
d="M98 0v708h197c132 0 233 -55 233 -185c0 -125 -96 -188 -230 -188h-143v-335h-57zM155 659v-276h140c105 0 176 46 176 140c0 96 -75 136 -177 136h-139z" />
    <glyph glyph-name="Q" unicode="Q" horiz-adv-x="855" 
d="M121 362c0 -168 116 -312 300 -312s300 149 300 312c0 169 -118 314 -300 314c-184 0 -300 -144 -300 -314zM825 51v-51h-405c-203 0 -359 150 -359 362c0 211 153 365 360 365c205 0 359 -155 359 -365c0 -134 -72 -256 -191 -309v-2h236z" />
    <glyph glyph-name="R" unicode="R" horiz-adv-x="598" 
d="M155 339v-339h-57v708h204c130 0 236 -45 236 -185c0 -113 -88 -172 -188 -180l209 -343h-69l-202 339h-133zM155 659v-271h139c119 0 187 46 187 135c0 102 -81 136 -188 136h-138z" />
    <glyph glyph-name="S" unicode="S" horiz-adv-x="566" 
d="M491 643l-41 -37c-38 46 -88 72 -156 72c-77 0 -164 -46 -164 -143c0 -206 372 -100 372 -354c0 -136 -113 -200 -226 -200c-91 0 -164 37 -214 102l40 35c50 -59 105 -87 174 -87c83 0 168 51 168 147c0 208 -371 106 -371 357c0 131 116 192 224 192
c93 0 158 -37 194 -84z" />
    <glyph glyph-name="T" unicode="T" horiz-adv-x="561" 
d="M309 657v-657h-57v657h-238v51h533v-51h-238z" />
    <glyph glyph-name="U" unicode="U" horiz-adv-x="717" 
d="M358 -19c-208 0 -266 154 -266 284v443h57v-436c0 -113 44 -240 209 -240c164 0 210 125 210 240v436h57v-443c0 -130 -58 -284 -267 -284z" />
    <glyph glyph-name="V" unicode="V" horiz-adv-x="618" 
d="M69 708l239 -637h2l239 637h61l-270 -708h-64l-269 708h62z" />
    <glyph glyph-name="W" unicode="W" horiz-adv-x="967" 
d="M78 708l184 -633h2l184 633h71l185 -633h3l182 633h60l-210 -708h-69l-186 632h-2l-185 -632h-69l-210 708h60z" />
    <glyph glyph-name="X" unicode="X" horiz-adv-x="631" 
d="M95 0h-71l257 372l-234 336h71l198 -292l196 292h67l-231 -335l259 -373h-71l-221 327z" />
    <glyph glyph-name="Y" unicode="Y" horiz-adv-x="583" 
d="M320 306v-306h-57v306l-259 402h71l218 -353l219 353h66z" />
    <glyph glyph-name="Z" unicode="Z" horiz-adv-x="579" 
d="M536 708v-51l-428 -606h436v-51h-506v50l429 607h-418v51h487z" />
    <glyph glyph-name="bracketleft" unicode="[" horiz-adv-x="300" 
d="M220 732v-44h-103v-800h103v-44h-155v888h155z" />
    <glyph glyph-name="backslash" unicode="\" horiz-adv-x="370" 
d="M314 -17l-304 728l46 16l304 -729z" />
    <glyph glyph-name="bracketright" unicode="]" horiz-adv-x="300" 
d="M80 -156v44h103v800h-103v44h155v-888h-155z" />
    <glyph glyph-name="asciicircum" unicode="^" horiz-adv-x="666" 
d="M85 265l228 443h40l228 -443h-50l-198 389l-198 -389h-50z" />
    <glyph glyph-name="underscore" unicode="_" horiz-adv-x="500" 
d="M0 -122v41h500v-41h-500z" />
    <glyph glyph-name="grave" unicode="`" 
d="M125 564l-126 144h72l101 -144h-47z" />
    <glyph glyph-name="a" unicode="a" horiz-adv-x="527" 
d="M218 -13c-72 0 -160 39 -160 139c0 134 144 156 283 156h47v21c0 88 -48 130 -132 130c-54 0 -105 -22 -139 -55l-30 36c39 38 103 64 174 64c103 0 179 -55 179 -169v-204c0 -36 3 -79 8 -105h-49c-4 24 -8 61 -8 86h-2c-38 -68 -96 -99 -171 -99zM231 32
c108 0 157 84 157 169v38h-35c-108 0 -239 -13 -239 -110c0 -73 62 -97 117 -97z" />
    <glyph glyph-name="b" unicode="b" horiz-adv-x="634" 
d="M152 92h-3v-92h-54v756h54v-385h3c40 70 113 107 186 107c143 0 238 -106 238 -245s-96 -246 -238 -246c-73 0 -148 37 -186 105zM519 233c0 109 -69 200 -186 200c-110 0 -190 -88 -190 -200s80 -199 190 -199c117 0 186 89 186 199z" />
    <glyph glyph-name="c" unicode="c" horiz-adv-x="494" 
d="M466 405l-36 -33c-28 36 -79 59 -129 59c-113 0 -186 -87 -186 -198s73 -197 184 -197c57 0 102 21 136 56l34 -31c-40 -46 -97 -74 -170 -74c-146 0 -240 104 -240 246c0 141 98 245 241 245c66 0 127 -24 166 -73z" />
    <glyph glyph-name="d" unicode="d" horiz-adv-x="634" 
d="M482 92c-40 -68 -113 -105 -186 -105c-142 0 -238 107 -238 246c0 138 96 245 238 245c73 0 146 -37 186 -107h2v385h55v-756h-55v92h-2zM115 233c0 -110 69 -199 186 -199c110 0 189 87 189 199s-79 200 -189 200c-117 0 -186 -91 -186 -200z" />
    <glyph glyph-name="e" unicode="e" horiz-adv-x="567" 
d="M115 265h340c-4 98 -65 168 -167 168c-105 0 -169 -91 -173 -168zM294 -13c-136 0 -236 105 -236 247c0 141 101 244 231 244c146 0 220 -106 220 -228v-28h-395c2 -99 72 -188 182 -188c70 0 117 28 160 79l36 -29c-52 -67 -120 -97 -198 -97z" />
    <glyph glyph-name="f" unicode="f" horiz-adv-x="291" 
d="M282 466v-46h-114v-420h-55v420h-97v46h97v139c0 108 56 163 147 163c18 0 38 -2 53 -7l-9 -45c-11 3 -28 5 -45 5c-73 0 -91 -56 -91 -122v-133h114z" />
    <glyph glyph-name="g" unicode="g" horiz-adv-x="630" 
d="M74 -151l35 37c47 -50 115 -81 186 -81c142 0 189 96 189 206v91h-2c-36 -68 -112 -106 -186 -106c-142 0 -238 102 -238 239c0 135 96 243 238 243c74 0 148 -37 186 -107h2v95h55v-455c0 -116 -50 -254 -246 -254c-86 0 -166 35 -219 92zM115 237
c0 -105 69 -195 186 -195c110 0 189 83 189 195c0 105 -79 196 -189 196c-117 0 -186 -91 -186 -196z" />
    <glyph glyph-name="h" unicode="h" horiz-adv-x="579" 
d="M149 375h2c31 68 95 103 164 103c122 0 175 -84 175 -194v-284h-54v264c0 92 -29 168 -133 168c-80 0 -154 -65 -154 -195v-237h-54v756h54v-381z" />
    <glyph glyph-name="i" unicode="i" horiz-adv-x="243" 
d="M149 466v-466h-55v466h55zM162 651c0 -24 -20 -41 -41 -41c-20 0 -40 17 -40 41s20 41 40 41c21 0 41 -17 41 -41z" />
    <glyph glyph-name="j" unicode="j" horiz-adv-x="244" 
d="M-24 -234l8 45c12 -3 26 -5 38 -5c65 0 73 48 73 107v553h54v-560c0 -81 -25 -146 -126 -146c-13 0 -33 1 -47 6zM163 651c0 -24 -21 -41 -41 -41s-40 17 -40 41s20 41 40 41c21 0 41 -17 41 -41z" />
    <glyph glyph-name="k" unicode="k" horiz-adv-x="491" 
d="M149 756v-502h3l222 212h78l-238 -214l263 -252h-80l-245 245h-3v-245h-54v756h54z" />
    <glyph glyph-name="l" unicode="l" horiz-adv-x="244" 
d="M149 756v-756h-54v756h54z" />
    <glyph glyph-name="m" unicode="m" horiz-adv-x="885" 
d="M94 0v359c0 26 -1 76 -4 107h52c2 -26 4 -68 4 -93h2c27 64 91 105 157 105c70 0 123 -33 149 -111h2c30 71 90 111 167 111c120 0 173 -84 173 -194v-284h-54v264c0 92 -33 169 -127 169c-97 0 -145 -87 -145 -190v-243h-55v274c0 86 -23 159 -119 159
c-74 0 -147 -66 -147 -196v-237h-55z" />
    <glyph glyph-name="n" unicode="n" horiz-adv-x="578" 
d="M90 466h52c2 -26 4 -68 4 -93h2c27 64 97 105 167 105c122 0 174 -84 174 -194v-284h-54v264c0 92 -29 168 -132 168c-81 0 -154 -65 -154 -195v-237h-55v359c0 26 -1 76 -4 107z" />
    <glyph glyph-name="o" unicode="o" horiz-adv-x="609" 
d="M550 233c0 -141 -101 -246 -246 -246c-144 0 -245 105 -245 246c0 142 101 245 245 245c145 0 246 -103 246 -245zM494 233c0 111 -73 198 -190 198c-116 0 -189 -87 -189 -198s73 -197 189 -197c117 0 190 86 190 197z" />
    <glyph glyph-name="p" unicode="p" horiz-adv-x="632" 
d="M148 90v-330h-54v706h54v-93h3c40 72 112 105 185 105c143 0 239 -106 239 -245s-94 -246 -237 -246c-73 0 -149 33 -187 103h-3zM517 233c0 109 -69 200 -186 200c-109 0 -188 -88 -188 -200s79 -199 188 -199c117 0 186 89 186 199z" />
    <glyph glyph-name="q" unicode="q" horiz-adv-x="632" 
d="M484 92h-3c-37 -67 -112 -105 -185 -105c-142 0 -238 107 -238 246s95 245 238 245c73 0 146 -37 185 -107h3v95h55v-706h-55v332zM115 233c0 -110 69 -199 186 -199c109 0 188 87 188 199s-79 200 -188 200c-117 0 -186 -91 -186 -200z" />
    <glyph glyph-name="r" unicode="r" horiz-adv-x="347" 
d="M94 359c0 26 -1 76 -4 107h52c2 -26 4 -68 4 -93h2c26 67 86 105 153 105c14 0 25 0 37 -4l-6 -50c-7 2 -24 4 -38 4c-85 0 -145 -71 -145 -189v-239h-55v359z" />
    <glyph glyph-name="s" unicode="s" horiz-adv-x="435" 
d="M379 399l-42 -30c-23 39 -65 64 -117 64c-49 0 -105 -23 -105 -81c0 -54 40 -72 117 -89c99 -22 156 -58 156 -134c0 -99 -84 -141 -169 -141c-70 0 -137 28 -177 87l43 31c27 -42 77 -72 134 -72c58 0 115 26 115 91c0 127 -271 50 -271 223c0 90 78 130 159 130
c68 0 127 -28 157 -79z" />
    <glyph glyph-name="t" unicode="t" horiz-adv-x="313" 
d="M294 466v-46h-133v-295c0 -67 30 -86 74 -86c19 0 40 5 57 13l3 -47c-22 -8 -46 -13 -74 -13c-57 0 -114 29 -114 120v308h-98v46h97v133h55v-133h133z" />
    <glyph glyph-name="u" unicode="u" horiz-adv-x="578" 
d="M488 0h-53c-2 25 -4 68 -4 92h-2c-26 -63 -96 -105 -166 -105c-122 0 -175 84 -175 194v285h55v-264c0 -92 28 -169 132 -169c80 0 154 66 154 196v237h54v-359c0 -26 2 -77 5 -107z" />
    <glyph glyph-name="v" unicode="v" horiz-adv-x="472" 
d="M453 466l-185 -466h-62l-188 466h61l158 -409h2l156 409h58z" />
    <glyph glyph-name="w" unicode="w" horiz-adv-x="732" 
d="M28 466h58l117 -398h2l133 398h55l135 -398h2l116 398h57l-144 -466h-61l-132 396h-2l-131 -396h-61z" />
    <glyph glyph-name="x" unicode="x" horiz-adv-x="474" 
d="M20 0l183 242l-169 224h70l133 -186l133 186h66l-167 -222l186 -244h-71l-148 205l-151 -205h-65z" />
    <glyph glyph-name="y" unicode="y" horiz-adv-x="470" 
d="M84 -241c-18 0 -38 3 -55 7l7 49c13 -5 29 -8 46 -8c49 0 72 36 91 85l40 105l-195 469h61l162 -411l2 2l150 409h59l-232 -596c-27 -68 -63 -111 -136 -111z" />
    <glyph glyph-name="z" unicode="z" horiz-adv-x="441" 
d="M393 466v-41l-286 -378h297v-47h-368v40l287 380h-272v46h342z" />
    <glyph glyph-name="braceleft" unicode="{" horiz-adv-x="300" 
d="M0 264v48c50 0 78 35 78 112v183c0 94 50 125 108 125h58v-44h-48c-51 0 -65 -43 -65 -89v-184c0 -93 -54 -122 -82 -126v-2c28 -4 82 -33 82 -126v-184c0 -46 14 -89 65 -89h48v-44h-58c-58 0 -108 31 -108 125v183c0 77 -28 112 -78 112z" />
    <glyph glyph-name="bar" unicode="|" horiz-adv-x="222" 
d="M87 750h48v-1000h-48v1000z" />
    <glyph glyph-name="braceright" unicode="}" horiz-adv-x="300" 
d="M300 312v-48c-50 0 -78 -35 -78 -112v-183c0 -94 -50 -125 -108 -125h-58v44h48c51 0 65 43 65 89v184c0 93 54 122 82 126v2c-28 4 -82 33 -82 126v184c0 46 -14 89 -65 89h-48v44h58c58 0 108 -31 108 -125v-183c0 -77 28 -112 78 -112z" />
    <glyph glyph-name="asciitilde" unicode="~" horiz-adv-x="666" 
d="M542 365l34 -33c-30 -48 -75 -92 -134 -92c-40 0 -66 7 -108 35c-47 30 -71 43 -107 43c-48 0 -81 -37 -102 -76l-35 32c34 51 76 93 135 93c37 0 68 -9 107 -35c45 -30 77 -44 108 -44c48 0 81 42 102 77z" />
    <glyph glyph-name="uni00A0" unicode="&#xa0;" horiz-adv-x="250" 
 />
    <glyph glyph-name="Agrave" unicode="&#xc0;" horiz-adv-x="690" 
d="M155 191l-80 -191h-63l307 708h57l301 -708h-63l-80 191h-379zM346 648l-170 -405h337zM327 764l-126 144h72l101 -144h-47z" />
    <glyph glyph-name="Aacute" unicode="&#xc1;" horiz-adv-x="690" 
d="M155 191l-80 -191h-63l307 708h57l301 -708h-63l-80 191h-379zM346 648l-170 -405h337zM494 908l-126 -144h-47l101 144h72z" />
    <glyph glyph-name="Acircumflex" unicode="&#xc2;" horiz-adv-x="690" 
d="M155 191l-80 -191h-63l307 708h57l301 -708h-63l-80 191h-379zM346 648l-170 -405h337zM377 908l107 -144h-53l-86 115l-86 -115h-53l107 144h64z" />
    <glyph glyph-name="Atilde" unicode="&#xc3;" horiz-adv-x="690" 
d="M155 191l-80 -191h-63l307 708h57l301 -708h-63l-80 191h-379zM346 648l-170 -405h337zM233 781h-35c8 51 32 94 82 94c42 0 102 -47 135 -47c28 0 40 22 46 49h35c-8 -50 -31 -93 -81 -93c-43 0 -101 47 -135 47c-28 0 -41 -23 -47 -50z" />
    <glyph glyph-name="Adieresis" unicode="&#xc4;" horiz-adv-x="690" 
d="M155 191l-80 -191h-63l307 708h57l301 -708h-63l-80 191h-379zM346 648l-170 -405h337zM214 851c0 22 18 43 43 43c24 0 42 -21 42 -43c0 -23 -18 -44 -42 -44c-25 0 -43 21 -43 44zM395 851c0 22 18 43 42 43c25 0 43 -21 43 -43c0 -23 -18 -44 -43 -44
c-24 0 -42 21 -42 44z" />
    <glyph glyph-name="Amacron" unicode="&#x100;" horiz-adv-x="690" 
d="M155 191l-80 -191h-63l307 708h57l301 -708h-63l-80 191h-379zM346 648l-170 -405h337zM476 850v-44h-258v44h258z" />
    <glyph glyph-name="Abreve" unicode="&#x102;" horiz-adv-x="690" 
d="M155 191l-80 -191h-63l307 708h57l301 -708h-63l-80 191h-379zM346 648l-170 -405h337zM452 905h36c-7 -82 -63 -130 -141 -130c-77 0 -133 48 -140 130h37c10 -57 53 -86 103 -86c53 0 94 27 105 86z" />
    <glyph glyph-name="Aring" unicode="&#xc5;" horiz-adv-x="690" 
d="M155 191l-80 -191h-63l307 708h57l301 -708h-63l-80 191h-379zM346 648l-170 -405h337zM442 850c0 -54 -44 -95 -96 -95s-96 41 -96 95s44 95 96 95s96 -41 96 -95zM411 850c0 36 -29 65 -65 65s-65 -29 -65 -65s29 -65 65 -65s65 29 65 65z" />
    <glyph glyph-name="Aogonek" unicode="&#x104;" horiz-adv-x="690" 
d="M12 0l307 708h57l301 -708c-9 -9 -38 -16 -43 -23c-39 -41 -61 -70 -61 -104c0 -32 24 -53 55 -53c20 0 42 9 56 24l16 -32c-22 -22 -55 -35 -87 -35c-47 0 -88 33 -88 84c0 54 46 102 89 139l-80 191h-379l-80 -191h-63zM346 648l-170 -405h337z" />
    <glyph glyph-name="AE" unicode="&#xc6;" horiz-adv-x="983" 
d="M568 343v-292h361v-51h-418v200h-298l-130 -200h-65l460 708h437v-51h-347v-264h323v-50h-323zM243 251h268v406h-6z" />
    <glyph glyph-name="Cacute" unicode="&#x106;" horiz-adv-x="721" 
d="M645 136l39 -31c-58 -76 -140 -124 -258 -124c-213 0 -365 157 -365 373s155 373 366 373c103 0 193 -37 244 -103l-41 -38c-41 52 -116 90 -202 90c-189 0 -307 -147 -307 -322c0 -174 118 -322 307 -322c83 0 153 25 217 104zM549 908l-126 -144h-47l101 144h72z" />
    <glyph glyph-name="Ccircumflex" unicode="&#x108;" horiz-adv-x="721" 
d="M645 136l39 -31c-58 -76 -140 -124 -258 -124c-213 0 -365 157 -365 373s155 373 366 373c103 0 193 -37 244 -103l-41 -38c-41 52 -116 90 -202 90c-189 0 -307 -147 -307 -322c0 -174 118 -322 307 -322c83 0 153 25 217 104zM458 908l107 -144h-53l-86 115l-86 -115
h-53l107 144h64z" />
    <glyph glyph-name="Ccaron" unicode="&#x10c;" horiz-adv-x="721" 
d="M645 136l39 -31c-58 -76 -140 -124 -258 -124c-213 0 -365 157 -365 373s155 373 366 373c103 0 193 -37 244 -103l-41 -38c-41 52 -116 90 -202 90c-189 0 -307 -147 -307 -322c0 -174 118 -322 307 -322c83 0 153 25 217 104zM565 908l-107 -144h-64l-107 144h53
l86 -115l86 115h53z" />
    <glyph glyph-name="Cdotaccent" unicode="&#x10a;" horiz-adv-x="721" 
d="M645 136l39 -31c-58 -76 -140 -124 -258 -124c-213 0 -365 157 -365 373s155 373 366 373c103 0 193 -37 244 -103l-41 -38c-41 52 -116 90 -202 90c-189 0 -307 -147 -307 -322c0 -174 118 -322 307 -322c83 0 153 25 217 104zM462 851c0 -24 -21 -41 -41 -41
s-41 17 -41 41s21 41 41 41s41 -17 41 -41z" />
    <glyph glyph-name="Ccedilla" unicode="&#xc7;" horiz-adv-x="721" 
d="M645 136l39 -31c-58 -76 -139 -123 -255 -124l-38 -59c12 4 24 5 40 5c40 0 84 -22 84 -71c0 -66 -66 -85 -116 -85c-27 0 -65 7 -93 20l13 31c23 -11 51 -16 76 -16c26 0 72 11 72 49c0 31 -27 43 -60 43c-15 0 -37 -4 -51 -10l-15 13l52 81c-196 15 -332 167 -332 372
c0 216 155 373 366 373c103 0 193 -37 244 -103l-41 -38c-41 52 -116 90 -202 90c-189 0 -307 -147 -307 -322c0 -174 118 -322 307 -322c83 0 153 25 217 104z" />
    <glyph glyph-name="Dcaron" unicode="&#x10e;" horiz-adv-x="761" 
d="M98 0v708h224c190 0 378 -115 378 -354s-188 -354 -378 -354h-224zM155 657v-606h152c212 0 333 131 333 303c0 173 -121 303 -333 303h-152zM488 908l-107 -144h-64l-107 144h53l86 -115l86 115h53z" />
    <glyph glyph-name="Dcroat" unicode="&#x110;" horiz-adv-x="761" 
d="M92 0v350h-75v44h75v314h225c190 0 377 -115 377 -354s-187 -354 -377 -354h-225zM149 350v-298h150c214 0 334 130 334 302c0 173 -120 302 -334 302h-150v-262h261v-44h-261z" />
    <glyph glyph-name="Eth" unicode="&#xd0;" horiz-adv-x="761" 
d="M92 0v350h-75v44h75v314h225c190 0 377 -115 377 -354s-187 -354 -377 -354h-225zM149 350v-298h150c214 0 334 130 334 302c0 173 -120 302 -334 302h-150v-262h261v-44h-261z" />
    <glyph glyph-name="Egrave" unicode="&#xc8;" horiz-adv-x="591" 
d="M154 343v-292h388v-51h-444v708h431v-51h-375v-264h351v-50h-351zM317 764l-126 144h72l101 -144h-47z" />
    <glyph glyph-name="Eacute" unicode="&#xc9;" horiz-adv-x="591" 
d="M154 343v-292h388v-51h-444v708h431v-51h-375v-264h351v-50h-351zM445 908l-126 -144h-47l101 144h72z" />
    <glyph glyph-name="Ecircumflex" unicode="&#xca;" horiz-adv-x="591" 
d="M154 343v-292h388v-51h-444v708h431v-51h-375v-264h351v-50h-351zM347 908l107 -144h-53l-86 115l-86 -115h-53l107 144h64z" />
    <glyph glyph-name="Ecaron" unicode="&#x11a;" horiz-adv-x="591" 
d="M154 343v-292h388v-51h-444v708h431v-51h-375v-264h351v-50h-351zM455 908l-107 -144h-64l-107 144h53l86 -115l86 115h53z" />
    <glyph glyph-name="Edieresis" unicode="&#xcb;" horiz-adv-x="591" 
d="M154 343v-292h388v-51h-444v708h431v-51h-375v-264h351v-50h-351zM183 851c0 22 18 43 43 43c24 0 42 -21 42 -43c0 -23 -18 -44 -42 -44c-25 0 -43 21 -43 44zM364 851c0 22 18 43 42 43c25 0 43 -21 43 -43c0 -23 -18 -44 -43 -44c-24 0 -42 21 -42 44z" />
    <glyph glyph-name="Emacron" unicode="&#x112;" horiz-adv-x="591" 
d="M154 343v-292h388v-51h-444v708h431v-51h-375v-264h351v-50h-351zM445 850v-44h-258v44h258z" />
    <glyph glyph-name="Ebreve" unicode="&#x114;" horiz-adv-x="591" 
d="M154 343v-292h388v-51h-444v708h431v-51h-375v-264h351v-50h-351zM420 905h36c-7 -82 -63 -130 -141 -130c-77 0 -133 48 -140 130h37c10 -57 53 -86 103 -86c53 0 94 27 105 86z" />
    <glyph glyph-name="Edotaccent" unicode="&#x116;" horiz-adv-x="591" 
d="M154 343v-292h388v-51h-444v708h431v-51h-375v-264h351v-50h-351zM361 851c0 -24 -21 -41 -41 -41s-41 17 -41 41s21 41 41 41s41 -17 41 -41z" />
    <glyph glyph-name="Eogonek" unicode="&#x118;" horiz-adv-x="591" 
d="M555 -156l17 -32c-23 -22 -56 -35 -88 -35c-47 0 -88 33 -88 84c0 54 47 102 90 139h-388v708h431v-51h-375v-264h351v-50h-351v-292h388v-51h-16c-52 -53 -81 -86 -81 -127c0 -32 23 -53 54 -53c21 0 42 9 56 24z" />
    <glyph glyph-name="Gcircumflex" unicode="&#x11c;" horiz-adv-x="784" 
d="M677 635l-36 -39c-51 51 -126 80 -211 80c-190 0 -309 -147 -309 -321s117 -323 311 -323c85 0 156 20 203 48v234h-170v50h227v-316c-70 -42 -161 -67 -261 -67c-217 0 -370 159 -370 374c0 214 156 372 369 372c107 0 187 -33 247 -92zM463 908l107 -144h-53l-86 115
l-86 -115h-53l107 144h64z" />
    <glyph glyph-name="Gbreve" unicode="&#x11e;" horiz-adv-x="784" 
d="M677 635l-36 -39c-51 51 -126 80 -211 80c-190 0 -309 -147 -309 -321s117 -323 311 -323c85 0 156 20 203 48v234h-170v50h227v-316c-70 -42 -161 -67 -261 -67c-217 0 -370 159 -370 374c0 214 156 372 369 372c107 0 187 -33 247 -92zM534 905h36
c-7 -82 -63 -130 -141 -130c-77 0 -133 48 -140 130h37c10 -57 53 -86 103 -86c53 0 94 27 105 86z" />
    <glyph glyph-name="Gdotaccent" unicode="&#x120;" horiz-adv-x="784" 
d="M677 635l-36 -39c-51 51 -126 80 -211 80c-190 0 -309 -147 -309 -321s117 -323 311 -323c85 0 156 20 203 48v234h-170v50h227v-316c-70 -42 -161 -67 -261 -67c-217 0 -370 159 -370 374c0 214 156 372 369 372c107 0 187 -33 247 -92zM469 851c0 -24 -21 -41 -41 -41
s-41 17 -41 41s21 41 41 41s41 -17 41 -41z" />
    <glyph glyph-name="Gcommaaccent" unicode="&#x122;" horiz-adv-x="787" 
d="M677 635l-36 -39c-51 51 -126 80 -211 80c-190 0 -309 -147 -309 -321s117 -323 311 -323c85 0 156 20 203 48v234h-170v50h227v-316c-70 -42 -161 -67 -261 -67c-217 0 -370 159 -370 374c0 214 156 372 369 372c107 0 187 -33 247 -92zM472 -45l-71 -185h-45l59 185h57
z" />
    <glyph glyph-name="Hcircumflex" unicode="&#x124;" horiz-adv-x="722" 
d="M98 0v708h57v-314h413v314h57v-708h-57v341h-413v-341h-57zM392 908l107 -144h-53l-86 115l-86 -115h-53l107 144h64z" />
    <glyph glyph-name="Hbar" unicode="&#x126;" horiz-adv-x="722" 
d="M98 0v708h57v-168h413v168h57v-708h-57v341h-413v-341h-57zM155 394h413v106h-413v-106z" />
    <glyph glyph-name="Igrave" unicode="&#xcc;" horiz-adv-x="252" 
d="M155 708v-708h-57v708h57zM107 764l-126 144h72l101 -144h-47z" />
    <glyph glyph-name="Iacute" unicode="&#xcd;" horiz-adv-x="252" 
d="M155 708v-708h-57v708h57zM270 908l-126 -144h-47l101 144h72z" />
    <glyph glyph-name="Icircumflex" unicode="&#xce;" horiz-adv-x="252" 
d="M155 708v-708h-57v708h57zM157 908l107 -144h-53l-86 115l-86 -115h-53l107 144h64z" />
    <glyph glyph-name="Itilde" unicode="&#x128;" horiz-adv-x="252" 
d="M155 708v-708h-57v708h57zM14 781h-35c8 51 32 94 82 94c42 0 102 -47 135 -47c28 0 40 22 46 49h35c-8 -50 -31 -93 -81 -93c-43 0 -101 47 -135 47c-28 0 -41 -23 -47 -50z" />
    <glyph glyph-name="Idieresis" unicode="&#xcf;" horiz-adv-x="252" 
d="M155 708v-708h-57v708h57zM-7 851c0 22 18 43 43 43c24 0 42 -21 42 -43c0 -23 -18 -44 -42 -44c-25 0 -43 21 -43 44zM174 851c0 22 18 43 42 43c25 0 43 -21 43 -43c0 -23 -18 -44 -43 -44c-24 0 -42 21 -42 44z" />
    <glyph glyph-name="Imacron" unicode="&#x12a;" horiz-adv-x="252" 
d="M155 708v-708h-57v708h57zM256 850v-44h-258v44h258z" />
    <glyph glyph-name="Idotaccent" unicode="&#x130;" horiz-adv-x="252" 
d="M155 708v-708h-57v708h57zM168 851c0 -24 -21 -41 -41 -41s-41 17 -41 41s21 41 41 41s41 -17 41 -41z" />
    <glyph glyph-name="Ibreve" unicode="&#x12c;" horiz-adv-x="252" 
d="M155 708v-708h-57v708h57zM231 905h36c-7 -82 -63 -130 -141 -130c-77 0 -133 48 -140 130h37c10 -57 53 -86 103 -86c53 0 94 27 105 86z" />
    <glyph glyph-name="Iogonek" unicode="&#x12e;" horiz-adv-x="252" 
d="M108 -223c-47 0 -88 33 -88 84c0 54 47 102 90 139h-12v708h57v-708c-56 -56 -86 -85 -86 -127c0 -32 24 -53 54 -53c21 0 43 9 57 24l16 -32c-23 -22 -55 -35 -88 -35z" />
    <glyph glyph-name="Jcircumflex" unicode="&#x134;" horiz-adv-x="488" 
d="M26 116l53 15c15 -56 61 -99 125 -99c103 0 135 80 135 173v503h57v-507c0 -104 -42 -219 -186 -219c-97 0 -165 57 -184 134zM398 908l107 -144h-53l-86 115l-86 -115h-53l107 144h64z" />
    <glyph glyph-name="Kcommaaccent" unicode="&#x136;" horiz-adv-x="609" 
d="M155 708v-320l343 320h82l-358 -322l377 -386h-83l-361 378v-378h-57v708h57zM369 -45l-71 -185h-45l59 185h57z" />
    <glyph glyph-name="Lacute" unicode="&#x139;" horiz-adv-x="506" 
d="M155 708v-657h336v-51h-393v708h57zM275 908l-126 -144h-47l101 144h72z" />
    <glyph glyph-name="Lcaron" unicode="&#x13d;" horiz-adv-x="506" 
d="M155 708v-657h336v-51h-393v708h57zM348 708l-70 -185h-45l59 185h56z" />
    <glyph glyph-name="Lcommaaccent" unicode="&#x13b;" horiz-adv-x="506" 
d="M155 708v-657h336v-51h-393v708h57zM335 -45l-70 -185h-45l58 185h57z" />
    <glyph glyph-name="Lslash" unicode="&#x141;" horiz-adv-x="506" 
d="M155 708v-364l213 186v-56l-213 -187v-236h336v-51h-393v247l-77 -67v57l77 67v404h57z" />
    <glyph glyph-name="Ldot" unicode="&#x13f;" horiz-adv-x="506" 
d="M155 708v-657h336v-51h-393v708h57zM355 431c0 -24 -20 -41 -40 -41c-21 0 -41 17 -41 41s20 41 41 41c20 0 40 -17 40 -41z" />
    <glyph glyph-name="Nacute" unicode="&#x143;" horiz-adv-x="768" 
d="M170 708l441 -626h2v626h57v-708h-72l-441 630h-2v-630h-57v708h72zM524 908l-126 -144h-47l101 144h72z" />
    <glyph glyph-name="Ncaron" unicode="&#x147;" horiz-adv-x="768" 
d="M170 708l441 -626h2v626h57v-708h-72l-441 630h-2v-630h-57v708h72zM523 908l-107 -144h-64l-107 144h53l86 -115l86 115h53z" />
    <glyph glyph-name="Ntilde" unicode="&#xd1;" horiz-adv-x="768" 
d="M170 708l441 -626h2v626h57v-708h-72l-441 630h-2v-630h-57v708h72zM274 781h-35c8 51 32 94 82 94c42 0 102 -47 135 -47c28 0 40 22 46 49h35c-8 -50 -31 -93 -81 -93c-43 0 -101 47 -135 47c-28 0 -41 -23 -47 -50z" />
    <glyph glyph-name="Ncommaaccent" unicode="&#x145;" horiz-adv-x="768" 
d="M170 708l441 -626h2v626h57v-708h-72l-441 630h-2v-630h-57v708h72zM418 -45l-70 -185h-46l59 185h57z" />
    <glyph glyph-name="Eng" unicode="&#x14a;" horiz-adv-x="768" 
d="M98 0v708h72l441 -612h2v612h57v-802c0 -81 -25 -146 -126 -146c-13 0 -33 1 -47 6l8 45c12 -3 26 -5 38 -5c65 0 73 48 73 107v77l-459 640h-2v-630h-57z" />
    <glyph glyph-name="Ograve" unicode="&#xd2;" horiz-adv-x="857" 
d="M796 354c0 -216 -157 -373 -368 -373c-210 0 -367 157 -367 373s157 373 367 373c211 0 368 -157 368 -373zM736 354c0 175 -120 322 -308 322c-187 0 -307 -147 -307 -322c0 -174 119 -322 307 -322c189 0 308 148 308 322zM443 764l-126 144h72l101 -144h-47z" />
    <glyph glyph-name="Oacute" unicode="&#xd3;" horiz-adv-x="857" 
d="M796 354c0 -216 -157 -373 -368 -373c-210 0 -367 157 -367 373s157 373 367 373c211 0 368 -157 368 -373zM736 354c0 175 -120 322 -308 322c-187 0 -307 -147 -307 -322c0 -174 119 -322 307 -322c189 0 308 148 308 322zM553 908l-126 -144h-47l101 144h72z" />
    <glyph glyph-name="Ocircumflex" unicode="&#xd4;" horiz-adv-x="857" 
d="M796 354c0 -216 -157 -373 -368 -373c-210 0 -367 157 -367 373s157 373 367 373c211 0 368 -157 368 -373zM736 354c0 175 -120 322 -308 322c-187 0 -307 -147 -307 -322c0 -174 119 -322 307 -322c189 0 308 148 308 322zM460 908l107 -144h-53l-86 115l-86 -115h-53
l107 144h64z" />
    <glyph glyph-name="Otilde" unicode="&#xd5;" horiz-adv-x="857" 
d="M796 354c0 -216 -157 -373 -368 -373c-210 0 -367 157 -367 373s157 373 367 373c211 0 368 -157 368 -373zM736 354c0 175 -120 322 -308 322c-187 0 -307 -147 -307 -322c0 -174 119 -322 307 -322c189 0 308 148 308 322zM315 781h-35c8 51 32 94 82 94
c42 0 102 -47 135 -47c28 0 40 22 46 49h35c-8 -50 -31 -93 -81 -93c-43 0 -101 47 -135 47c-28 0 -41 -23 -47 -50z" />
    <glyph glyph-name="Odieresis" unicode="&#xd6;" horiz-adv-x="857" 
d="M796 354c0 -216 -157 -373 -368 -373c-210 0 -367 157 -367 373s157 373 367 373c211 0 368 -157 368 -373zM736 354c0 175 -120 322 -308 322c-187 0 -307 -147 -307 -322c0 -174 119 -322 307 -322c189 0 308 148 308 322zM296 851c0 22 18 43 43 43
c24 0 42 -21 42 -43c0 -23 -18 -44 -42 -44c-25 0 -43 21 -43 44zM477 851c0 22 18 43 42 43c25 0 43 -21 43 -43c0 -23 -18 -44 -43 -44c-24 0 -42 21 -42 44z" />
    <glyph glyph-name="Omacron" unicode="&#x14c;" horiz-adv-x="857" 
d="M796 354c0 -216 -157 -373 -368 -373c-210 0 -367 157 -367 373s157 373 367 373c211 0 368 -157 368 -373zM736 354c0 175 -120 322 -308 322c-187 0 -307 -147 -307 -322c0 -174 119 -322 307 -322c189 0 308 148 308 322zM560 850v-44h-258v44h258z" />
    <glyph glyph-name="Obreve" unicode="&#x14e;" horiz-adv-x="857" 
d="M796 354c0 -216 -157 -373 -368 -373c-210 0 -367 157 -367 373s157 373 367 373c211 0 368 -157 368 -373zM736 354c0 175 -120 322 -308 322c-187 0 -307 -147 -307 -322c0 -174 119 -322 307 -322c189 0 308 148 308 322zM535 905h36c-7 -82 -63 -130 -141 -130
c-77 0 -133 48 -140 130h37c10 -57 53 -86 103 -86c53 0 94 27 105 86z" />
    <glyph glyph-name="Ohungarumlaut" unicode="&#x150;" horiz-adv-x="857" 
d="M796 354c0 -216 -157 -373 -368 -373c-210 0 -367 157 -367 373s157 373 367 373c211 0 368 -157 368 -373zM736 354c0 175 -120 322 -308 322c-187 0 -307 -147 -307 -322c0 -174 119 -322 307 -322c189 0 308 148 308 322zM326 764l101 144h72l-126 -144h-47zM480 764
l101 144h72l-126 -144h-47z" />
    <glyph glyph-name="Oslash" unicode="&#xd8;" horiz-adv-x="857" 
d="M763 699l-73 -81c64 -66 102 -157 102 -264c0 -216 -157 -373 -368 -373c-92 0 -175 31 -237 83l-74 -80l-30 28l73 81c-62 65 -99 156 -99 261c0 216 157 373 367 373c91 0 172 -29 235 -81l74 80zM652 576l-428 -472c51 -45 118 -72 200 -72c191 0 308 148 308 322
c0 85 -28 165 -80 222zM195 134l428 472c-50 44 -118 70 -199 70c-189 0 -307 -147 -307 -322c0 -84 27 -163 78 -220z" />
    <glyph glyph-name="OE" unicode="&#x152;" horiz-adv-x="988" 
d="M449 708h476v-51h-339v-264h316v-50h-316v-292h352v-51h-489c-190 0 -378 115 -378 354s188 354 378 354zM464 657c-211 0 -333 -131 -333 -303c0 -173 122 -303 333 -303h65v606h-65z" />
    <glyph glyph-name="Racute" unicode="&#x154;" horiz-adv-x="598" 
d="M155 339v-339h-57v708h204c130 0 236 -45 236 -185c0 -113 -88 -172 -188 -180l209 -343h-69l-202 339h-133zM155 659v-271h139c119 0 187 46 187 135c0 102 -81 136 -188 136h-138zM406 908l-126 -144h-47l101 144h72z" />
    <glyph glyph-name="Rcaron" unicode="&#x158;" horiz-adv-x="598" 
d="M155 339v-339h-57v708h204c130 0 236 -45 236 -185c0 -113 -88 -172 -188 -180l209 -343h-69l-202 339h-133zM155 659v-271h139c119 0 187 46 187 135c0 102 -81 136 -188 136h-138zM421 908l-107 -144h-64l-107 144h53l86 -115l86 115h53z" />
    <glyph glyph-name="Rcommaaccent" unicode="&#x156;" horiz-adv-x="598" 
d="M155 339v-339h-57v708h204c130 0 236 -45 236 -185c0 -113 -88 -172 -188 -180l209 -343h-69l-202 339h-133zM155 659v-271h139c119 0 187 46 187 135c0 102 -81 136 -188 136h-138zM353 -45l-71 -185h-45l59 185h57z" />
    <glyph glyph-name="Sacute" unicode="&#x15a;" horiz-adv-x="566" 
d="M491 643l-41 -37c-38 46 -88 72 -156 72c-77 0 -164 -46 -164 -143c0 -206 372 -100 372 -354c0 -136 -113 -200 -226 -200c-91 0 -164 37 -214 102l40 35c50 -59 105 -87 174 -87c83 0 168 51 168 147c0 208 -371 106 -371 357c0 131 116 192 224 192
c93 0 158 -37 194 -84zM422 908l-126 -144h-47l101 144h72z" />
    <glyph glyph-name="Scircumflex" unicode="&#x15c;" horiz-adv-x="566" 
d="M491 643l-41 -37c-38 46 -88 72 -156 72c-77 0 -164 -46 -164 -143c0 -206 372 -100 372 -354c0 -136 -113 -200 -226 -200c-91 0 -164 37 -214 102l40 35c50 -59 105 -87 174 -87c83 0 168 51 168 147c0 208 -371 106 -371 357c0 131 116 192 224 192
c93 0 158 -37 194 -84zM327 908l107 -144h-53l-86 115l-86 -115h-53l107 144h64z" />
    <glyph glyph-name="Scaron" unicode="&#x160;" horiz-adv-x="566" 
d="M491 643l-41 -37c-38 46 -88 72 -156 72c-77 0 -164 -46 -164 -143c0 -206 372 -100 372 -354c0 -136 -113 -200 -226 -200c-91 0 -164 37 -214 102l40 35c50 -59 105 -87 174 -87c83 0 168 51 168 147c0 208 -371 106 -371 357c0 131 116 192 224 192
c93 0 158 -37 194 -84zM428 908l-107 -144h-64l-107 144h53l86 -115l86 115h53z" />
    <glyph glyph-name="Scedilla" unicode="&#x15e;" horiz-adv-x="566" 
d="M491 643l-41 -37c-38 46 -88 72 -156 72c-77 0 -164 -46 -164 -143c0 -206 372 -100 372 -354c0 -129 -101 -192 -207 -199l-38 -60c12 4 24 5 40 5c40 0 84 -22 84 -71c0 -66 -66 -85 -116 -85c-27 0 -65 7 -93 20l13 31c23 -11 51 -16 76 -16c26 0 72 11 72 49
c0 31 -27 43 -60 43c-15 0 -37 -4 -51 -10l-15 13l52 81c-83 4 -150 40 -197 101l40 35c50 -59 105 -87 174 -87c83 0 168 51 168 147c0 208 -371 106 -371 357c0 131 116 192 224 192c93 0 158 -37 194 -84z" />
    <glyph glyph-name="Scommaaccent" unicode="&#x218;" horiz-adv-x="566" 
d="M491 643l-41 -37c-38 46 -88 72 -156 72c-77 0 -164 -46 -164 -143c0 -206 372 -100 372 -354c0 -136 -113 -200 -226 -200c-91 0 -164 37 -214 102l40 35c50 -59 105 -87 174 -87c83 0 168 51 168 147c0 208 -371 106 -371 357c0 131 116 192 224 192
c93 0 158 -37 194 -84zM330 -46l-71 -185h-45l59 185h57z" />
    <glyph glyph-name="Tcaron" unicode="&#x164;" horiz-adv-x="561" 
d="M309 657v-657h-57v657h-238v51h533v-51h-238zM419 908l-107 -144h-64l-107 144h53l86 -115l86 115h53z" />
    <glyph glyph-name="uni0162" unicode="&#x162;" horiz-adv-x="561" 
d="M309 657v-657h-57v657h-238v51h533v-51h-238zM325 -45l-70 -185h-45l58 185h57z" />
    <glyph glyph-name="uni021A" unicode="&#x21a;" horiz-adv-x="561" 
d="M309 657v-657h-57v657h-238v51h533v-51h-238zM325 -45l-70 -185h-45l58 185h57z" />
    <glyph glyph-name="Tbar" unicode="&#x166;" horiz-adv-x="561" 
d="M69 544h183v113h-238v51h533v-51h-238v-113h176v-41h-176v-503h-57v503h-183v41z" />
    <glyph glyph-name="Thorn" unicode="&#xde;" horiz-adv-x="578" 
d="M98 0v708h57v-156h140c132 0 233 -55 233 -185c0 -125 -96 -188 -230 -188h-143v-179h-57zM155 502v-273h136c105 0 176 44 176 138c0 97 -75 135 -178 135h-134z" />
    <glyph glyph-name="Ugrave" unicode="&#xd9;" horiz-adv-x="717" 
d="M358 -19c-208 0 -266 154 -266 284v443h57v-436c0 -113 44 -240 209 -240c164 0 210 125 210 240v436h57v-443c0 -130 -58 -284 -267 -284zM364 764l-126 144h72l101 -144h-47z" />
    <glyph glyph-name="Uacute" unicode="&#xda;" horiz-adv-x="717" 
d="M358 -19c-208 0 -266 154 -266 284v443h57v-436c0 -113 44 -240 209 -240c164 0 210 125 210 240v436h57v-443c0 -130 -58 -284 -267 -284zM484 908l-126 -144h-47l101 144h72z" />
    <glyph glyph-name="Ucircumflex" unicode="&#xdb;" horiz-adv-x="717" 
d="M358 -19c-208 0 -266 154 -266 284v443h57v-436c0 -113 44 -240 209 -240c164 0 210 125 210 240v436h57v-443c0 -130 -58 -284 -267 -284zM390 908l107 -144h-53l-86 115l-86 -115h-53l107 144h64z" />
    <glyph glyph-name="Utilde" unicode="&#x168;" horiz-adv-x="717" 
d="M358 -19c-208 0 -266 154 -266 284v443h57v-436c0 -113 44 -240 209 -240c164 0 210 125 210 240v436h57v-443c0 -130 -58 -284 -267 -284zM245 781h-35c8 51 32 94 82 94c42 0 102 -47 135 -47c28 0 40 22 46 49h35c-8 -50 -31 -93 -81 -93c-43 0 -101 47 -135 47
c-28 0 -41 -23 -47 -50z" />
    <glyph glyph-name="Udieresis" unicode="&#xdc;" horiz-adv-x="717" 
d="M358 -19c-208 0 -266 154 -266 284v443h57v-436c0 -113 44 -240 209 -240c164 0 210 125 210 240v436h57v-443c0 -130 -58 -284 -267 -284zM226 851c0 22 18 43 43 43c24 0 42 -21 42 -43c0 -23 -18 -44 -42 -44c-25 0 -43 21 -43 44zM407 851c0 22 18 43 42 43
c25 0 43 -21 43 -43c0 -23 -18 -44 -43 -44c-24 0 -42 21 -42 44z" />
    <glyph glyph-name="Umacron" unicode="&#x16a;" horiz-adv-x="717" 
d="M358 -19c-208 0 -266 154 -266 284v443h57v-436c0 -113 44 -240 209 -240c164 0 210 125 210 240v436h57v-443c0 -130 -58 -284 -267 -284zM488 850v-44h-258v44h258z" />
    <glyph glyph-name="Ubreve" unicode="&#x16c;" horiz-adv-x="717" 
d="M358 -19c-208 0 -266 154 -266 284v443h57v-436c0 -113 44 -240 209 -240c164 0 210 125 210 240v436h57v-443c0 -130 -58 -284 -267 -284zM463 905h36c-7 -82 -63 -130 -141 -130c-77 0 -133 48 -140 130h37c10 -57 53 -86 103 -86c53 0 94 27 105 86z" />
    <glyph glyph-name="Uring" unicode="&#x16e;" horiz-adv-x="717" 
d="M358 -19c-208 0 -266 154 -266 284v443h57v-436c0 -113 44 -240 209 -240c164 0 210 125 210 240v436h57v-443c0 -130 -58 -284 -267 -284zM456 850c0 -54 -44 -95 -96 -95s-96 41 -96 95s44 95 96 95s96 -41 96 -95zM425 850c0 36 -29 65 -65 65s-65 -29 -65 -65
s29 -65 65 -65s65 29 65 65z" />
    <glyph glyph-name="Uhungarumlaut" unicode="&#x170;" horiz-adv-x="717" 
d="M358 -19c-208 0 -266 154 -266 284v443h57v-436c0 -113 44 -240 209 -240c164 0 210 125 210 240v436h57v-443c0 -130 -58 -284 -267 -284zM251 764l101 144h72l-126 -144h-47zM405 764l101 144h72l-126 -144h-47z" />
    <glyph glyph-name="Uogonek" unicode="&#x172;" horiz-adv-x="717" 
d="M367 -18h-12c-207 0 -263 155 -263 283v443h57v-436c0 -113 44 -240 209 -240c164 0 210 125 210 240v436h57v-443c0 -118 -48 -254 -210 -279c-44 -45 -68 -75 -68 -113c0 -32 24 -53 54 -53c21 0 43 9 57 24l16 -32c-22 -22 -55 -35 -88 -35c-47 0 -88 33 -88 84
c0 46 33 87 69 121z" />
    <glyph glyph-name="Wcircumflex" unicode="&#x174;" horiz-adv-x="967" 
d="M78 708l184 -633h2l184 633h71l185 -633h3l182 633h60l-210 -708h-69l-186 632h-2l-185 -632h-69l-210 708h60zM515 908l107 -144h-53l-86 115l-86 -115h-53l107 144h64z" />
    <glyph glyph-name="Wacute" unicode="&#x1e82;" horiz-adv-x="967" 
d="M78 708l184 -633h2l184 633h71l185 -633h3l182 633h60l-210 -708h-69l-186 632h-2l-185 -632h-69l-210 708h60zM629 908l-126 -144h-47l101 144h72z" />
    <glyph glyph-name="Wdieresis" unicode="&#x1e84;" horiz-adv-x="967" 
d="M78 708l184 -633h2l184 633h71l185 -633h3l182 633h60l-210 -708h-69l-186 632h-2l-185 -632h-69l-210 708h60zM350 851c0 22 18 43 43 43c24 0 42 -21 42 -43c0 -23 -18 -44 -42 -44c-25 0 -43 21 -43 44zM531 851c0 22 18 43 42 43c25 0 43 -21 43 -43
c0 -23 -18 -44 -43 -44c-24 0 -42 21 -42 44z" />
    <glyph glyph-name="Wgrave" unicode="&#x1e80;" horiz-adv-x="967" 
d="M78 708l184 -633h2l184 633h71l185 -633h3l182 633h60l-210 -708h-69l-186 632h-2l-185 -632h-69l-210 708h60zM465 764l-126 144h72l101 -144h-47z" />
    <glyph glyph-name="Yacute" unicode="&#xdd;" horiz-adv-x="583" 
d="M320 306v-306h-57v306l-259 402h71l218 -353l219 353h66zM441 908l-126 -144h-47l101 144h72z" />
    <glyph glyph-name="Ycircumflex" unicode="&#x176;" horiz-adv-x="583" 
d="M320 306v-306h-57v306l-259 402h71l218 -353l219 353h66zM325 908l107 -144h-53l-86 115l-86 -115h-53l107 144h64z" />
    <glyph glyph-name="Ydieresis" unicode="&#x178;" horiz-adv-x="583" 
d="M320 306v-306h-57v306l-259 402h71l218 -353l219 353h66zM160 851c0 22 18 43 43 43c24 0 42 -21 42 -43c0 -23 -18 -44 -42 -44c-25 0 -43 21 -43 44zM341 851c0 22 18 43 42 43c25 0 43 -21 43 -43c0 -23 -18 -44 -43 -44c-24 0 -42 21 -42 44z" />
    <glyph glyph-name="Ygrave" unicode="&#x1ef2;" horiz-adv-x="583" 
d="M320 306v-306h-57v306l-259 402h71l218 -353l219 353h66zM281 764l-126 144h72l101 -144h-47z" />
    <glyph glyph-name="Zacute" unicode="&#x179;" horiz-adv-x="579" 
d="M536 708v-51l-428 -606h436v-51h-506v50l429 607h-418v51h487zM425 908l-126 -144h-47l101 144h72z" />
    <glyph glyph-name="Zcaron" unicode="&#x17d;" horiz-adv-x="579" 
d="M536 708v-51l-428 -606h436v-51h-506v50l429 607h-418v51h487zM430 908l-107 -144h-64l-107 144h53l86 -115l86 115h53z" />
    <glyph glyph-name="Zdotaccent" unicode="&#x17b;" horiz-adv-x="579" 
d="M536 708v-51l-428 -606h436v-51h-506v50l429 607h-418v51h487zM332 851c0 -24 -21 -41 -41 -41s-41 17 -41 41s21 41 41 41s41 -17 41 -41z" />
    <glyph glyph-name="agrave" unicode="&#xe0;" horiz-adv-x="527" 
d="M218 -13c-72 0 -160 39 -160 139c0 134 144 156 283 156h47v21c0 88 -48 130 -132 130c-54 0 -105 -22 -139 -55l-30 36c39 38 103 64 174 64c103 0 179 -55 179 -169v-204c0 -36 3 -79 8 -105h-49c-4 24 -8 61 -8 86h-2c-38 -68 -96 -99 -171 -99zM231 32
c108 0 157 84 157 169v38h-35c-108 0 -239 -13 -239 -110c0 -73 62 -97 117 -97zM276 564l-126 144h72l101 -144h-47z" />
    <glyph glyph-name="aacute" unicode="&#xe1;" horiz-adv-x="527" 
d="M218 -13c-72 0 -160 39 -160 139c0 134 144 156 283 156h47v21c0 88 -48 130 -132 130c-54 0 -105 -22 -139 -55l-30 36c39 38 103 64 174 64c103 0 179 -55 179 -169v-204c0 -36 3 -79 8 -105h-49c-4 24 -8 61 -8 86h-2c-38 -68 -96 -99 -171 -99zM231 32
c108 0 157 84 157 169v38h-35c-108 0 -239 -13 -239 -110c0 -73 62 -97 117 -97zM393 708l-126 -144h-47l101 144h72z" />
    <glyph glyph-name="acircumflex" unicode="&#xe2;" horiz-adv-x="527" 
d="M218 -13c-72 0 -160 39 -160 139c0 134 144 156 283 156h47v21c0 88 -48 130 -132 130c-54 0 -105 -22 -139 -55l-30 36c39 38 103 64 174 64c103 0 179 -55 179 -169v-204c0 -36 3 -79 8 -105h-49c-4 24 -8 61 -8 86h-2c-38 -68 -96 -99 -171 -99zM231 32
c108 0 157 84 157 169v38h-35c-108 0 -239 -13 -239 -110c0 -73 62 -97 117 -97zM294 708l107 -144h-53l-86 115l-86 -115h-53l107 144h64z" />
    <glyph glyph-name="atilde" unicode="&#xe3;" horiz-adv-x="527" 
d="M218 -13c-72 0 -160 39 -160 139c0 134 144 156 283 156h47v21c0 88 -48 130 -132 130c-54 0 -105 -22 -139 -55l-30 36c39 38 103 64 174 64c103 0 179 -55 179 -169v-204c0 -36 3 -79 8 -105h-49c-4 24 -8 61 -8 86h-2c-38 -68 -96 -99 -171 -99zM231 32
c108 0 157 84 157 169v38h-35c-108 0 -239 -13 -239 -110c0 -73 62 -97 117 -97zM147 581h-35c8 51 32 94 82 94c42 0 102 -47 135 -47c28 0 40 22 46 49h35c-8 -50 -31 -93 -81 -93c-43 0 -101 47 -135 47c-28 0 -41 -23 -47 -50z" />
    <glyph glyph-name="adieresis" unicode="&#xe4;" horiz-adv-x="527" 
d="M218 -13c-72 0 -160 39 -160 139c0 134 144 156 283 156h47v21c0 88 -48 130 -132 130c-54 0 -105 -22 -139 -55l-30 36c39 38 103 64 174 64c103 0 179 -55 179 -169v-204c0 -36 3 -79 8 -105h-49c-4 24 -8 61 -8 86h-2c-38 -68 -96 -99 -171 -99zM231 32
c108 0 157 84 157 169v38h-35c-108 0 -239 -13 -239 -110c0 -73 62 -97 117 -97zM129 651c0 22 18 43 43 43c24 0 42 -21 42 -43c0 -23 -18 -44 -42 -44c-25 0 -43 21 -43 44zM310 651c0 22 18 43 42 43c25 0 43 -21 43 -43c0 -23 -18 -44 -43 -44c-24 0 -42 21 -42 44z" />
    <glyph glyph-name="amacron" unicode="&#x101;" horiz-adv-x="527" 
d="M218 -13c-72 0 -160 39 -160 139c0 134 144 156 283 156h47v21c0 88 -48 130 -132 130c-54 0 -105 -22 -139 -55l-30 36c39 38 103 64 174 64c103 0 179 -55 179 -169v-204c0 -36 3 -79 8 -105h-49c-4 24 -8 61 -8 86h-2c-38 -68 -96 -99 -171 -99zM231 32
c108 0 157 84 157 169v38h-35c-108 0 -239 -13 -239 -110c0 -73 62 -97 117 -97zM396 650v-44h-258v44h258z" />
    <glyph glyph-name="abreve" unicode="&#x103;" horiz-adv-x="527" 
d="M218 -13c-72 0 -160 39 -160 139c0 134 144 156 283 156h47v21c0 88 -48 130 -132 130c-54 0 -105 -22 -139 -55l-30 36c39 38 103 64 174 64c103 0 179 -55 179 -169v-204c0 -36 3 -79 8 -105h-49c-4 24 -8 61 -8 86h-2c-38 -68 -96 -99 -171 -99zM231 32
c108 0 157 84 157 169v38h-35c-108 0 -239 -13 -239 -110c0 -73 62 -97 117 -97zM374 705h36c-7 -82 -63 -130 -141 -130c-77 0 -133 48 -140 130h37c10 -57 53 -86 103 -86c53 0 94 27 105 86z" />
    <glyph glyph-name="aring" unicode="&#xe5;" horiz-adv-x="527" 
d="M218 -13c-72 0 -160 39 -160 139c0 134 144 156 283 156h47v21c0 88 -48 130 -132 130c-54 0 -105 -22 -139 -55l-30 36c39 38 103 64 174 64c103 0 179 -55 179 -169v-204c0 -36 3 -79 8 -105h-49c-4 24 -8 61 -8 86h-2c-38 -68 -96 -99 -171 -99zM231 32
c108 0 157 84 157 169v38h-35c-108 0 -239 -13 -239 -110c0 -73 62 -97 117 -97zM357 650c0 -54 -44 -95 -96 -95s-96 41 -96 95s44 95 96 95s96 -41 96 -95zM326 650c0 36 -29 65 -65 65s-65 -29 -65 -65s29 -65 65 -65s65 29 65 65z" />
    <glyph glyph-name="aogonek" unicode="&#x105;" horiz-adv-x="527" 
d="M218 -13c-72 0 -160 39 -160 139c0 130 140 156 278 156h52v21c0 88 -48 130 -132 130c-54 0 -105 -22 -139 -55l-30 36c39 38 103 64 174 64c103 0 179 -55 179 -169v-204c0 -36 3 -79 8 -105h-8c-52 -53 -81 -86 -81 -127c0 -32 23 -53 54 -53c21 0 43 9 56 24l17 -32
c-23 -22 -55 -35 -88 -35c-47 0 -88 33 -88 84c0 54 47 102 90 139h-1c-4 24 -8 61 -8 86h-2c-38 -68 -96 -99 -171 -99zM231 32c108 0 157 84 157 169v38h-35c-108 0 -239 -13 -239 -110c0 -73 62 -97 117 -97z" />
    <glyph glyph-name="ae" unicode="&#xe6;" horiz-adv-x="873" 
d="M225 -13c-80 0 -166 37 -166 134c0 122 141 142 275 145h54v24c0 86 -44 143 -130 143c-55 0 -107 -22 -144 -55l-31 35c41 38 110 65 182 65c85 0 141 -43 160 -109c35 65 103 109 180 109c139 0 210 -106 210 -228c0 -9 0 -22 -1 -28h-375c1 -98 67 -188 172 -188
c67 0 120 36 149 81l39 -31c-50 -66 -114 -96 -188 -96c-91 0 -161 47 -191 123c-28 -85 -101 -124 -195 -124zM233 32c110 0 155 68 155 153v37h-36c-120 0 -237 -11 -237 -100c0 -70 59 -90 118 -90zM441 266h319c-1 97 -60 167 -155 167c-97 0 -162 -92 -164 -167z" />
    <glyph glyph-name="cacute" unicode="&#x107;" horiz-adv-x="494" 
d="M466 405l-36 -33c-28 36 -79 59 -129 59c-113 0 -186 -87 -186 -198s73 -197 184 -197c57 0 102 21 136 56l34 -31c-40 -46 -97 -74 -170 -74c-146 0 -240 104 -240 246c0 141 98 245 241 245c66 0 127 -24 166 -73zM428 708l-126 -144h-47l101 144h72z" />
    <glyph glyph-name="ccircumflex" unicode="&#x109;" horiz-adv-x="494" 
d="M466 405l-36 -33c-28 36 -79 59 -129 59c-113 0 -186 -87 -186 -198s73 -197 184 -197c57 0 102 21 136 56l34 -31c-40 -46 -97 -74 -170 -74c-146 0 -240 104 -240 246c0 141 98 245 241 245c66 0 127 -24 166 -73zM332 708l107 -144h-53l-86 115l-86 -115h-53l107 144
h64z" />
    <glyph glyph-name="ccaron" unicode="&#x10d;" horiz-adv-x="494" 
d="M466 405l-36 -33c-28 36 -79 59 -129 59c-113 0 -186 -87 -186 -198s73 -197 184 -197c57 0 102 21 136 56l34 -31c-40 -46 -97 -74 -170 -74c-146 0 -240 104 -240 246c0 141 98 245 241 245c66 0 127 -24 166 -73zM439 708l-107 -144h-64l-107 144h53l86 -115l86 115
h53z" />
    <glyph glyph-name="cdotaccent" unicode="&#x10b;" horiz-adv-x="494" 
d="M466 405l-36 -33c-28 36 -79 59 -129 59c-113 0 -186 -87 -186 -198s73 -197 184 -197c57 0 102 21 136 56l34 -31c-40 -46 -97 -74 -170 -74c-146 0 -240 104 -240 246c0 141 98 245 241 245c66 0 127 -24 166 -73zM336 651c0 -24 -21 -41 -41 -41s-41 17 -41 41
s21 41 41 41s41 -17 41 -41z" />
    <glyph glyph-name="ccedilla" unicode="&#xe7;" horiz-adv-x="494" 
d="M466 405l-36 -33c-28 36 -79 61 -129 61c-113 0 -186 -89 -186 -200s73 -199 184 -199c57 0 102 23 136 58l34 -31c-38 -44 -91 -71 -159 -74l-41 -65c12 4 24 5 40 5c40 0 84 -22 84 -71c0 -66 -66 -85 -116 -85c-27 0 -65 7 -93 20l13 31c23 -11 51 -16 76 -16
c26 0 72 11 72 49c0 31 -27 43 -60 43c-15 0 -37 -4 -51 -10l-15 13l56 87c-133 11 -217 111 -217 245c0 141 99 245 242 245c66 0 127 -24 166 -73z" />
    <glyph glyph-name="dcaron" unicode="&#x10f;" horiz-adv-x="668" 
d="M482 92c-40 -68 -113 -105 -186 -105c-142 0 -238 107 -238 246c0 138 96 245 238 245c73 0 146 -37 186 -107h2v385h55v-756h-55v92h-2zM115 233c0 -110 69 -199 186 -199c110 0 189 87 189 199s-79 200 -189 200c-117 0 -186 -91 -186 -200zM712 708l-70 -185h-45
l58 185h57z" />
    <glyph glyph-name="dcroat" unicode="&#x111;" horiz-adv-x="634" 
d="M311 610h173v146h55v-146h60v-40h-60v-570h-55v92h-2c-40 -68 -113 -105 -186 -105c-142 0 -238 107 -238 246c0 138 96 245 238 245c73 0 146 -37 186 -107h2v199h-173v40zM115 233c0 -110 69 -199 186 -199c110 0 189 87 189 199s-79 200 -189 200
c-117 0 -186 -91 -186 -200z" />
    <glyph glyph-name="eth" unicode="&#xf0;" horiz-adv-x="609" 
d="M109 233c0 -111 73 -198 189 -198c117 0 189 87 189 198s-72 197 -189 197c-116 0 -189 -86 -189 -197zM451 718l-103 -56c94 -89 196 -248 196 -415c0 -128 -75 -260 -246 -260c-144 0 -246 105 -246 246c0 142 102 245 246 245c61 0 111 -20 159 -63l3 2
c-37 82 -100 166 -161 220l-112 -58l-28 29l110 58c-35 33 -71 59 -99 78l46 30c34 -25 69 -53 99 -82l103 54z" />
    <glyph glyph-name="egrave" unicode="&#xe8;" horiz-adv-x="567" 
d="M115 265h340c-4 98 -65 168 -167 168c-105 0 -169 -91 -173 -168zM294 -13c-136 0 -236 105 -236 247c0 141 101 244 231 244c146 0 220 -106 220 -228v-28h-395c2 -99 72 -188 182 -188c70 0 117 28 160 79l36 -29c-52 -67 -120 -97 -198 -97zM286 564l-126 144h72
l101 -144h-47z" />
    <glyph glyph-name="eacute" unicode="&#xe9;" horiz-adv-x="567" 
d="M115 265h340c-4 98 -65 168 -167 168c-105 0 -169 -91 -173 -168zM294 -13c-136 0 -236 105 -236 247c0 141 101 244 231 244c146 0 220 -106 220 -228v-28h-395c2 -99 72 -188 182 -188c70 0 117 28 160 79l36 -29c-52 -67 -120 -97 -198 -97zM426 708l-126 -144h-47
l101 144h72z" />
    <glyph glyph-name="ecircumflex" unicode="&#xea;" horiz-adv-x="567" 
d="M115 265h340c-4 98 -65 168 -167 168c-105 0 -169 -91 -173 -168zM294 -13c-136 0 -236 105 -236 247c0 141 101 244 231 244c146 0 220 -106 220 -228v-28h-395c2 -99 72 -188 182 -188c70 0 117 28 160 79l36 -29c-52 -67 -120 -97 -198 -97zM327 708l107 -144h-53
l-86 115l-86 -115h-53l107 144h64z" />
    <glyph glyph-name="ecaron" unicode="&#x11b;" horiz-adv-x="567" 
d="M115 265h340c-4 98 -65 168 -167 168c-105 0 -169 -91 -173 -168zM294 -13c-136 0 -236 105 -236 247c0 141 101 244 231 244c146 0 220 -106 220 -228v-28h-395c2 -99 72 -188 182 -188c70 0 117 28 160 79l36 -29c-52 -67 -120 -97 -198 -97zM430 708l-107 -144h-64
l-107 144h53l86 -115l86 115h53z" />
    <glyph glyph-name="edieresis" unicode="&#xeb;" horiz-adv-x="567" 
d="M115 265h340c-4 98 -65 168 -167 168c-105 0 -169 -91 -173 -168zM294 -13c-136 0 -236 105 -236 247c0 141 101 244 231 244c146 0 220 -106 220 -228v-28h-395c2 -99 72 -188 182 -188c70 0 117 28 160 79l36 -29c-52 -67 -120 -97 -198 -97zM161 651c0 22 18 43 43 43
c24 0 42 -21 42 -43c0 -23 -18 -44 -42 -44c-25 0 -43 21 -43 44zM342 651c0 22 18 43 42 43c25 0 43 -21 43 -43c0 -23 -18 -44 -43 -44c-24 0 -42 21 -42 44z" />
    <glyph glyph-name="emacron" unicode="&#x113;" horiz-adv-x="567" 
d="M115 265h340c-4 98 -65 168 -167 168c-105 0 -169 -91 -173 -168zM294 -13c-136 0 -236 105 -236 247c0 141 101 244 231 244c146 0 220 -106 220 -228v-28h-395c2 -99 72 -188 182 -188c70 0 117 28 160 79l36 -29c-52 -67 -120 -97 -198 -97zM422 650v-44h-258v44h258z
" />
    <glyph glyph-name="ebreve" unicode="&#x115;" horiz-adv-x="567" 
d="M115 265h340c-4 98 -65 168 -167 168c-105 0 -169 -91 -173 -168zM294 -13c-136 0 -236 105 -236 247c0 141 101 244 231 244c146 0 220 -106 220 -228v-28h-395c2 -99 72 -188 182 -188c70 0 117 28 160 79l36 -29c-52 -67 -120 -97 -198 -97zM397 705h36
c-7 -82 -63 -130 -141 -130c-77 0 -133 48 -140 130h37c10 -57 53 -86 103 -86c53 0 94 27 105 86z" />
    <glyph glyph-name="edotaccent" unicode="&#x117;" horiz-adv-x="567" 
d="M115 265h340c-4 98 -65 168 -167 168c-105 0 -169 -91 -173 -168zM294 -13c-136 0 -236 105 -236 247c0 141 101 244 231 244c146 0 220 -106 220 -228v-28h-395c2 -99 72 -188 182 -188c70 0 117 28 160 79l36 -29c-52 -67 -120 -97 -198 -97zM333 651
c0 -24 -21 -41 -41 -41s-41 17 -41 41s21 41 41 41s41 -17 41 -41z" />
    <glyph glyph-name="eogonek" unicode="&#x119;" horiz-adv-x="567" 
d="M312 -223c-47 0 -88 33 -88 84c0 49 37 92 75 127h-22c-128 9 -219 110 -219 246c0 141 101 244 231 244c146 0 220 -106 220 -228v-28h-395c2 -99 72 -188 182 -188c70 0 125 36 156 82l40 -32c-40 -52 -89 -81 -146 -92c-47 -48 -73 -80 -73 -119c0 -32 24 -53 54 -53
c21 0 43 9 57 24l16 -32c-23 -22 -55 -35 -88 -35zM115 265h340c-4 98 -65 168 -167 168c-105 0 -169 -91 -173 -168z" />
    <glyph glyph-name="gcircumflex" unicode="&#x11d;" horiz-adv-x="630" 
d="M74 -151l35 37c47 -50 115 -81 186 -81c142 0 189 96 189 206v91h-2c-36 -68 -112 -106 -186 -106c-142 0 -238 102 -238 239c0 135 96 243 238 243c74 0 148 -37 186 -107h2v95h55v-455c0 -116 -50 -254 -246 -254c-86 0 -166 35 -219 92zM115 237
c0 -105 69 -195 186 -195c110 0 189 83 189 195c0 105 -79 196 -189 196c-117 0 -186 -91 -186 -196zM339 708l107 -144h-53l-86 115l-86 -115h-53l107 144h64z" />
    <glyph glyph-name="gbreve" unicode="&#x11f;" horiz-adv-x="630" 
d="M74 -151l35 37c47 -50 115 -81 186 -81c142 0 189 96 189 206v91h-2c-36 -68 -112 -106 -186 -106c-142 0 -238 102 -238 239c0 135 96 243 238 243c74 0 148 -37 186 -107h2v95h55v-455c0 -116 -50 -254 -246 -254c-86 0 -166 35 -219 92zM115 237
c0 -105 69 -195 186 -195c110 0 189 83 189 195c0 105 -79 196 -189 196c-117 0 -186 -91 -186 -196zM413 705h36c-7 -82 -63 -130 -141 -130c-77 0 -133 48 -140 130h37c10 -57 53 -86 103 -86c53 0 94 27 105 86z" />
    <glyph glyph-name="gdotaccent" unicode="&#x121;" horiz-adv-x="630" 
d="M74 -151l35 37c47 -50 115 -81 186 -81c142 0 189 96 189 206v91h-2c-36 -68 -112 -106 -186 -106c-142 0 -238 102 -238 239c0 135 96 243 238 243c74 0 148 -37 186 -107h2v95h55v-455c0 -116 -50 -254 -246 -254c-86 0 -166 35 -219 92zM115 237
c0 -105 69 -195 186 -195c110 0 189 83 189 195c0 105 -79 196 -189 196c-117 0 -186 -91 -186 -196zM348 651c0 -24 -21 -41 -41 -41s-41 17 -41 41s21 41 41 41s41 -17 41 -41z" />
    <glyph glyph-name="gcommaaccent" unicode="&#x123;" horiz-adv-x="630" 
d="M74 -151l35 37c47 -50 115 -81 186 -81c142 0 189 96 189 206v91h-2c-36 -68 -112 -106 -186 -106c-142 0 -238 102 -238 239c0 135 96 243 238 243c74 0 148 -37 186 -107h2v95h55v-455c0 -116 -50 -254 -246 -254c-86 0 -166 35 -219 92zM115 237
c0 -105 69 -195 186 -195c110 0 189 83 189 195c0 105 -79 196 -189 196c-117 0 -186 -91 -186 -196zM280 564l71 185h45l-59 -185h-57z" />
    <glyph glyph-name="hcircumflex" unicode="&#x125;" horiz-adv-x="579" 
d="M149 375h2c31 68 95 103 164 103c122 0 175 -84 175 -194v-284h-54v264c0 92 -29 168 -133 168c-80 0 -154 -65 -154 -195v-237h-54v756h54v-381zM318 940l107 -144h-53l-86 115l-86 -115h-53l107 144h64z" />
    <glyph glyph-name="hbar" unicode="&#x127;" horiz-adv-x="579" 
d="M36 610h59v146h54v-146h174v-40h-174v-195h2c26 64 95 103 164 103c122 0 175 -84 175 -194v-284h-54v264c0 92 -29 169 -133 169c-80 0 -154 -66 -154 -196v-237h-54v570h-59v40z" />
    <glyph glyph-name="dotlessi" unicode="&#x131;" horiz-adv-x="243" 
d="M149 466v-466h-55v466h55z" />
    <glyph glyph-name="igrave" unicode="&#xec;" horiz-adv-x="243" 
d="M149 466v-466h-55v466h55zM101 564l-126 144h72l101 -144h-47z" />
    <glyph glyph-name="iacute" unicode="&#xed;" horiz-adv-x="243" 
d="M149 466v-466h-55v466h55zM267 708l-126 -144h-47l101 144h72z" />
    <glyph glyph-name="icircumflex" unicode="&#xee;" horiz-adv-x="243" 
d="M149 466v-466h-55v466h55zM155 708l107 -144h-53l-86 115l-86 -115h-53l107 144h64z" />
    <glyph glyph-name="itilde" unicode="&#x129;" horiz-adv-x="243" 
d="M149 466v-466h-55v466h55zM10 581h-35c8 51 32 94 82 94c42 0 102 -47 135 -47c28 0 40 22 46 49h35c-8 -50 -31 -93 -81 -93c-43 0 -101 47 -135 47c-28 0 -41 -23 -47 -50z" />
    <glyph glyph-name="idieresis" unicode="&#xef;" horiz-adv-x="243" 
d="M149 466v-466h-55v466h55zM-11 651c0 22 18 43 43 43c24 0 42 -21 42 -43c0 -23 -18 -44 -42 -44c-25 0 -43 21 -43 44zM170 651c0 22 18 43 42 43c25 0 43 -21 43 -43c0 -23 -18 -44 -43 -44c-24 0 -42 21 -42 44z" />
    <glyph glyph-name="imacron" unicode="&#x12b;" horiz-adv-x="243" 
d="M149 466v-466h-55v466h55zM251 650v-44h-258v44h258z" />
    <glyph glyph-name="ibreve" unicode="&#x12d;" horiz-adv-x="243" 
d="M149 466v-466h-55v466h55zM226 705h36c-7 -82 -63 -130 -141 -130c-77 0 -133 48 -140 130h37c10 -57 53 -86 103 -86c53 0 94 27 105 86z" />
    <glyph glyph-name="iogonek" unicode="&#x12f;" horiz-adv-x="243" 
d="M104 -223c-47 0 -88 33 -88 84c0 54 46 102 89 138c0 1 -11 1 -11 1v466h55v-466h-3c-53 -53 -82 -86 -82 -127c0 -32 24 -53 55 -53c20 0 42 9 56 24l16 -32c-22 -22 -55 -35 -87 -35zM121 610c-20 0 -40 17 -40 41s20 41 40 41c21 0 41 -17 41 -41s-20 -41 -41 -41z
" />
    <glyph glyph-name="dotlessj" unicode="&#x237;" horiz-adv-x="244" 
d="M-24 -234l8 45c12 -3 26 -5 38 -5c65 0 73 48 73 107v553h54v-560c0 -81 -25 -146 -126 -146c-13 0 -33 1 -47 6z" />
    <glyph glyph-name="jcircumflex" unicode="&#x135;" horiz-adv-x="244" 
d="M-24 -234l8 45c12 -3 26 -5 38 -5c65 0 73 48 73 107v553h54v-560c0 -81 -25 -146 -126 -146c-13 0 -33 1 -47 6zM153 708l107 -144h-53l-86 115l-86 -115h-53l107 144h64z" />
    <glyph glyph-name="kcommaaccent" unicode="&#x137;" horiz-adv-x="491" 
d="M149 756v-502h3l222 212h78l-238 -214l263 -252h-80l-245 245h-3v-245h-54v756h54zM310 -44l-71 -185h-45l59 185h57z" />
    <glyph glyph-name="kgreenlandic" unicode="&#x138;" horiz-adv-x="491" 
d="M149 466v-212h3l222 212h78l-238 -214l263 -252h-80l-245 245h-3v-245h-54v466h54z" />
    <glyph glyph-name="lacute" unicode="&#x13a;" horiz-adv-x="244" 
d="M149 756v-756h-54v756h54zM269 936l-126 -144h-47l101 144h72z" />
    <glyph glyph-name="lcaron" unicode="&#x13e;" horiz-adv-x="278" 
d="M149 756v-756h-54v756h54zM321 708l-70 -185h-45l58 185h57z" />
    <glyph glyph-name="lcommaaccent" unicode="&#x13c;" horiz-adv-x="244" 
d="M149 756v-756h-54v756h54zM167 -44l-71 -185h-45l59 185h57z" />
    <glyph glyph-name="lslash" unicode="&#x142;" horiz-adv-x="244" 
d="M149 756v-314l79 78v-58l-79 -78v-384h-53v340l-76 -76v59l76 76v357h53z" />
    <glyph glyph-name="ldot" unicode="&#x140;" horiz-adv-x="291" 
d="M149 756v-756h-54v756h54zM289 461c0 -24 -21 -41 -41 -41s-41 17 -41 41s21 41 41 41s41 -17 41 -41z" />
    <glyph glyph-name="nacute" unicode="&#x144;" horiz-adv-x="578" 
d="M90 466h52c2 -26 4 -68 4 -93h2c27 64 97 105 167 105c122 0 174 -84 174 -194v-284h-54v264c0 92 -29 168 -132 168c-81 0 -154 -65 -154 -195v-237h-55v359c0 26 -1 76 -4 107zM426 708l-126 -144h-47l101 144h72z" />
    <glyph glyph-name="ncaron" unicode="&#x148;" horiz-adv-x="578" 
d="M90 466h52c2 -26 4 -68 4 -93h2c27 64 97 105 167 105c122 0 174 -84 174 -194v-284h-54v264c0 92 -29 168 -132 168c-81 0 -154 -65 -154 -195v-237h-55v359c0 26 -1 76 -4 107zM432 708l-107 -144h-64l-107 144h53l86 -115l86 115h53z" />
    <glyph glyph-name="ntilde" unicode="&#xf1;" horiz-adv-x="578" 
d="M90 466h52c2 -26 4 -68 4 -93h2c27 64 97 105 167 105c122 0 174 -84 174 -194v-284h-54v264c0 92 -29 168 -132 168c-81 0 -154 -65 -154 -195v-237h-55v359c0 26 -1 76 -4 107zM179 581h-35c8 51 32 94 82 94c42 0 102 -47 135 -47c28 0 40 22 46 49h35
c-8 -50 -31 -93 -81 -93c-43 0 -101 47 -135 47c-28 0 -41 -23 -47 -50z" />
    <glyph glyph-name="ncommaaccent" unicode="&#x146;" horiz-adv-x="578" 
d="M90 466h52c2 -26 4 -68 4 -93h2c27 64 97 105 167 105c122 0 174 -84 174 -194v-284h-54v264c0 92 -29 168 -132 168c-81 0 -154 -65 -154 -195v-237h-55v359c0 26 -1 76 -4 107zM334 -45l-71 -185h-45l59 185h57z" />
    <glyph glyph-name="eng" unicode="&#x14b;" horiz-adv-x="578" 
d="M316 -234l8 45c12 -3 26 -5 38 -5c65 0 73 48 73 107v351c0 92 -29 169 -132 169c-81 0 -154 -66 -154 -196v-237h-55v359c0 26 -1 76 -4 107h52c2 -26 4 -68 4 -93h2c27 64 97 105 167 105c122 0 174 -84 174 -194v-378c0 -81 -25 -146 -126 -146c-13 0 -33 1 -47 6z
" />
    <glyph glyph-name="ograve" unicode="&#xf2;" horiz-adv-x="609" 
d="M550 233c0 -141 -101 -246 -246 -246c-144 0 -245 105 -245 246c0 142 101 245 245 245c145 0 246 -103 246 -245zM494 233c0 111 -73 198 -190 198c-116 0 -189 -87 -189 -198s73 -197 189 -197c117 0 190 86 190 197zM297 564l-126 144h72l101 -144h-47z" />
    <glyph glyph-name="oacute" unicode="&#xf3;" horiz-adv-x="609" 
d="M550 233c0 -141 -101 -246 -246 -246c-144 0 -245 105 -245 246c0 142 101 245 245 245c145 0 246 -103 246 -245zM494 233c0 111 -73 198 -190 198c-116 0 -189 -87 -189 -198s73 -197 189 -197c117 0 190 86 190 197zM438 708l-126 -144h-47l101 144h72z" />
    <glyph glyph-name="ocircumflex" unicode="&#xf4;" horiz-adv-x="609" 
d="M550 233c0 -141 -101 -246 -246 -246c-144 0 -245 105 -245 246c0 142 101 245 245 245c145 0 246 -103 246 -245zM494 233c0 111 -73 198 -190 198c-116 0 -189 -87 -189 -198s73 -197 189 -197c117 0 190 86 190 197zM336 708l107 -144h-53l-86 115l-86 -115h-53
l107 144h64z" />
    <glyph glyph-name="otilde" unicode="&#xf5;" horiz-adv-x="609" 
d="M550 233c0 -141 -101 -246 -246 -246c-144 0 -245 105 -245 246c0 142 101 245 245 245c145 0 246 -103 246 -245zM494 233c0 111 -73 198 -190 198c-116 0 -189 -87 -189 -198s73 -197 189 -197c117 0 190 86 190 197zM191 581h-35c8 51 32 94 82 94
c42 0 102 -47 135 -47c28 0 40 22 46 49h35c-8 -50 -31 -93 -81 -93c-43 0 -101 47 -135 47c-28 0 -41 -23 -47 -50z" />
    <glyph glyph-name="odieresis" unicode="&#xf6;" horiz-adv-x="609" 
d="M550 233c0 -141 -101 -246 -246 -246c-144 0 -245 105 -245 246c0 142 101 245 245 245c145 0 246 -103 246 -245zM494 233c0 111 -73 198 -190 198c-116 0 -189 -87 -189 -198s73 -197 189 -197c117 0 190 86 190 197zM172 651c0 22 18 43 43 43c24 0 42 -21 42 -43
c0 -23 -18 -44 -42 -44c-25 0 -43 21 -43 44zM353 651c0 22 18 43 42 43c25 0 43 -21 43 -43c0 -23 -18 -44 -43 -44c-24 0 -42 21 -42 44z" />
    <glyph glyph-name="omacron" unicode="&#x14d;" horiz-adv-x="609" 
d="M550 233c0 -141 -101 -246 -246 -246c-144 0 -245 105 -245 246c0 142 101 245 245 245c145 0 246 -103 246 -245zM494 233c0 111 -73 198 -190 198c-116 0 -189 -87 -189 -198s73 -197 189 -197c117 0 190 86 190 197zM434 650v-44h-258v44h258z" />
    <glyph glyph-name="obreve" unicode="&#x14f;" horiz-adv-x="609" 
d="M550 233c0 -141 -101 -246 -246 -246c-144 0 -245 105 -245 246c0 142 101 245 245 245c145 0 246 -103 246 -245zM494 233c0 111 -73 198 -190 198c-116 0 -189 -87 -189 -198s73 -197 189 -197c117 0 190 86 190 197zM410 705h36c-7 -82 -63 -130 -141 -130
c-77 0 -133 48 -140 130h37c10 -57 53 -86 103 -86c53 0 94 27 105 86z" />
    <glyph glyph-name="ohungarumlaut" unicode="&#x151;" horiz-adv-x="609" 
d="M550 233c0 -141 -101 -246 -246 -246c-144 0 -245 105 -245 246c0 142 101 245 245 245c145 0 246 -103 246 -245zM494 233c0 111 -73 198 -190 198c-116 0 -189 -87 -189 -198s73 -197 189 -197c117 0 190 86 190 197zM206 564l101 144h72l-126 -144h-47zM360 564
l101 144h72l-126 -144h-47z" />
    <glyph glyph-name="oslash" unicode="&#xf8;" horiz-adv-x="609" 
d="M76 -23l-27 25l66 68c-36 43 -57 99 -57 163c0 142 102 245 245 245c63 0 118 -19 161 -54l64 66l26 -26l-64 -66c37 -41 61 -98 61 -165c0 -141 -103 -246 -248 -246c-64 0 -120 22 -161 57zM151 106l279 284c-29 28 -75 44 -126 44c-118 0 -191 -90 -191 -201
c0 -48 13 -95 38 -127zM303 32c118 0 193 89 193 201c0 48 -14 96 -42 129l-279 -284c32 -29 76 -46 128 -46z" />
    <glyph glyph-name="oe" unicode="&#x153;" horiz-adv-x="999" 
d="M303 -13c-143 0 -245 105 -245 246c0 142 102 245 245 245c100 0 177 -49 216 -127c37 78 111 127 201 127c147 0 222 -106 222 -228c0 -7 0 -20 -1 -28h-396c2 -99 74 -188 183 -188c70 0 125 36 156 82l40 -32c-52 -67 -118 -97 -197 -97c-95 0 -170 50 -207 129
c-39 -79 -116 -129 -217 -129zM494 233c0 111 -74 200 -191 200c-116 0 -190 -89 -190 -200s74 -199 190 -199c117 0 191 88 191 199zM548 265h339c-4 98 -64 168 -166 168c-106 0 -169 -91 -173 -168z" />
    <glyph glyph-name="racute" unicode="&#x155;" horiz-adv-x="347" 
d="M94 359c0 26 -1 76 -4 107h52c2 -26 4 -68 4 -93h2c26 67 86 105 153 105c14 0 25 0 37 -4l-6 -50c-7 2 -24 4 -38 4c-85 0 -145 -71 -145 -189v-239h-55v359zM292 708l-126 -144h-47l101 144h72z" />
    <glyph glyph-name="rcaron" unicode="&#x159;" horiz-adv-x="347" 
d="M94 359c0 26 -1 76 -4 107h52c2 -26 4 -68 4 -93h2c26 67 86 105 153 105c14 0 25 0 37 -4l-6 -50c-7 2 -24 4 -38 4c-85 0 -145 -71 -145 -189v-239h-55v359zM347 708l-107 -144h-64l-107 144h53l86 -115l86 115h53z" />
    <glyph glyph-name="rcommaaccent" unicode="&#x157;" horiz-adv-x="347" 
d="M94 359c0 26 -1 76 -4 107h52c2 -26 4 -68 4 -93h2c26 67 86 105 153 105c14 0 25 0 37 -4l-6 -50c-7 2 -24 4 -38 4c-85 0 -145 -71 -145 -189v-239h-55v359zM166 -45l-71 -185h-45l59 185h57z" />
    <glyph glyph-name="sacute" unicode="&#x15b;" horiz-adv-x="435" 
d="M379 399l-42 -30c-23 39 -65 64 -117 64c-49 0 -105 -23 -105 -81c0 -54 40 -72 117 -89c99 -22 156 -58 156 -134c0 -99 -84 -141 -169 -141c-70 0 -137 28 -177 87l43 31c27 -42 77 -72 134 -72c58 0 115 26 115 91c0 127 -271 50 -271 223c0 90 78 130 159 130
c68 0 127 -28 157 -79zM359 708l-126 -144h-47l101 144h72z" />
    <glyph glyph-name="scircumflex" unicode="&#x15d;" horiz-adv-x="435" 
d="M379 399l-42 -30c-23 39 -65 64 -117 64c-49 0 -105 -23 -105 -81c0 -54 40 -72 117 -89c99 -22 156 -58 156 -134c0 -99 -84 -141 -169 -141c-70 0 -137 28 -177 87l43 31c27 -42 77 -72 134 -72c58 0 115 26 115 91c0 127 -271 50 -271 223c0 90 78 130 159 130
c68 0 127 -28 157 -79zM257 708l107 -144h-53l-86 115l-86 -115h-53l107 144h64z" />
    <glyph glyph-name="scaron" unicode="&#x161;" horiz-adv-x="435" 
d="M379 399l-42 -30c-23 39 -65 64 -117 64c-49 0 -105 -23 -105 -81c0 -54 40 -72 117 -89c99 -22 156 -58 156 -134c0 -99 -84 -141 -169 -141c-70 0 -137 28 -177 87l43 31c27 -42 77 -72 134 -72c58 0 115 26 115 91c0 127 -271 50 -271 223c0 90 78 130 159 130
c68 0 127 -28 157 -79zM364 708l-107 -144h-64l-107 144h53l86 -115l86 115h53z" />
    <glyph glyph-name="scedilla" unicode="&#x15f;" horiz-adv-x="435" 
d="M379 399l-42 -30c-23 39 -65 64 -117 64c-49 0 -105 -23 -105 -81c0 -54 40 -72 117 -89c99 -22 156 -58 156 -134c0 -91 -70 -133 -147 -140l-43 -67c12 4 24 5 40 5c40 0 84 -22 84 -71c0 -66 -66 -85 -116 -85c-27 0 -65 7 -93 20l13 31c23 -11 51 -16 76 -16
c26 0 72 11 72 49c0 31 -27 43 -60 43c-15 0 -37 -4 -51 -10l-15 13l56 88c-64 3 -125 31 -162 86l43 31c27 -42 77 -72 134 -72c58 0 115 26 115 91c0 127 -271 50 -271 223c0 90 78 130 159 130c68 0 127 -28 157 -79z" />
    <glyph glyph-name="scommaaccent" unicode="&#x219;" horiz-adv-x="435" 
d="M379 399l-42 -30c-23 39 -65 64 -117 64c-49 0 -105 -23 -105 -81c0 -54 40 -72 117 -89c99 -22 156 -58 156 -134c0 -99 -84 -141 -169 -141c-70 0 -137 28 -177 87l43 31c27 -42 77 -72 134 -72c58 0 115 26 115 91c0 127 -271 50 -271 223c0 90 78 130 159 130
c68 0 127 -28 157 -79zM261 -46l-71 -185h-45l59 185h57z" />
    <glyph glyph-name="germandbls" unicode="&#xdf;" horiz-adv-x="595" 
d="M146 540v-540h-54v542c0 113 52 226 207 226c102 0 189 -66 189 -176c0 -84 -45 -137 -122 -161v-2c100 -12 174 -88 174 -210c0 -139 -92 -230 -235 -230c-15 0 -37 1 -53 4v46c15 -2 34 -4 48 -4c111 0 183 71 183 185c0 124 -82 184 -198 184h-11v48h11
c84 0 148 45 148 136c0 85 -61 132 -136 132c-122 0 -151 -99 -151 -180z" />
    <glyph glyph-name="tcaron" unicode="&#x165;" horiz-adv-x="323" 
d="M294 466v-46h-133v-295c0 -67 30 -86 74 -86c19 0 40 5 57 13l3 -47c-22 -8 -46 -13 -74 -13c-57 0 -114 29 -114 120v308h-98v46h97v133h55v-133h133zM341 731l-70 -185h-45l58 185h57z" />
    <glyph glyph-name="uni0163" unicode="&#x163;" horiz-adv-x="313" 
d="M294 466v-46h-133v-295c0 -67 30 -86 74 -86c19 0 40 5 57 13l3 -47c-22 -8 -46 -13 -74 -13c-57 0 -114 29 -114 120v308h-98v46h97v133h55v-133h133zM239 -45l-70 -185h-45l58 185h57z" />
    <glyph glyph-name="uni021B" unicode="&#x21b;" horiz-adv-x="313" 
d="M294 466v-46h-133v-295c0 -67 30 -86 74 -86c19 0 40 5 57 13l3 -47c-22 -8 -46 -13 -74 -13c-57 0 -114 29 -114 120v308h-98v46h97v133h55v-133h133zM239 -45l-70 -185h-45l58 185h57z" />
    <glyph glyph-name="tbar" unicode="&#x167;" horiz-adv-x="313" 
d="M17 303h90v117h-98v46h97v133h55v-133h133v-46h-133v-117h122v-40h-122v-138c0 -67 30 -86 74 -86c19 0 40 5 57 13l3 -47c-22 -8 -46 -13 -74 -13c-57 0 -114 29 -114 120v151h-90v40z" />
    <glyph glyph-name="thorn" unicode="&#xfe;" horiz-adv-x="631" 
d="M334 -13c-74 0 -146 36 -184 105h-2v-332h-53v996h53v-385h2c40 70 111 107 184 107c138 0 239 -104 239 -245s-101 -246 -239 -246zM516 233c0 109 -72 197 -186 197c-112 0 -187 -87 -187 -197s75 -198 187 -198c114 0 186 88 186 198z" />
    <glyph glyph-name="ugrave" unicode="&#xf9;" horiz-adv-x="578" 
d="M488 0h-53c-2 25 -4 68 -4 92h-2c-26 -63 -96 -105 -166 -105c-122 0 -175 84 -175 194v285h55v-264c0 -92 28 -169 132 -169c80 0 154 66 154 196v237h54v-359c0 -26 2 -77 5 -107zM280 564l-126 144h72l101 -144h-47z" />
    <glyph glyph-name="uacute" unicode="&#xfa;" horiz-adv-x="578" 
d="M488 0h-53c-2 25 -4 68 -4 92h-2c-26 -63 -96 -105 -166 -105c-122 0 -175 84 -175 194v285h55v-264c0 -92 28 -169 132 -169c80 0 154 66 154 196v237h54v-359c0 -26 2 -77 5 -107zM415 708l-126 -144h-47l101 144h72z" />
    <glyph glyph-name="ucircumflex" unicode="&#xfb;" horiz-adv-x="578" 
d="M488 0h-53c-2 25 -4 68 -4 92h-2c-26 -63 -96 -105 -166 -105c-122 0 -175 84 -175 194v285h55v-264c0 -92 28 -169 132 -169c80 0 154 66 154 196v237h54v-359c0 -26 2 -77 5 -107zM317 708l107 -144h-53l-86 115l-86 -115h-53l107 144h64z" />
    <glyph glyph-name="utilde" unicode="&#x169;" horiz-adv-x="578" 
d="M488 0h-53c-2 25 -4 68 -4 92h-2c-26 -63 -96 -105 -166 -105c-122 0 -175 84 -175 194v285h55v-264c0 -92 28 -169 132 -169c80 0 154 66 154 196v237h54v-359c0 -26 2 -77 5 -107zM175 581h-35c8 51 32 94 82 94c42 0 102 -47 135 -47c28 0 40 22 46 49h35
c-8 -50 -31 -93 -81 -93c-43 0 -101 47 -135 47c-28 0 -41 -23 -47 -50z" />
    <glyph glyph-name="udieresis" unicode="&#xfc;" horiz-adv-x="578" 
d="M488 0h-53c-2 25 -4 68 -4 92h-2c-26 -63 -96 -105 -166 -105c-122 0 -175 84 -175 194v285h55v-264c0 -92 28 -169 132 -169c80 0 154 66 154 196v237h54v-359c0 -26 2 -77 5 -107zM153 651c0 22 18 43 43 43c24 0 42 -21 42 -43c0 -23 -18 -44 -42 -44
c-25 0 -43 21 -43 44zM334 651c0 22 18 43 42 43c25 0 43 -21 43 -43c0 -23 -18 -44 -43 -44c-24 0 -42 21 -42 44z" />
    <glyph glyph-name="umacron" unicode="&#x16b;" horiz-adv-x="578" 
d="M488 0h-53c-2 25 -4 68 -4 92h-2c-26 -63 -96 -105 -166 -105c-122 0 -175 84 -175 194v285h55v-264c0 -92 28 -169 132 -169c80 0 154 66 154 196v237h54v-359c0 -26 2 -77 5 -107zM416 650v-44h-258v44h258z" />
    <glyph glyph-name="ubreve" unicode="&#x16d;" horiz-adv-x="578" 
d="M488 0h-53c-2 25 -4 68 -4 92h-2c-26 -63 -96 -105 -166 -105c-122 0 -175 84 -175 194v285h55v-264c0 -92 28 -169 132 -169c80 0 154 66 154 196v237h54v-359c0 -26 2 -77 5 -107zM393 705h36c-7 -82 -63 -130 -141 -130c-77 0 -133 48 -140 130h37
c10 -57 53 -86 103 -86c53 0 94 27 105 86z" />
    <glyph glyph-name="uring" unicode="&#x16f;" horiz-adv-x="578" 
d="M488 0h-53c-2 25 -4 68 -4 92h-2c-26 -63 -96 -105 -166 -105c-122 0 -175 84 -175 194v285h55v-264c0 -92 28 -169 132 -169c80 0 154 66 154 196v237h54v-359c0 -26 2 -77 5 -107zM383 650c0 -54 -44 -95 -96 -95s-96 41 -96 95s44 95 96 95s96 -41 96 -95zM352 650
c0 36 -29 65 -65 65s-65 -29 -65 -65s29 -65 65 -65s65 29 65 65z" />
    <glyph glyph-name="uhungarumlaut" unicode="&#x171;" horiz-adv-x="578" 
d="M488 0h-53c-2 25 -4 68 -4 92h-2c-26 -63 -96 -105 -166 -105c-122 0 -175 84 -175 194v285h55v-264c0 -92 28 -169 132 -169c80 0 154 66 154 196v237h54v-359c0 -26 2 -77 5 -107zM181 564l101 144h72l-126 -144h-47zM335 564l101 144h72l-126 -144h-47z" />
    <glyph glyph-name="uogonek" unicode="&#x173;" horiz-adv-x="578" 
d="M434 -223c-47 0 -88 33 -88 84c0 54 47 102 90 139h-1c-2 25 -4 68 -4 92h-2c-26 -63 -96 -105 -166 -105c-122 0 -175 84 -175 194v285h55v-264c0 -92 28 -169 132 -169c80 0 154 66 154 196v237h54v-359c0 -26 2 -77 5 -107c-1 0 -12 -1 -13 -1
c-52 -52 -80 -85 -80 -126c0 -32 23 -53 54 -53c21 0 42 9 56 24l17 -32c-23 -22 -56 -35 -88 -35z" />
    <glyph glyph-name="wcircumflex" unicode="&#x175;" horiz-adv-x="732" 
d="M28 466h58l117 -398h2l133 398h55l135 -398h2l116 398h57l-144 -466h-61l-132 396h-2l-131 -396h-61zM396 708l107 -144h-53l-86 115l-86 -115h-53l107 144h64z" />
    <glyph glyph-name="wacute" unicode="&#x1e83;" horiz-adv-x="732" 
d="M28 466h58l117 -398h2l133 398h55l135 -398h2l116 398h57l-144 -466h-61l-132 396h-2l-131 -396h-61zM519 708l-126 -144h-47l101 144h72z" />
    <glyph glyph-name="wdieresis" unicode="&#x1e85;" horiz-adv-x="732" 
d="M28 466h58l117 -398h2l133 398h55l135 -398h2l116 398h57l-144 -466h-61l-132 396h-2l-131 -396h-61zM232 651c0 22 18 43 43 43c24 0 42 -21 42 -43c0 -23 -18 -44 -42 -44c-25 0 -43 21 -43 44zM413 651c0 22 18 43 42 43c25 0 43 -21 43 -43c0 -23 -18 -44 -43 -44
c-24 0 -42 21 -42 44z" />
    <glyph glyph-name="wgrave" unicode="&#x1e81;" horiz-adv-x="732" 
d="M28 466h58l117 -398h2l133 398h55l135 -398h2l116 398h57l-144 -466h-61l-132 396h-2l-131 -396h-61zM339 564l-126 144h72l101 -144h-47z" />
    <glyph glyph-name="yacute" unicode="&#xfd;" horiz-adv-x="470" 
d="M84 -241c-18 0 -38 3 -55 7l7 49c13 -5 29 -8 46 -8c49 0 72 36 91 85l40 105l-195 469h61l162 -411l2 2l150 409h59l-232 -596c-27 -68 -63 -111 -136 -111zM377 708l-126 -144h-47l101 144h72z" />
    <glyph glyph-name="ycircumflex" unicode="&#x177;" horiz-adv-x="470" 
d="M84 -241c-18 0 -38 3 -55 7l7 49c13 -5 29 -8 46 -8c49 0 72 36 91 85l40 105l-195 469h61l162 -411l2 2l150 409h59l-232 -596c-27 -68 -63 -111 -136 -111zM273 708l107 -144h-53l-86 115l-86 -115h-53l107 144h64z" />
    <glyph glyph-name="ydieresis" unicode="&#xff;" horiz-adv-x="470" 
d="M84 -241c-18 0 -38 3 -55 7l7 49c13 -5 29 -8 46 -8c49 0 72 36 91 85l40 105l-195 469h61l162 -411l2 2l150 409h59l-232 -596c-27 -68 -63 -111 -136 -111zM109 651c0 22 18 43 43 43c24 0 42 -21 42 -43c0 -23 -18 -44 -42 -44c-25 0 -43 21 -43 44zM290 651
c0 22 18 43 42 43c25 0 43 -21 43 -43c0 -23 -18 -44 -43 -44c-24 0 -42 21 -42 44z" />
    <glyph glyph-name="ygrave" unicode="&#x1ef3;" horiz-adv-x="470" 
d="M84 -241c-18 0 -38 3 -55 7l7 49c13 -5 29 -8 46 -8c49 0 72 36 91 85l40 105l-195 469h61l162 -411l2 2l150 409h59l-232 -596c-27 -68 -63 -111 -136 -111zM227 564l-126 144h72l101 -144h-47z" />
    <glyph glyph-name="zacute" unicode="&#x17a;" horiz-adv-x="441" 
d="M393 466v-41l-286 -378h297v-47h-368v40l287 380h-272v46h342zM359 708l-126 -144h-47l101 144h72z" />
    <glyph glyph-name="zcaron" unicode="&#x17e;" horiz-adv-x="441" 
d="M393 466v-41l-286 -378h297v-47h-368v40l287 380h-272v46h342zM363 708l-107 -144h-64l-107 144h53l86 -115l86 115h53z" />
    <glyph glyph-name="zdotaccent" unicode="&#x17c;" horiz-adv-x="441" 
d="M393 466v-41l-286 -378h297v-47h-368v40l287 380h-272v46h342zM264 651c0 -24 -21 -41 -41 -41s-41 17 -41 41s21 41 41 41s41 -17 41 -41z" />
    <glyph glyph-name="IJ" unicode="&#x132;" horiz-adv-x="726" 
d="M155 708v-708h-57v708h57zM264 116l52 15c16 -56 61 -99 126 -99c103 0 135 80 135 173v503h57v-507c0 -104 -43 -219 -187 -219c-96 0 -164 57 -183 134z" />
    <glyph glyph-name="ij" unicode="&#x133;" horiz-adv-x="485" 
d="M218 -234l8 45c12 -3 26 -5 37 -5c66 0 74 48 74 107v553h54v-560c0 -81 -25 -146 -127 -146c-12 0 -32 1 -46 6zM94 0v466h55v-466h-55zM121 610c-20 0 -40 17 -40 41s20 41 40 41c21 0 41 -17 41 -41s-20 -41 -41 -41zM364 610c-21 0 -41 17 -41 41s20 41 41 41
c20 0 40 -17 40 -41s-20 -41 -40 -41z" />
    <glyph glyph-name="f_i" unicode="&#xf001;" horiz-adv-x="529" 
d="M282 466v-46h-114v-420h-55v420h-97v46h97v139c0 108 56 163 147 163c18 0 38 -2 53 -7l-9 -47c-14 4 -28 7 -45 7c-73 0 -91 -56 -91 -122v-133h114zM435 466v-466h-54v466h54zM448 651c0 -24 -20 -41 -40 -41c-21 0 -41 17 -41 41s20 41 41 41c20 0 40 -17 40 -41z" />
    <glyph glyph-name="f_l" unicode="&#xf002;" horiz-adv-x="529" 
d="M282 466v-46h-114v-420h-55v420h-97v46h97v139c0 108 56 163 147 163c18 0 38 -2 53 -7l-9 -47c-14 4 -28 7 -45 7c-73 0 -91 -56 -91 -122v-133h114zM434 756v-756h-54v756h54z" />
    <glyph glyph-name="grave.cap" 
d="M125 764l-126 144h72l101 -144h-47z" />
    <glyph glyph-name="acute" unicode="&#xb4;" 
d="M241 708l-126 -144h-47l101 144h72z" />
    <glyph glyph-name="acute.cap" 
d="M241 908l-126 -144h-47l101 144h72z" />
    <glyph glyph-name="circumflex" unicode="&#x2c6;" 
d="M152 708l107 -144h-53l-86 115l-86 -115h-53l107 144h64z" />
    <glyph glyph-name="circumflex.cap" 
d="M152 908l107 -144h-53l-86 115l-86 -115h-53l107 144h64z" />
    <glyph glyph-name="caron" unicode="&#x2c7;" 
d="M259 708l-107 -144h-64l-107 144h53l86 -115l86 115h53z" />
    <glyph glyph-name="caron.cap" 
d="M259 908l-107 -144h-64l-107 144h53l86 -115l86 115h53z" />
    <glyph glyph-name="caron.alt" 
d="M207 708l-70 -185h-45l58 185h57z" />
    <glyph glyph-name="tilde" unicode="&#x2dc;" 
d="M6 581h-35c8 51 32 94 82 94c42 0 102 -47 135 -47c28 0 40 22 46 49h35c-8 -50 -31 -93 -81 -93c-43 0 -101 47 -135 47c-28 0 -41 -23 -47 -50z" />
    <glyph glyph-name="tilde.cap" 
d="M6 781h-35c8 51 32 94 82 94c42 0 102 -47 135 -47c28 0 40 22 46 49h35c-8 -50 -31 -93 -81 -93c-43 0 -101 47 -135 47c-28 0 -41 -23 -47 -50z" />
    <glyph glyph-name="dieresis" unicode="&#xa8;" 
d="M-13 651c0 22 18 43 43 43c24 0 42 -21 42 -43c0 -23 -18 -44 -42 -44c-25 0 -43 21 -43 44zM168 651c0 22 18 43 42 43c25 0 43 -21 43 -43c0 -23 -18 -44 -43 -44c-24 0 -42 21 -42 44z" />
    <glyph glyph-name="dieresis.cap" 
d="M-13 851c0 22 18 43 43 43c24 0 42 -21 42 -43c0 -23 -18 -44 -42 -44c-25 0 -43 21 -43 44zM168 851c0 22 18 43 42 43c25 0 43 -21 43 -43c0 -23 -18 -44 -43 -44c-24 0 -42 21 -42 44z" />
    <glyph glyph-name="macron" unicode="&#xaf;" 
d="M249 650v-44h-258v44h258z" />
    <glyph glyph-name="macron.cap" 
d="M249 850v-44h-258v44h258z" />
    <glyph glyph-name="uni02C9" unicode="&#x2c9;" 
d="M249 850v-44h-258v44h258z" />
    <glyph glyph-name="breve" unicode="&#x2d8;" 
d="M224 705h36c-7 -82 -63 -130 -141 -130c-77 0 -133 48 -140 130h37c10 -57 53 -86 103 -86c53 0 94 27 105 86z" />
    <glyph glyph-name="breve.cap" 
d="M224 905h36c-7 -82 -63 -130 -141 -130c-77 0 -133 48 -140 130h37c10 -57 53 -86 103 -86c53 0 94 27 105 86z" />
    <glyph glyph-name="ring" unicode="&#x2da;" 
d="M216 650c0 -54 -44 -95 -96 -95s-96 41 -96 95s44 95 96 95s96 -41 96 -95zM185 650c0 36 -29 65 -65 65s-65 -29 -65 -65s29 -65 65 -65s65 29 65 65z" />
    <glyph glyph-name="ring.cap" 
d="M216 850c0 -54 -44 -95 -96 -95s-96 41 -96 95s44 95 96 95s96 -41 96 -95zM185 850c0 36 -29 65 -65 65s-65 -29 -65 -65s29 -65 65 -65s65 29 65 65z" />
    <glyph glyph-name="hungarumlaut" unicode="&#x2dd;" 
d="M-30 564l101 144h72l-126 -144h-47zM124 564l101 144h72l-126 -144h-47z" />
    <glyph glyph-name="hungarumlaut.cap" 
d="M-30 764l101 144h72l-126 -144h-47zM124 764l101 144h72l-126 -144h-47z" />
    <glyph glyph-name="dotaccent" unicode="&#x2d9;" 
d="M161 651c0 -24 -21 -41 -41 -41s-41 17 -41 41s21 41 41 41s41 -17 41 -41z" />
    <glyph glyph-name="dotaccent.cap" 
d="M161 851c0 -24 -21 -41 -41 -41s-41 17 -41 41s21 41 41 41s41 -17 41 -41z" />
    <glyph glyph-name="cedilla" unicode="&#xb8;" 
d="M150 0l-50 -78c12 4 24 5 40 5c40 0 84 -22 84 -71c0 -66 -66 -85 -116 -85c-27 0 -65 7 -93 20l13 31c23 -11 51 -16 76 -16c26 0 72 11 72 49c0 31 -27 43 -60 43c-15 0 -37 -4 -51 -10l-15 13l64 99h36z" />
    <glyph glyph-name="ogonek" unicode="&#x2db;" 
d="M192 -156l17 -32c-23 -22 -55 -35 -88 -35c-47 0 -88 33 -88 84c0 54 47 102 90 139h40c-52 -53 -81 -86 -81 -127c0 -32 24 -53 54 -53c21 0 43 9 56 24z" />
    <glyph glyph-name="commaaccent" 
d="M172 -45l-71 -185h-45l59 185h57z" />
    <glyph glyph-name="commaaccent.alt" 
d="M92 564l71 185h45l-59 -185h-57z" />
    <glyph glyph-name="ellipsis" unicode="&#x2026;" horiz-adv-x="1000" 
d="M211 40c0 -25 -19 -46 -45 -46s-44 21 -44 46c0 23 18 45 44 45s45 -22 45 -45zM545 40c0 -25 -19 -46 -45 -46s-45 21 -45 46c0 23 19 45 45 45s45 -22 45 -45zM878 40c0 -25 -19 -46 -44 -46c-26 0 -45 21 -45 46c0 23 19 45 45 45s44 -22 44 -45z" />
    <glyph glyph-name="uni00AD" unicode="&#xad;" horiz-adv-x="314" 
d="M262 269v-46h-210v46h210z" />
    <glyph glyph-name="exclamdown" unicode="&#xa1;" horiz-adv-x="312" 
d="M185 288v-515h-57v515h57zM201 442c0 -25 -19 -46 -45 -46s-45 21 -45 46c0 24 19 45 45 45s45 -21 45 -45z" />
    <glyph glyph-name="questiondown" unicode="&#xbf;" horiz-adv-x="479" 
d="M216 241v46h56v-58c0 -68 -32 -109 -77 -148l-30 -26c-35 -30 -61 -62 -61 -119c0 -81 60 -127 135 -127c77 0 129 52 140 125l54 -9c-19 -104 -95 -166 -196 -166c-105 0 -190 62 -190 174c0 86 41 122 91 164c60 50 78 74 78 144zM194 442c0 24 18 45 44 45
s45 -21 45 -45c0 -25 -19 -46 -45 -46c-25 0 -44 21 -44 46z" />
    <glyph glyph-name="quoteleft" unicode="&#x2018;" horiz-adv-x="221" 
d="M50 475l76 233h45l-64 -233h-57z" />
    <glyph glyph-name="quoteright" unicode="&#x2019;" horiz-adv-x="221" 
d="M171 708l-76 -233h-45l64 233h57z" />
    <glyph glyph-name="quotedblleft" unicode="&#x201c;" horiz-adv-x="376" 
d="M50 475l77 233h45l-65 -233h-57zM205 475l76 233h45l-64 -233h-57z" />
    <glyph glyph-name="quotedblright" unicode="&#x201d;" horiz-adv-x="376" 
d="M204 475l65 233h57l-77 -233h-45zM50 475l64 233h57l-76 -233h-45z" />
    <glyph glyph-name="quotesinglbase" unicode="&#x201a;" horiz-adv-x="221" 
d="M171 94l-76 -233h-45l64 233h57z" />
    <glyph glyph-name="quotedblbase" unicode="&#x201e;" horiz-adv-x="376" 
d="M204 -139l65 233h57l-77 -233h-45zM50 -139l64 233h57l-76 -233h-45z" />
    <glyph glyph-name="guilsinglleft" unicode="&#x2039;" horiz-adv-x="315" 
d="M124 239l115 -179l-38 -26l-135 205l134 205l38 -26z" />
    <glyph glyph-name="guilsinglright" unicode="&#x203a;" horiz-adv-x="315" 
d="M191 239l-115 179l38 27l135 -206l-134 -205l-38 26z" />
    <glyph glyph-name="guillemotleft" unicode="&#xab;" horiz-adv-x="482" 
d="M233 418l-114 -179l115 -179l-38 -26l-135 205l135 205zM411 418l-115 -179l115 -179l-38 -26l-135 205l135 205z" />
    <glyph glyph-name="guillemotright" unicode="&#xbb;" horiz-adv-x="482" 
d="M248 60l115 179l-115 179l38 27l135 -206l-135 -205zM71 60l115 179l-115 179l38 27l135 -206l-135 -205z" />
    <glyph glyph-name="endash" unicode="&#x2013;" horiz-adv-x="400" 
d="M370 269v-46h-340v46h340z" />
    <glyph glyph-name="emdash" unicode="&#x2014;" horiz-adv-x="600" 
d="M570 269v-46h-540v46h540z" />
    <glyph glyph-name="bullet" unicode="&#x2022;" horiz-adv-x="500" 
d="M73 354c0 98 79 177 177 177s177 -79 177 -177s-79 -177 -177 -177s-177 79 -177 177z" />
    <glyph glyph-name="periodcentered" unicode="&#xb7;" horiz-adv-x="254" 
d="M172 296c0 -24 -19 -45 -45 -45s-45 21 -45 45s19 46 45 46s45 -22 45 -46z" />
    <glyph glyph-name="uni2219" unicode="&#x2219;" horiz-adv-x="254" 
d="M172 296c0 -24 -19 -45 -45 -45s-45 21 -45 45s19 46 45 46s45 -22 45 -46z" />
    <glyph glyph-name="dagger" unicode="&#x2020;" horiz-adv-x="545" 
d="M299 708v-205h201v-48h-201v-581h-53v581h-201v48h201v205h53z" />
    <glyph glyph-name="daggerdbl" unicode="&#x2021;" horiz-adv-x="545" 
d="M299 708v-196h195v-49h-195v-344h195v-49h-195v-196h-53v196h-195v49h195v344h-195v49h195v196h53z" />
    <glyph glyph-name="section" unicode="&#xa7;" horiz-adv-x="574" 
d="M465 642l-46 -26c-16 33 -55 63 -116 63c-67 0 -120 -36 -120 -102c0 -67 53 -91 108 -114l70 -33c66 -31 116 -69 116 -144c0 -72 -48 -118 -103 -133c52 -28 82 -68 82 -127c0 -108 -87 -159 -184 -159c-83 0 -154 33 -188 101l51 27c26 -56 81 -80 138 -80
s126 27 126 106c0 56 -42 85 -93 107l-100 48c-63 28 -107 61 -107 138c0 71 53 117 112 134c-40 21 -85 52 -85 124c0 103 85 155 179 155c81 0 137 -36 160 -85zM313 394l-55 23c-45 -5 -103 -34 -103 -101c0 -61 47 -84 114 -111l59 -26c45 7 93 39 93 100
c0 65 -49 90 -108 115z" />
    <glyph glyph-name="paragraph" unicode="&#xb6;" horiz-adv-x="600" 
d="M506 708v-834h-53v791h-133v-791h-53v449c-125 0 -211 82 -211 184c0 128 87 201 227 201h223z" />
    <glyph glyph-name="brokenbar" unicode="&#xa6;" horiz-adv-x="222" 
d="M88 675h47v-344h-47v344zM88 170h47v-344h-47v344z" />
    <glyph glyph-name="copyright" unicode="&#xa9;" horiz-adv-x="800" 
d="M532 239l41 -28c-33 -46 -91 -80 -161 -80c-128 0 -223 95 -223 226c0 130 95 225 223 225c61 0 122 -28 155 -73l-42 -32c-22 30 -66 57 -112 57c-103 0 -169 -83 -169 -177c0 -95 64 -178 168 -178c43 0 88 18 120 60zM20 353c0 210 171 377 381 377
c209 0 379 -167 379 -377c0 -209 -170 -375 -379 -375c-210 0 -381 166 -381 375zM69 353c0 -182 149 -329 332 -329c182 0 330 147 330 329c0 183 -148 331 -330 331c-183 0 -332 -148 -332 -331z" />
    <glyph glyph-name="registered" unicode="&#xae;" horiz-adv-x="600" 
d="M72 493c0 126 102 227 228 227s228 -101 228 -227s-102 -225 -228 -225s-228 99 -228 225zM104 493c0 -107 88 -196 196 -196s196 89 196 196c0 108 -88 196 -196 196s-196 -88 -196 -196zM215 367v255h88c49 0 91 -21 91 -74c0 -39 -26 -62 -61 -68l71 -113h-47l-64 108
h-40v-108h-38zM253 506h41c32 0 62 9 62 43c0 32 -29 40 -54 40h-49v-83z" />
    <glyph glyph-name="trademark" unicode="&#x2122;" horiz-adv-x="1000" 
d="M397 708v-44h-133v-368h-49v368h-135v44h317zM917 708v-412h-49v359h-2l-148 -359h-31l-147 359h-2v-359h-49v412h77l138 -334l138 334h75z" />
    <glyph glyph-name="currency" unicode="&#xa4;" horiz-adv-x="842" 
d="M621 470c33 -42 53 -96 53 -161c0 -66 -21 -122 -57 -165c21 -22 72 -72 94 -94c-10 -10 -24 -25 -35 -35c-22 22 -72 73 -95 94c-42 -33 -96 -53 -159 -53c-62 0 -116 19 -160 55l-97 -96l-34 35l96 96c-36 42 -55 97 -55 163c0 63 18 117 51 159c-21 21 -71 70 -92 92
l35 35c21 -22 71 -71 92 -92c43 36 99 58 164 58s120 -21 162 -57c22 21 70 70 91 91l36 -35zM422 507c-118 0 -193 -88 -193 -198s75 -200 193 -200s193 90 193 200s-75 198 -193 198z" />
    <glyph glyph-name="Euro" unicode="&#x20ac;" horiz-adv-x="574" 
d="M510 646c-35 20 -78 30 -130 30c-117 0 -202 -80 -231 -214h311l-15 -45h-303c-3 -20 -5 -45 -5 -68c0 -17 2 -43 4 -59h266l-15 -45h-246c22 -130 116 -213 233 -213c54 0 100 12 140 41l24 -45c-43 -31 -101 -47 -172 -47c-159 0 -261 125 -284 264h-72l16 45h51
c-1 14 -3 40 -3 58c0 22 2 52 4 69h-67l16 45h57c37 170 151 265 294 265c55 0 110 -13 147 -33z" />
    <glyph glyph-name="cent" unicode="&#xa2;" horiz-adv-x="574" 
d="M340 -72h-44v61c-128 13 -208 112 -208 244c0 130 83 229 208 243v64h44v-62c62 -3 118 -27 155 -73l-36 -33c-26 33 -73 56 -119 59v-395c51 3 92 23 124 56l34 -31c-38 -44 -91 -71 -158 -74v-59zM144 233c0 -100 59 -180 152 -195v390c-94 -16 -152 -96 -152 -195z
" />
    <glyph glyph-name="sterling" unicode="&#xa3;" horiz-adv-x="574" 
d="M405 390v-48h-169v-294h261v-48h-422v48h104v294h-96v48h96v106c0 120 55 230 203 230c55 0 105 -18 142 -55l-35 -40c-26 28 -64 46 -109 46c-117 0 -144 -105 -144 -186v-101h169z" />
    <glyph glyph-name="florin" unicode="&#x192;" horiz-adv-x="574" 
d="M429 416v-44h-120l-69 -369c-14 -72 -46 -143 -144 -143c-27 0 -50 3 -72 16l22 44c15 -8 33 -12 51 -12c65 0 80 55 91 112l65 352h-109v44h118l28 152c14 79 48 152 145 152c32 0 63 -9 86 -26l-27 -39c-16 11 -37 17 -56 17c-68 0 -87 -69 -95 -115l-25 -141h111z" />
    <glyph glyph-name="yen" unicode="&#xa5;" horiz-adv-x="574" 
d="M87 223h173v113h-173v43h156l-228 329h70l204 -309l202 309h68l-226 -329h154v-43h-173v-113h173v-44h-173v-179h-54v179h-173v44z" />
    <glyph glyph-name="ordfeminine" unicode="&#xaa;" horiz-adv-x="357" 
d="M251 605v9c0 46 -31 69 -78 69c-35 0 -68 -14 -88 -34l-26 30c27 25 70 41 117 41c79 0 119 -44 119 -108v-123c0 -20 1 -43 4 -58h-42c-3 13 -5 29 -5 48h-2c-22 -37 -60 -55 -104 -55c-46 0 -103 22 -103 86c0 86 106 95 208 95zM251 572h-15c-70 0 -146 -7 -146 -61
c0 -38 34 -50 67 -50c59 0 94 40 94 92v19z" />
    <glyph glyph-name="ordmasculine" unicode="&#xba;" horiz-adv-x="357" 
d="M328 572c0 -86 -63 -148 -149 -148c-87 0 -150 62 -150 148c0 87 63 148 150 148c86 0 149 -61 149 -148zM281 572c0 60 -36 111 -102 111c-67 0 -103 -51 -103 -111c0 -59 36 -111 103 -111c66 0 102 52 102 111z" />
    <glyph glyph-name="fraction" unicode="&#x2044;" horiz-adv-x="100" 
d="M287 716l-447 -746l-42 22l448 746z" />
    <glyph glyph-name="uni2215" unicode="&#x2215;" horiz-adv-x="100" 
d="M287 716l-447 -746l-42 22l448 746z" />
    <glyph glyph-name="onequarter" unicode="&#xbc;" horiz-adv-x="828" 
d="M707 423v-279h63v-43h-63v-101h-44v101h-190v43l178 279h56zM663 359h-3l-137 -215h140v215zM220 708v-421h-50v361l-73 -59l-30 34l111 85h42zM651 716l-447 -746l-42 22l448 746z" />
    <glyph glyph-name="onehalf" unicode="&#xbd;" horiz-adv-x="828" 
d="M768 43v-43h-268v46l164 169c33 34 51 64 52 100c0 44 -33 71 -76 71c-40 0 -71 -26 -82 -72l-48 8c14 66 67 108 130 108c72 0 127 -42 127 -114c0 -57 -31 -90 -76 -137l-131 -136h208zM651 716l-447 -746l-42 22l448 746zM220 708v-421h-50v361l-73 -59l-30 34l137 85
h16z" />
    <glyph glyph-name="threequarters" unicode="&#xbe;" horiz-adv-x="828" 
d="M663 0v101h-190v43l178 279h56v-279h63v-43h-63v-101h-44zM174 282c-62 0 -110 30 -135 88l45 16c16 -40 52 -61 90 -61c49 0 87 30 87 83c0 58 -52 81 -103 81h-24v41h24c54 0 91 27 91 78c0 43 -35 70 -76 70c-31 0 -61 -18 -78 -48l-39 21c28 47 70 69 119 69
c70 0 121 -39 121 -112c0 -47 -27 -81 -67 -96l1 -1c49 -13 79 -51 79 -104c0 -82 -62 -125 -135 -125zM523 144h140v215h-3zM651 716l-447 -746l-42 22l448 746z" />
    <glyph glyph-name="perthousand" unicode="&#x2030;" horiz-adv-x="1000" 
d="M473 -10c-83 0 -150 68 -150 152c0 83 67 152 150 152c84 0 151 -69 151 -152c0 -84 -67 -152 -151 -152zM473 34c60 0 107 47 107 108c0 60 -47 108 -107 108c-58 0 -105 -48 -105 -108c0 -61 47 -108 105 -108zM821 -10c-83 0 -151 68 -151 152c0 83 68 152 151 152
c84 0 151 -69 151 -152c0 -84 -67 -152 -151 -152zM821 34c59 0 107 47 107 108c0 60 -48 108 -107 108s-106 -48 -106 -108c0 -61 47 -108 106 -108zM587 716l-447 -746l-41 22l448 746zM181 416c-83 0 -151 68 -151 152c0 83 68 152 151 152c84 0 151 -69 151 -152
c0 -84 -67 -152 -151 -152zM181 460c59 0 107 47 107 108c0 60 -48 108 -107 108s-106 -48 -106 -108c0 -61 47 -108 106 -108z" />
    <glyph glyph-name="minus" unicode="&#x2212;" horiz-adv-x="666" 
d="M581 328v-48h-496v48h496z" />
    <glyph glyph-name="plusminus" unicode="&#xb1;" horiz-adv-x="666" 
d="M83 346v48h225v168h48v-168h228v-48h-227v-164h-49v164h-225zM84 48v48h498v-48h-498z" />
    <glyph glyph-name="multiply" unicode="&#xd7;" horiz-adv-x="666" 
d="M168 504l165 -165l165 165l34 -34l-165 -166l165 -165l-34 -34l-165 165l-165 -165l-33 34l165 165l-165 166z" />
    <glyph glyph-name="divide" unicode="&#xf7;" horiz-adv-x="666" 
d="M584 327v-48h-501v48h501zM382 466c0 -25 -21 -49 -49 -49s-48 24 -48 49c0 26 20 50 48 50s49 -24 49 -50zM382 140c0 -26 -21 -50 -49 -50s-48 24 -48 50s20 49 48 49s49 -24 49 -49z" />
    <glyph glyph-name="notequal" unicode="&#x2260;" horiz-adv-x="666" 
d="M579 147h-284l-79 -153l-42 22l68 131h-155v47h180l70 137h-250v48h276l76 147l42 -22l-65 -125h163v-48h-188l-71 -137h259v-47z" />
    <glyph glyph-name="approxequal" unicode="&#x2248;" horiz-adv-x="666" 
d="M62 267c8 65 41 130 122 130c89 0 204 -72 279 -72c55 0 77 38 86 81h35c-6 -65 -42 -128 -122 -128c-85 0 -204 71 -276 71c-55 0 -81 -40 -87 -82h-37zM62 91c9 65 40 131 121 131c87 0 203 -72 280 -72c55 0 76 38 85 81h36c-7 -64 -42 -130 -123 -130
c-85 0 -202 72 -275 72c-55 0 -81 -40 -87 -82h-37z" />
    <glyph glyph-name="lessequal" unicode="&#x2264;" horiz-adv-x="666" 
d="M579 96l-492 199v52l492 200v-52l-430 -174l430 -174v-51zM579 4h-492v48h492v-48z" />
    <glyph glyph-name="greaterequal" unicode="&#x2265;" horiz-adv-x="666" 
d="M579 295l-492 -199v51l431 174l-431 174v52l492 -200v-52zM579 4h-492v48h492v-48z" />
    <glyph glyph-name="logicalnot" unicode="&#xac;" horiz-adv-x="666" 
d="M584 405v-274h-49v227h-452v47h501z" />
    <glyph glyph-name="Delta" unicode="&#x2206;" horiz-adv-x="666" 
d="M646 0h-624l279 712h61zM570 49l-239 610l-237 -610h476z" />
    <glyph glyph-name="Omega" unicode="&#x2126;" horiz-adv-x="742" 
d="M678 0h-238v175c122 22 185 121 185 241c0 148 -114 256 -260 256c-144 0 -259 -108 -259 -256c0 -120 63 -221 185 -241v-175h-238v47h195v94c-124 35 -195 149 -195 276c0 176 143 304 313 304s312 -128 312 -303c0 -128 -70 -242 -195 -277v-94h195v-47z" />
    <glyph glyph-name="mu" unicode="&#xb5;" horiz-adv-x="556" 
d="M79 -228v694h52v-264c0 -104 31 -167 133 -167c86 0 154 71 154 194v237h53v-359c0 -33 2 -75 4 -107h-57v89h-2c-29 -58 -97 -102 -164 -102c-55 0 -95 18 -121 46v-261h-52z" />
    <glyph glyph-name="degree" unicode="&#xb0;" horiz-adv-x="400" 
d="M348 571c0 -84 -64 -148 -148 -148s-148 64 -148 148s64 148 148 148s148 -64 148 -148zM308 571c0 60 -48 108 -108 108s-108 -48 -108 -108s48 -108 108 -108s108 48 108 108z" />
    <glyph glyph-name="afii61289" unicode="&#x2113;" horiz-adv-x="500" 
d="M407 38c-37 -35 -78 -52 -122 -52c-66 0 -119 38 -119 124v129l-59 -65h-2l-21 29l82 84v263c0 111 53 171 119 171c58 0 101 -46 101 -124c0 -97 -60 -205 -167 -320v-158c0 -73 43 -91 78 -91c28 0 59 11 88 38h2zM341 593c0 54 -25 89 -56 89c-33 0 -66 -37 -66 -124
v-233c78 92 122 190 122 268z" />
    <glyph glyph-name="estimated" unicode="&#x212e;" horiz-adv-x="605" 
d="M561 259h-404v-181c39 -39 87 -59 145 -59c83 0 143 36 193 120l35 -21c-61 -95 -123 -135 -228 -135c-157 0 -258 122 -258 276c0 155 101 276 258 276c154 0 258 -114 259 -276zM157 295h291v145c-42 40 -91 60 -147 60c-57 0 -105 -21 -144 -60v-145z" />
    <glyph glyph-name="infinity" unicode="&#x221e;" horiz-adv-x="735" 
d="M184 107c-79 0 -133 60 -133 142c0 80 52 143 132 143c73 0 137 -63 188 -114c51 51 110 115 184 115c80 0 135 -60 135 -142s-53 -144 -134 -144c-72 0 -135 60 -185 111c-55 -50 -112 -111 -187 -111zM185 153c51 0 107 46 155 95c-50 49 -105 99 -158 99
c-55 0 -85 -47 -85 -98c0 -54 32 -96 88 -96zM559 153c54 0 85 43 85 95c0 54 -31 100 -88 100c-53 0 -105 -51 -155 -101c52 -50 102 -94 158 -94z" />
    <glyph glyph-name="partialdiff" unicode="&#x2202;" horiz-adv-x="490" 
d="M226 -13c-118 0 -192 104 -192 222c0 123 74 212 188 212c69 0 132 -37 172 -93c0 21 1 41 1 61c0 140 -53 289 -185 289c-46 0 -77 -18 -111 -45l-29 35c41 36 84 54 137 54c182 0 238 -187 238 -358c0 -195 -52 -377 -219 -377zM227 30c122 0 157 154 162 247
c-37 54 -95 99 -162 99c-94 0 -142 -82 -142 -168c0 -82 48 -178 142 -178z" />
    <glyph glyph-name="integral" unicode="&#x222b;" horiz-adv-x="541" 
d="M162 -210c-28 0 -56 12 -56 42c0 16 14 28 29 28c29 0 31 -36 48 -36c35 0 39 118 39 164l1 167c0 33 0 391 1 399c3 83 -3 228 111 228c28 0 62 -12 62 -44c0 -19 -14 -29 -32 -29c-29 0 -31 37 -49 37c-43 0 -40 -138 -40 -185v-507c0 -139 -6 -264 -114 -264z" />
    <glyph glyph-name="radical" unicode="&#x221a;" horiz-adv-x="488" 
d="M492 786l-209 -1000h-56l-165 348l-51 -24l-19 41l94 44l162 -344l194 935h50z" />
    <glyph glyph-name="summation" unicode="&#x2211;" horiz-adv-x="601" 
d="M569 -214h-538v45l332 458l-318 451v46h512v-49h-445l316 -448l-333 -454h474v-49z" />
    <glyph glyph-name="product" unicode="&#x220f;" horiz-adv-x="709" 
d="M632 -214h-53v951h-449v-951h-53v1000h555v-1000z" />
    <glyph glyph-name="lozenge" unicode="&#x25ca;" horiz-adv-x="593" 
d="M490 356l-169 -391h-51l-167 391l167 391h51zM437 356l-141 341l-141 -341l141 -341z" />
    <glyph glyph-name="uniF8FF" unicode="&#xf8ff;" horiz-adv-x="512" 
d="M278 117h-56v67h56v-67zM271 234h-46l-2 17c0 75 13 95 59 140c43 42 50 57 50 83c0 48 -35 85 -76 85s-74 -27 -82 -95l-50 8c9 95 63 137 135 137c71 0 124 -52 124 -131c0 -42 -12 -74 -63 -120s-49 -52 -49 -124zM50 50h412v617h-412v-617zM0 718h512v-718h-512v718z
" />
    <glyph glyph-name="uni03A9" unicode="&#x3a9;" horiz-adv-x="742" 
d="M678 0h-238v175c122 22 185 121 185 241c0 148 -114 256 -260 256c-144 0 -259 -108 -259 -256c0 -120 63 -221 185 -241v-175h-238v47h195v94c-124 35 -195 149 -195 276c0 176 143 304 313 304s312 -128 312 -303c0 -128 -70 -242 -195 -277v-94h195v-47z" />
    <glyph glyph-name="uni03BC" unicode="&#x3bc;" horiz-adv-x="556" 
d="M79 -228v694h52v-264c0 -104 31 -167 133 -167c86 0 154 71 154 194v237h53v-359c0 -33 2 -75 4 -107h-57v89h-2c-29 -58 -97 -102 -164 -102c-55 0 -95 18 -121 46v-261h-52z" />
    <glyph glyph-name="pi" unicode="&#x3c0;" horiz-adv-x="561" 
d="M523 9c-20 -9 -38 -15 -60 -15c-71 0 -72 50 -72 112v312h-234v-418h-51v418h-71v48h483v-48h-76v-320c0 -35 4 -59 42 -59c13 0 27 3 39 8v-38z" />
    <glyph glyph-name="uni0394" unicode="&#x394;" horiz-adv-x="666" 
d="M646 0h-624l279 712h61zM570 49l-239 610l-237 -610h476z" />
    <glyph glyph-name="zero.denominator" horiz-adv-x="364" 
d="M321 211c0 -105 -29 -219 -139 -219c-111 0 -140 114 -140 219c0 104 29 219 140 219c110 0 139 -114 139 -219zM271 211c0 71 -16 176 -89 176c-75 0 -90 -105 -90 -176c0 -72 15 -176 90 -176c73 0 89 104 89 176z" />
    <glyph glyph-name="one.denominator" horiz-adv-x="364" 
d="M172 0v362l-73 -60l-31 34l112 85h41v-421h-49z" />
    <glyph glyph-name="two.denominator" horiz-adv-x="364" 
d="M313 0h-268v46l163 169c33 34 52 63 52 100c0 44 -32 71 -75 71c-40 0 -72 -26 -83 -72l-47 8c13 66 67 108 130 108c72 0 126 -42 126 -114c0 -56 -31 -91 -75 -137l-132 -136h209v-43z" />
    <glyph glyph-name="three.denominator" horiz-adv-x="364" 
d="M174 -8c-62 0 -110 30 -135 88l45 15c16 -40 52 -60 90 -60c48 0 87 28 87 82c0 58 -51 82 -103 82h-24v41h24c54 0 91 27 91 77c0 44 -35 70 -76 70c-31 0 -61 -18 -78 -48l-39 22c28 46 70 69 119 69c69 0 122 -40 122 -112c0 -47 -28 -81 -68 -96v-1
c49 -13 81 -51 81 -104c0 -81 -62 -125 -136 -125z" />
    <glyph glyph-name="four.denominator" horiz-adv-x="364" 
d="M267 0h-44v101h-190v43l177 278h57v-278h62v-43h-62v-101zM223 144v214h-3l-137 -214h140z" />
    <glyph glyph-name="five.denominator" horiz-adv-x="364" 
d="M313 134c0 -88 -60 -142 -140 -142c-63 0 -107 32 -129 79l44 18c18 -33 46 -54 85 -54c51 0 91 35 91 96c0 57 -38 96 -97 96c-30 0 -60 -11 -91 -28l4 223h216v-44h-169l-3 -119c14 6 35 9 54 9c82 0 135 -56 135 -134z" />
    <glyph glyph-name="six.denominator" horiz-adv-x="364" 
d="M320 127c0 -79 -59 -135 -138 -135s-137 56 -137 135c0 39 16 76 38 112l112 183h57l-110 -173l1 -1c14 8 29 12 46 12c74 0 131 -55 131 -133zM271 127c0 52 -35 91 -87 91c-53 0 -91 -40 -91 -91c0 -53 37 -92 90 -92c51 0 88 39 88 92z" />
    <glyph glyph-name="seven.denominator" horiz-adv-x="364" 
d="M143 0h-54l169 378h-196v44h249v-39z" />
    <glyph glyph-name="eight.denominator" horiz-adv-x="364" 
d="M317 116c0 -75 -62 -124 -135 -124s-136 49 -136 124c0 49 27 89 71 108v1c-38 20 -55 56 -55 93c0 67 54 112 120 112s120 -45 120 -112c0 -38 -20 -74 -56 -93v-1c44 -18 71 -60 71 -108zM182 387c-41 0 -72 -29 -72 -71c0 -40 31 -71 72 -71s72 31 72 71
c0 42 -31 71 -72 71zM182 202c-51 0 -88 -36 -88 -84c0 -47 36 -83 88 -83s87 36 87 83c0 48 -36 84 -87 84z" />
    <glyph glyph-name="nine.denominator" horiz-adv-x="364" 
d="M319 296c-1 -39 -15 -77 -38 -114l-112 -182h-57l111 174l-1 1c-13 -8 -30 -12 -47 -12c-74 0 -131 56 -131 133s59 134 138 134s137 -56 137 -134zM271 296c0 51 -38 91 -89 91c-52 0 -89 -40 -89 -91c0 -52 35 -91 88 -91c52 0 90 40 90 91z" />
    <glyph glyph-name="zero.inferior" unicode="&#x2080;" horiz-adv-x="364" 
d="M321 73c0 -105 -29 -219 -139 -219c-111 0 -140 114 -140 219c0 104 29 219 140 219c110 0 139 -114 139 -219zM271 73c0 71 -16 176 -89 176c-75 0 -90 -105 -90 -176c0 -72 15 -176 90 -176c73 0 89 104 89 176z" />
    <glyph glyph-name="one.inferior" unicode="&#x2081;" horiz-adv-x="364" 
d="M172 -138v362l-73 -59l-31 33l112 86h41v-422h-49z" />
    <glyph glyph-name="two.inferior" unicode="&#x2082;" horiz-adv-x="364" 
d="M313 -138h-268v46l163 169c34 35 51 65 52 100c0 45 -32 71 -75 71c-40 0 -72 -26 -83 -72l-47 9c13 66 67 107 130 107c72 0 126 -42 126 -114c0 -56 -31 -91 -75 -136l-132 -136h209v-44z" />
    <glyph glyph-name="three.inferior" unicode="&#x2083;" horiz-adv-x="364" 
d="M174 -146c-62 0 -110 30 -135 88l45 16c16 -40 52 -61 90 -61c48 0 87 28 87 82c0 58 -51 82 -103 82h-24v41h24c54 0 91 27 91 78c0 43 -35 70 -76 70c-31 0 -61 -18 -78 -48l-39 21c28 47 70 69 119 69c69 0 122 -40 122 -112c0 -46 -28 -81 -68 -96
c49 -14 81 -52 81 -105c0 -81 -62 -125 -136 -125z" />
    <glyph glyph-name="four.inferior" unicode="&#x2084;" horiz-adv-x="364" 
d="M267 -138h-44v101h-190v43l177 278h57v-278h62v-43h-62v-101zM223 6v214h-3l-137 -214h140z" />
    <glyph glyph-name="five.inferior" unicode="&#x2085;" horiz-adv-x="364" 
d="M313 -4c0 -88 -60 -142 -140 -142c-63 0 -107 32 -129 79l44 18c18 -33 46 -54 85 -54c51 0 91 35 91 96c0 57 -38 96 -97 96c-30 0 -60 -11 -91 -28l4 223h216v-44h-169l-3 -119c14 6 35 9 54 9c82 0 135 -56 135 -134z" />
    <glyph glyph-name="six.inferior" unicode="&#x2086;" horiz-adv-x="364" 
d="M320 -11c0 -79 -59 -135 -138 -135s-137 56 -137 135c0 39 16 76 38 112l112 183h57l-110 -173l1 -1c14 8 29 12 46 12c74 0 131 -55 131 -133zM271 -11c0 52 -35 91 -87 91c-53 0 -91 -40 -91 -91c0 -53 37 -92 90 -92c51 0 88 39 88 92z" />
    <glyph glyph-name="seven.inferior" unicode="&#x2087;" horiz-adv-x="364" 
d="M143 -138h-54l169 378h-196v44h249v-39z" />
    <glyph glyph-name="eight.inferior" unicode="&#x2088;" horiz-adv-x="364" 
d="M317 -22c0 -75 -62 -124 -135 -124s-136 49 -136 124c0 49 27 89 71 108v1c-38 20 -55 56 -55 93c0 67 54 112 120 112s120 -45 120 -112c0 -38 -20 -74 -56 -93v-1c44 -18 71 -60 71 -108zM182 249c-41 0 -72 -29 -72 -71c0 -40 31 -71 72 -71s72 31 72 71
c0 42 -31 71 -72 71zM182 64c-51 0 -88 -36 -88 -84c0 -47 36 -83 88 -83s87 36 87 83c0 48 -36 84 -87 84z" />
    <glyph glyph-name="nine.inferior" unicode="&#x2089;" horiz-adv-x="364" 
d="M319 158c-1 -39 -15 -77 -38 -114l-112 -182h-57l111 174l-1 1c-13 -8 -30 -12 -47 -12c-74 0 -131 56 -131 133s59 134 138 134s137 -56 137 -134zM271 158c0 51 -38 91 -89 91c-52 0 -89 -40 -89 -91c0 -52 35 -91 88 -91c52 0 90 40 90 91z" />
    <glyph glyph-name="zero.numerator" horiz-adv-x="364" 
d="M321 497c0 -105 -29 -219 -139 -219c-111 0 -140 114 -140 219c0 104 29 219 140 219c110 0 139 -114 139 -219zM271 497c0 71 -16 176 -89 176c-75 0 -90 -105 -90 -176c0 -72 15 -176 90 -176c73 0 89 104 89 176z" />
    <glyph glyph-name="one.numerator" horiz-adv-x="364" 
d="M172 287v361l-73 -59l-31 34l112 85h41v-421h-49z" />
    <glyph glyph-name="two.numerator" horiz-adv-x="364" 
d="M313 287h-268v46l163 169c33 34 52 63 52 99c0 45 -32 71 -75 71c-40 0 -72 -25 -83 -71l-47 8c13 66 67 107 130 107c72 0 126 -42 126 -113c0 -57 -31 -92 -75 -137l-132 -136h209v-43z" />
    <glyph glyph-name="three.numerator" horiz-adv-x="364" 
d="M174 278c-62 0 -110 30 -135 89l45 15c16 -40 52 -60 90 -60c48 0 87 28 87 82c0 57 -51 81 -103 81h-24v41h24c54 0 91 27 91 78c0 43 -35 70 -76 70c-31 0 -61 -18 -78 -48l-39 22c28 46 70 68 119 68c69 0 122 -39 122 -111c0 -47 -28 -82 -68 -96v-1
c49 -13 81 -51 81 -105c0 -81 -62 -125 -136 -125z" />
    <glyph glyph-name="four.numerator" horiz-adv-x="364" 
d="M267 286h-44v101h-190v43l177 278h57v-278h62v-43h-62v-101zM223 430v214h-3l-137 -214h140z" />
    <glyph glyph-name="five.numerator" horiz-adv-x="364" 
d="M313 420c0 -88 -60 -142 -140 -142c-63 0 -107 32 -129 79l44 18c18 -33 46 -54 85 -54c51 0 91 35 91 96c0 57 -38 96 -97 96c-30 0 -60 -11 -91 -28l4 223h216v-44h-169l-3 -119c14 6 35 9 54 9c82 0 135 -56 135 -134z" />
    <glyph glyph-name="six.numerator" horiz-adv-x="364" 
d="M320 413c0 -79 -59 -135 -138 -135s-137 56 -137 135c0 39 16 76 38 112l112 183h57l-110 -173l1 -1c14 8 29 12 46 12c74 0 131 -55 131 -133zM271 413c0 52 -35 91 -87 91c-53 0 -91 -40 -91 -91c0 -53 37 -92 90 -92c51 0 88 39 88 92z" />
    <glyph glyph-name="seven.numerator" horiz-adv-x="364" 
d="M143 286h-54l169 378h-196v44h249v-39z" />
    <glyph glyph-name="eight.numerator" horiz-adv-x="364" 
d="M317 402c0 -75 -62 -124 -135 -124s-136 49 -136 124c0 49 27 89 71 108v1c-38 20 -55 56 -55 93c0 67 54 112 120 112s120 -45 120 -112c0 -38 -20 -74 -56 -93v-1c44 -18 71 -60 71 -108zM182 673c-41 0 -72 -29 -72 -71c0 -40 31 -71 72 -71s72 31 72 71
c0 42 -31 71 -72 71zM182 488c-51 0 -88 -36 -88 -84c0 -47 36 -83 88 -83s87 36 87 83c0 48 -36 84 -87 84z" />
    <glyph glyph-name="nine.numerator" horiz-adv-x="364" 
d="M319 582c-1 -39 -15 -77 -38 -114l-112 -182h-57l111 174l-1 1c-13 -8 -30 -12 -47 -12c-74 0 -131 56 -131 133s59 134 138 134s137 -56 137 -134zM271 582c0 51 -38 91 -89 91c-52 0 -89 -40 -89 -91c0 -52 35 -91 88 -91c52 0 90 40 90 91z" />
    <glyph glyph-name="zero.superior" unicode="&#x2070;" horiz-adv-x="364" 
d="M321 663c0 -105 -29 -219 -139 -219c-111 0 -140 114 -140 219c0 104 29 219 140 219c110 0 139 -114 139 -219zM271 663c0 71 -16 176 -89 176c-75 0 -90 -105 -90 -176c0 -72 15 -176 90 -176c73 0 89 104 89 176z" />
    <glyph glyph-name="onesuperior" unicode="&#xb9;" horiz-adv-x="364" 
d="M220 873v-421h-50v361l-73 -59l-30 34l111 85h42z" />
    <glyph glyph-name="twosuperior" unicode="&#xb2;" horiz-adv-x="364" 
d="M313 496v-44h-268v46l163 169c34 35 51 66 52 100c0 45 -32 71 -75 71c-40 0 -72 -25 -83 -71l-47 8c13 66 67 107 130 107c72 0 126 -42 126 -113c0 -57 -31 -92 -75 -137l-132 -136h209z" />
    <glyph glyph-name="threesuperior" unicode="&#xb3;" horiz-adv-x="364" 
d="M174 444c-62 0 -110 30 -135 88l45 16c16 -40 52 -61 90 -61c49 0 87 30 87 83c0 58 -52 81 -103 81h-24v41h24c54 0 91 27 91 78c0 43 -35 70 -76 70c-31 0 -61 -18 -78 -48l-39 21c28 47 70 69 119 69c70 0 121 -39 121 -112c0 -45 -25 -79 -64 -94l-3 -2
c49 -14 80 -51 80 -105c0 -82 -62 -125 -135 -125z" />
    <glyph glyph-name="four.superior" unicode="&#x2074;" horiz-adv-x="364" 
d="M267 452h-44v101h-190v43l177 278h57v-278h62v-43h-62v-101zM223 596v214h-3l-137 -214h140z" />
    <glyph glyph-name="five.superior" unicode="&#x2075;" horiz-adv-x="364" 
d="M313 586c0 -88 -60 -142 -140 -142c-63 0 -107 32 -129 79l44 18c18 -33 46 -54 85 -54c51 0 91 35 91 96c0 57 -38 96 -97 96c-30 0 -60 -11 -91 -28l4 223h216v-44h-169l-3 -119c14 6 35 9 54 9c82 0 135 -56 135 -134z" />
    <glyph glyph-name="six.superior" unicode="&#x2076;" horiz-adv-x="364" 
d="M320 579c0 -79 -59 -135 -138 -135s-137 56 -137 135c0 39 16 76 38 112l112 183h57l-110 -173l1 -1c14 8 29 12 46 12c74 0 131 -55 131 -133zM271 579c0 52 -35 91 -87 91c-53 0 -91 -40 -91 -91c0 -53 37 -92 90 -92c51 0 88 39 88 92z" />
    <glyph glyph-name="seven.superior" unicode="&#x2077;" horiz-adv-x="364" 
d="M143 452h-54l169 378h-196v44h249v-39z" />
    <glyph glyph-name="eight.superior" unicode="&#x2078;" horiz-adv-x="364" 
d="M317 568c0 -75 -62 -124 -135 -124s-136 49 -136 124c0 49 27 89 71 108v1c-38 20 -55 56 -55 93c0 67 54 112 120 112s120 -45 120 -112c0 -38 -20 -74 -56 -93v-1c44 -18 71 -60 71 -108zM182 839c-41 0 -72 -29 -72 -71c0 -40 31 -71 72 -71s72 31 72 71
c0 42 -31 71 -72 71zM182 654c-51 0 -88 -36 -88 -84c0 -47 36 -83 88 -83s87 36 87 83c0 48 -36 84 -87 84z" />
    <glyph glyph-name="nine.superior" unicode="&#x2079;" horiz-adv-x="364" 
d="M319 748c-1 -39 -15 -77 -38 -114l-112 -182h-57l111 174l-1 1c-13 -8 -30 -12 -47 -12c-74 0 -131 56 -131 133s59 134 138 134s137 -56 137 -134zM271 748c0 51 -38 91 -89 91c-52 0 -89 -40 -89 -91c0 -52 35 -91 88 -91c52 0 90 40 90 91z" />
    <glyph glyph-name="interrobang" unicode="&#x203d;" horiz-adv-x="479" 
d="M282 47c0 -3 1 -5 1 -8c0 -18 -15 -39 -39 -39c-22 0 -38 18 -38 39c0 19 15 39 40 39c19 0 33 -14 36 -31zM212 194v349h52v-183h1c5 9 30 34 58 64c39 41 58 70 58 121c0 83 -61 128 -137 128c-78 0 -130 -53 -141 -126l-54 10c20 103 96 165 197 165
c105 0 190 -62 190 -174c0 -79 -38 -121 -88 -165c-56 -50 -81 -77 -81 -136v-53h-55z" />
    <glyph glyph-name="afii61248" unicode="&#x2105;" horiz-adv-x="830" 
d="M213 380c-103 0 -171 72 -171 170s68 170 171 170c47 0 92 -17 122 -56l-39 -30c-19 26 -49 42 -83 42c-73 0 -118 -56 -118 -126s45 -126 118 -126c35 0 66 16 88 41l37 -29c-30 -35 -72 -56 -125 -56zM211 -30l-41 22l447 746l41 -22zM788 158
c0 -98 -70 -170 -171 -170c-100 0 -171 72 -171 170s71 170 171 170c101 0 171 -72 171 -170zM735 158c0 70 -45 126 -118 126s-117 -56 -117 -126s44 -126 117 -126s118 56 118 126z" />
    <glyph glyph-name="published" unicode="&#x2117;" horiz-adv-x="800" 
d="M20 353c0 210 171 377 381 377c209 0 379 -167 379 -377c0 -209 -170 -375 -379 -375c-210 0 -381 166 -381 375zM69 353c0 -182 149 -329 332 -329c182 0 330 147 330 329c0 183 -148 331 -330 331c-183 0 -332 -148 -332 -331zM283 128v439h154c94 0 157 -47 157 -137
c0 -84 -61 -138 -156 -138h-102v-164h-53zM336 339h100c67 0 104 34 104 91c0 58 -40 90 -105 90h-99v-181z" />
    <glyph glyph-name="uni0406" unicode="&#x406;" horiz-adv-x="252" 
d="M98 0v708h57v-708h-57z" />
    <glyph glyph-name="uni0456" unicode="&#x456;" horiz-adv-x="243" 
d="M94 0v466h55v-466h-55zM121 610c-20 0 -40 17 -40 41s20 41 40 41c21 0 41 -17 41 -41s-20 -41 -41 -41z" />
    <glyph glyph-name="uni0408" unicode="&#x408;" horiz-adv-x="488" 
d="M210 -18c-97 0 -165 57 -184 134l53 15c15 -56 61 -99 125 -99c103 0 135 80 135 173v503h57v-507c0 -104 -42 -219 -186 -219z" />
    <glyph glyph-name="uni0458" unicode="&#x458;" horiz-adv-x="244" 
d="M23 -240c-13 0 -33 1 -47 6l8 45c12 -3 26 -5 38 -5c65 0 73 48 73 107v553h54v-560c0 -81 -25 -146 -126 -146zM122 610c-20 0 -40 17 -40 41s20 41 40 41c21 0 41 -17 41 -41s-21 -41 -41 -41z" />
    <glyph glyph-name="uni0410" unicode="&#x410;" horiz-adv-x="690" 
d="M12 0l307 708h57l301 -708h-63l-80 191h-379l-80 -191h-63zM176 243h337l-167 405z" />
    <glyph glyph-name="uni0411" unicode="&#x411;" horiz-adv-x="622" 
d="M98 0v708h410v-51h-353v-261h157c138 0 244 -64 244 -200c0 -137 -107 -196 -247 -196h-211zM155 49h149c112 0 194 42 194 146c0 102 -77 151 -190 151h-153v-297z" />
    <glyph glyph-name="uni0412" unicode="&#x412;" horiz-adv-x="629" 
d="M98 0v708h205c108 0 226 -38 226 -177c0 -82 -57 -139 -131 -156v-2c86 -9 165 -69 165 -179c0 -128 -109 -194 -253 -194h-212zM155 49h149c110 0 201 42 201 147c0 104 -81 150 -189 150h-161v-297zM155 394h152c77 0 164 34 164 133c0 97 -83 132 -179 132h-137v-265z
" />
    <glyph glyph-name="uni0413" unicode="&#x413;" horiz-adv-x="503" 
d="M98 0v708h391v-51h-334v-657h-57z" />
    <glyph glyph-name="uni0414" unicode="&#x414;" horiz-adv-x="744" 
d="M17 -178v229h56c83 85 128 227 128 462v195h426v-657h81v-229h-55v178h-582v-178h-54zM145 51h425v606h-313v-144c0 -244 -50 -386 -112 -462z" />
    <glyph glyph-name="uni0415" unicode="&#x415;" horiz-adv-x="591" 
d="M98 0v708h431v-51h-375v-264h351v-50h-351v-292h388v-51h-444z" />
    <glyph glyph-name="uni0416" unicode="&#x416;" horiz-adv-x="942" 
d="M10 0l365 386l-346 322h82l331 -320v320h57v-320l332 320h82l-346 -322l365 -386h-83l-350 378v-378h-57v378l-349 -378h-83z" />
    <glyph glyph-name="uni0417" unicode="&#x417;" horiz-adv-x="575" 
d="M264 -19c-90 0 -170 35 -223 100l39 34c45 -50 108 -84 185 -84c96 0 183 63 183 164c0 107 -96 151 -200 151h-46v50h43c99 0 181 42 181 144c0 81 -73 138 -161 138c-70 0 -115 -26 -160 -71l-35 35c47 50 104 85 193 85c130 0 217 -69 217 -189
c0 -86 -58 -147 -132 -164v-2c87 -15 158 -80 158 -177c0 -133 -109 -214 -242 -214z" />
    <glyph glyph-name="uni0418" unicode="&#x418;" horiz-adv-x="737" 
d="M98 0v708h57v-621h2l416 621h67v-708h-57v625h-3l-416 -625h-66z" />
    <glyph glyph-name="uni0419" unicode="&#x419;" horiz-adv-x="737" 
d="M98 0v708h57v-621h2l416 621h67v-708h-57v625h-3l-416 -625h-66zM368 775c-79 0 -131 51 -140 125l38 7c10 -57 51 -88 102 -88s92 31 102 88l38 -7c-9 -74 -61 -125 -140 -125z" />
    <glyph glyph-name="uni041A" unicode="&#x41a;" horiz-adv-x="609" 
d="M98 0v708h57v-320l343 320h82l-358 -322l377 -386h-83l-361 378v-378h-57z" />
    <glyph glyph-name="uni041B" unicode="&#x41b;" horiz-adv-x="741" 
d="M64 -7c-15 0 -41 2 -60 8l10 51c16 -4 27 -7 42 -7c129 0 172 151 172 507v156h415v-708h-57v658h-302v-131c0 -346 -50 -534 -220 -534z" />
    <glyph glyph-name="uni041C" unicode="&#x41c;" horiz-adv-x="892" 
d="M98 0v708h88l261 -613l259 613h88v-708h-57v635h-2l-273 -635h-32l-273 635h-2v-635h-57z" />
    <glyph glyph-name="uni041D" unicode="&#x41d;" horiz-adv-x="722" 
d="M98 0v708h57v-314h413v314h57v-708h-57v341h-413v-341h-57z" />
    <glyph glyph-name="uni041E" unicode="&#x41e;" horiz-adv-x="857" 
d="M428 -19c-210 0 -367 157 -367 373s157 373 367 373c211 0 368 -157 368 -373s-157 -373 -368 -373zM428 32c189 0 308 148 308 322c0 175 -120 322 -308 322c-187 0 -307 -147 -307 -322c0 -174 119 -322 307 -322z" />
    <glyph glyph-name="uni041F" unicode="&#x41f;" horiz-adv-x="719" 
d="M98 0v708h524v-708h-57v657h-410v-657h-57z" />
    <glyph glyph-name="uni0420" unicode="&#x420;" horiz-adv-x="578" 
d="M98 0v708h197c132 0 233 -55 233 -185c0 -125 -96 -189 -230 -189h-143v-334h-57zM155 383h140c105 0 176 46 176 140c0 96 -75 136 -177 136h-139v-276z" />
    <glyph glyph-name="uni0421" unicode="&#x421;" horiz-adv-x="721" 
d="M645 136l39 -31c-58 -76 -140 -124 -258 -124c-213 0 -365 157 -365 373s155 373 366 373c103 0 193 -37 244 -103l-41 -38c-41 52 -116 90 -202 90c-189 0 -307 -147 -307 -322c0 -174 118 -322 307 -322c83 0 153 25 217 104z" />
    <glyph glyph-name="uni0422" unicode="&#x422;" horiz-adv-x="561" 
d="M252 0v657h-238v51h533v-51h-238v-657h-57z" />
    <glyph glyph-name="uni0423" unicode="&#x423;" horiz-adv-x="619" 
d="M124 -7c-17 0 -41 2 -57 6l10 53c12 -4 30 -7 47 -7c47 0 77 26 106 79l53 98l-276 486h66l242 -428l234 428h63l-333 -604c-38 -68 -79 -111 -155 -111z" />
    <glyph glyph-name="uni0424" unicode="&#x424;" horiz-adv-x="823" 
d="M383 -19v85c-195 3 -329 119 -329 299c0 187 138 293 329 298v64h57v-64c192 -5 329 -111 329 -298c0 -180 -133 -296 -329 -299v-85h-57zM383 116v497c-168 -5 -269 -102 -269 -249c0 -151 103 -240 269 -248zM440 116c166 8 270 97 270 248c0 147 -101 244 -270 249
v-497z" />
    <glyph glyph-name="uni0425" unicode="&#x425;" horiz-adv-x="631" 
d="M23 0l257 372l-234 336h71l200 -296l199 296h67l-232 -337l257 -371h-71l-222 329l-221 -329h-71z" />
    <glyph glyph-name="uni0426" unicode="&#x426;" horiz-adv-x="738" 
d="M648 -178v178h-550v708h57v-657h410v657h57v-657h80v-229h-54z" />
    <glyph glyph-name="uni0427" unicode="&#x427;" horiz-adv-x="631" 
d="M476 0v302c-36 -10 -106 -22 -173 -22c-151 0 -220 65 -220 183v245h57v-240c0 -81 47 -138 161 -138c75 0 142 11 175 23v355h57v-708h-57z" />
    <glyph glyph-name="uni0428" unicode="&#x428;" horiz-adv-x="1059" 
d="M98 0v708h57v-657h346v657h57v-657h346v657h57v-708h-863z" />
    <glyph glyph-name="uni0429" unicode="&#x429;" horiz-adv-x="1078" 
d="M988 -178v178h-890v708h57v-657h346v657h57v-657h346v657h57v-657h81v-229h-54z" />
    <glyph glyph-name="uni042A" unicode="&#x42a;" horiz-adv-x="693" 
d="M201 0v657h-187v51h245v-312h142c138 0 244 -64 244 -200c0 -137 -107 -196 -247 -196h-197zM259 49h134c112 0 194 42 194 146c0 102 -77 151 -190 151h-138v-297z" />
    <glyph glyph-name="uni042B" unicode="&#x42b;" horiz-adv-x="807" 
d="M98 0v708h57v-312h142c138 0 244 -64 244 -200c0 -137 -107 -196 -247 -196h-196zM155 49h134c112 0 194 42 194 146c0 102 -77 151 -190 151h-138v-297zM652 0v708h57v-708h-57z" />
    <glyph glyph-name="uni042C" unicode="&#x42c;" horiz-adv-x="589" 
d="M98 0v708h57v-312h142c138 0 244 -64 244 -200c0 -137 -107 -196 -247 -196h-196zM155 49h134c112 0 194 42 194 146c0 102 -77 151 -190 151h-138v-297z" />
    <glyph glyph-name="uni042D" unicode="&#x42d;" horiz-adv-x="721" 
d="M294 -19c-117 0 -211 54 -262 125l44 30c51 -72 134 -104 217 -104c181 0 307 140 307 311h-371v50h369c-16 157 -131 283 -305 283c-85 0 -162 -41 -200 -91l-46 36c52 66 148 106 247 106c211 0 366 -157 366 -373s-153 -373 -366 -373z" />
    <glyph glyph-name="uni042E" unicode="&#x42e;" horiz-adv-x="1056" 
d="M655 -18c-200 0 -334 156 -340 361h-160v-343h-57v708h57v-315h162c15 187 146 333 338 333c204 0 340 -164 340 -370c0 -211 -136 -374 -340 -374zM655 33c179 0 280 155 280 323c0 163 -102 320 -280 320c-179 0 -280 -157 -280 -320c0 -168 100 -323 280 -323z" />
    <glyph glyph-name="uni042F" unicode="&#x42f;" horiz-adv-x="599" 
d="M46 0l194 317c-105 16 -182 78 -182 195c0 137 107 196 246 196h197v-708h-57v312h-142l-187 -312h-69zM306 362h138v297h-134c-112 0 -195 -42 -195 -146c0 -102 78 -151 191 -151z" />
    <glyph glyph-name="uni0430" unicode="&#x430;" horiz-adv-x="527" 
d="M218 -13c-72 0 -160 39 -160 139c0 137 151 156 295 156h35v21c0 88 -48 130 -132 130c-54 0 -105 -22 -139 -55l-30 36c39 38 103 64 174 64c103 0 179 -55 179 -169v-204c0 -36 3 -79 8 -105h-49c-4 24 -8 61 -8 86h-2c-38 -68 -96 -99 -171 -99zM231 32
c108 0 157 84 157 169v38h-35c-108 0 -239 -13 -239 -110c0 -73 62 -97 117 -97z" />
    <glyph glyph-name="uni0431" unicode="&#x431;" horiz-adv-x="615" 
d="M311 -13c-81 0 -144 29 -184 81c-38 43 -59 103 -59 216c0 225 20 396 207 419l150 18c39 5 73 14 83 46l39 -12c-12 -46 -42 -70 -106 -78l-143 -18c-137 -17 -181 -99 -184 -305h3c43 85 120 123 209 123c140 0 231 -107 231 -245c0 -141 -102 -245 -246 -245zM311 34
c114 0 189 86 189 197c0 112 -72 200 -186 200c-113 0 -190 -89 -190 -200c0 -112 74 -197 187 -197z" />
    <glyph glyph-name="uni0432" unicode="&#x432;" horiz-adv-x="532" 
d="M94 0v466h209c71 0 148 -26 148 -117c0 -54 -37 -91 -85 -102v-1c56 -7 108 -46 108 -118c0 -84 -71 -128 -166 -128h-214zM149 47h151c65 0 118 24 118 85s-49 88 -111 88h-158v-173zM149 265h152c45 0 97 21 97 78s-49 77 -106 77h-143v-155z" />
    <glyph glyph-name="uni0433" unicode="&#x433;" horiz-adv-x="419" 
d="M94 0v466h303v-46h-248v-420h-55z" />
    <glyph glyph-name="uni0434" unicode="&#x434;" horiz-adv-x="599" 
d="M25 -153v200h55c42 53 78 154 78 293v126h329v-419h76v-200h-51v153h-436v-153h-51zM142 47h292v373h-223v-94c0 -129 -31 -216 -69 -279z" />
    <glyph glyph-name="uni0435" unicode="&#x435;" horiz-adv-x="567" 
d="M115 265h340c-4 98 -65 168 -167 168c-105 0 -169 -91 -173 -168zM294 -13c-136 0 -236 105 -236 247c0 141 101 244 231 244c146 0 220 -106 220 -228v-28h-395c2 -99 72 -188 182 -188c70 0 117 28 160 79l36 -29c-52 -67 -120 -97 -198 -97z" />
    <glyph glyph-name="uni0436" unicode="&#x436;" horiz-adv-x="729" 
d="M13 0l257 244l-232 222h78l219 -220h2v220h55v-220h2l219 220h78l-232 -222l257 -244h-80l-242 237h-2v-237h-55v237h-2l-242 -237h-80z" />
    <glyph glyph-name="uni0437" unicode="&#x437;" horiz-adv-x="464" 
d="M225 -13c-83 0 -144 27 -186 86l40 32c31 -43 82 -71 145 -71c64 0 125 28 125 97c0 62 -64 90 -138 90h-39v44h35c72 0 128 31 128 90c0 54 -49 78 -115 78c-49 0 -97 -24 -123 -64l-42 30c31 51 95 79 167 79c98 0 167 -43 167 -123c0 -55 -42 -97 -99 -109v-2
c66 -9 113 -52 113 -115c0 -89 -74 -142 -178 -142z" />
    <glyph glyph-name="uni0438" unicode="&#x438;" horiz-adv-x="596" 
d="M94 0v466h55v-390l293 390h59v-466h-53v393h-2l-293 -393h-59z" />
    <glyph glyph-name="uni0439" unicode="&#x439;" horiz-adv-x="596" 
d="M297 575c-79 0 -131 51 -140 125l38 7c10 -57 51 -88 102 -88s92 31 102 88l38 -7c-9 -74 -61 -125 -140 -125zM94 0v466h55v-390l293 390h59v-466h-53v393h-2l-293 -393h-59z" />
    <glyph glyph-name="uni043A" unicode="&#x43a;" horiz-adv-x="496" 
d="M96 0v466h54v-220h3l227 220h78l-243 -222l268 -244h-80l-250 237h-3v-237h-54z" />
    <glyph glyph-name="uni043B" unicode="&#x43b;" horiz-adv-x="581" 
d="M58 -5c-13 0 -36 3 -46 6l7 47c8 -3 20 -5 31 -5c80 0 114 84 114 261v162h323v-466h-54v420h-216v-133c0 -170 -37 -292 -159 -292z" />
    <glyph glyph-name="uni043C" unicode="&#x43c;" horiz-adv-x="720" 
d="M94 0v466h81l185 -386l186 386h79v-466h-54v403h-2l-195 -403h-29l-196 403v-403h-55z" />
    <glyph glyph-name="uni043D" unicode="&#x43d;" horiz-adv-x="584" 
d="M94 0v466h55v-201h286v201h54v-466h-54v219h-286v-219h-55z" />
    <glyph glyph-name="uni043E" unicode="&#x43e;" horiz-adv-x="609" 
d="M304 -13c-144 0 -246 105 -246 246c0 142 102 245 246 245c145 0 247 -103 247 -245c0 -141 -102 -246 -247 -246zM304 34c117 0 190 88 190 199s-73 200 -190 200c-116 0 -189 -89 -189 -200s73 -199 189 -199z" />
    <glyph glyph-name="uni043F" unicode="&#x43f;" horiz-adv-x="577" 
d="M94 0v466h388v-466h-54v420h-279v-420h-55z" />
    <glyph glyph-name="uni0440" unicode="&#x440;" horiz-adv-x="632" 
d="M148 90v-330h-54v706h54v-93h3c40 72 112 105 185 105c143 0 239 -106 239 -245s-94 -246 -237 -246c-73 0 -149 33 -187 103h-3zM517 233c0 109 -69 200 -186 200c-109 0 -188 -88 -188 -200s79 -199 188 -199c117 0 186 89 186 199z" />
    <glyph glyph-name="uni0441" unicode="&#x441;" horiz-adv-x="494" 
d="M466 405l-36 -33c-28 36 -79 59 -129 59c-113 0 -186 -87 -186 -198s73 -197 184 -197c57 0 102 21 136 56l34 -31c-40 -46 -97 -74 -170 -74c-146 0 -240 104 -240 246c0 141 98 245 241 245c66 0 127 -24 166 -73z" />
    <glyph glyph-name="uni0442" unicode="&#x442;" horiz-adv-x="441" 
d="M193 0v420h-172v46h398v-46h-172v-420h-54z" />
    <glyph glyph-name="uni0443" unicode="&#x443;" horiz-adv-x="470" 
d="M84 -241c-18 0 -38 3 -55 7l7 49c13 -5 29 -8 46 -8c49 0 72 36 91 85l40 105l-195 469h61l162 -410l152 410h59l-232 -596c-27 -68 -63 -111 -136 -111z" />
    <glyph glyph-name="uni0444" unicode="&#x444;" horiz-adv-x="701" 
d="M323 -240v227c-168 2 -270 93 -270 245c0 150 102 243 270 245v284h55v-284c168 -2 270 -95 270 -245c0 -152 -102 -243 -270 -245v-227h-55zM323 34v397c-135 -2 -213 -74 -213 -198c0 -128 77 -199 213 -199zM378 34c136 0 213 71 213 199c0 124 -77 196 -213 198v-397
z" />
    <glyph glyph-name="uni0445" unicode="&#x445;" horiz-adv-x="474" 
d="M20 0l183 242l-169 224h70l133 -186l133 186h66l-167 -222l186 -244h-71l-148 205l-151 -205h-65z" />
    <glyph glyph-name="uni0446" unicode="&#x446;" horiz-adv-x="594" 
d="M507 -153v153h-413v466h55v-419h279v419h54v-419h76v-200h-51z" />
    <glyph glyph-name="uni0447" unicode="&#x447;" horiz-adv-x="525" 
d="M376 0v197c-30 -8 -91 -19 -143 -19c-106 0 -156 49 -156 145v143h55v-137c0 -86 43 -105 112 -105c56 0 112 14 132 19v223h54v-466h-54z" />
    <glyph glyph-name="uni0448" unicode="&#x448;" horiz-adv-x="843" 
d="M94 0v466h55v-419h246v419h54v-419h246v419h54v-466h-655z" />
    <glyph glyph-name="uni0449" unicode="&#x449;" horiz-adv-x="861" 
d="M774 -153v153h-680v466h55v-419h246v419h54v-419h246v419h54v-419h76v-200h-51z" />
    <glyph glyph-name="uni044A" unicode="&#x44a;" horiz-adv-x="566" 
d="M164 0v420h-143v46h198v-183h125c116 0 177 -54 177 -144c0 -88 -59 -139 -177 -139h-180zM219 47h131c82 0 115 35 115 92s-31 98 -115 98h-131v-190z" />
    <glyph glyph-name="uni044B" unicode="&#x44b;" horiz-adv-x="692" 
d="M94 0v466h55v-183h125c116 0 177 -54 177 -144c0 -88 -59 -139 -177 -139h-180zM149 47h131c82 0 115 35 115 92s-31 98 -115 98h-131v-190zM543 0v466h54v-466h-54z" />
    <glyph glyph-name="uni044C" unicode="&#x44c;" horiz-adv-x="496" 
d="M94 0v466h55v-183h125c116 0 177 -54 177 -144c0 -88 -59 -139 -177 -139h-180zM149 47h131c82 0 115 35 115 92s-31 98 -115 98h-131v-190z" />
    <glyph glyph-name="uni044D" unicode="&#x44d;" horiz-adv-x="496" 
d="M193 -13c-73 0 -132 27 -172 73l38 32c29 -33 78 -58 134 -58c113 0 184 81 189 185h-230v46h228c-13 97 -82 166 -186 166c-57 0 -105 -28 -133 -58l-34 34c38 45 99 71 168 71c146 0 243 -101 243 -245c0 -145 -99 -246 -245 -246z" />
    <glyph glyph-name="uni044E" unicode="&#x44e;" horiz-adv-x="793" 
d="M94 0v466h55v-201h113c15 122 106 213 236 213c141 0 237 -107 237 -246c0 -140 -97 -246 -237 -246c-137 0 -231 100 -237 232l-112 1v-219h-55zM498 32c111 0 180 89 180 200s-69 200 -180 200c-112 0 -180 -89 -180 -200s68 -200 180 -200z" />
    <glyph glyph-name="uni044F" unicode="&#x44f;" horiz-adv-x="534" 
d="M63 0l127 192c-72 15 -118 60 -118 135c0 89 68 139 175 139h193v-466h-55v188h-136l-120 -188h-66zM247 234h138v186h-135c-78 0 -123 -33 -123 -93c0 -57 43 -93 120 -93z" />
    <glyph glyph-name="uni0490" unicode="&#x490;" horiz-adv-x="503" 
d="M98 0v708h337v146h54v-197h-334v-657h-57z" />
    <glyph glyph-name="uni0491" unicode="&#x491;" horiz-adv-x="419" 
d="M94 0v466h253v124h50v-170h-248v-420h-55z" />
    <glyph glyph-name="uni0403" unicode="&#x403;" horiz-adv-x="503" 
d="M421 908l-126 -144h-47l101 144h72zM98 0v708h391v-51h-334v-657h-57z" />
    <glyph glyph-name="uni0453" unicode="&#x453;" horiz-adv-x="419" 
d="M365 708l-126 -144h-47l101 144h72zM94 0v466h303v-46h-248v-420h-55z" />
    <glyph glyph-name="uni0405" unicode="&#x405;" horiz-adv-x="566" 
d="M491 643l-41 -37c-38 46 -88 72 -156 72c-77 0 -164 -46 -164 -143c0 -206 372 -100 372 -354c0 -136 -113 -200 -226 -200c-91 0 -164 37 -214 102l40 35c50 -59 105 -87 174 -87c83 0 168 51 168 147c0 208 -371 106 -371 357c0 131 116 192 224 192
c93 0 158 -37 194 -84z" />
    <glyph glyph-name="uni0455" unicode="&#x455;" horiz-adv-x="435" 
d="M379 399l-42 -30c-23 39 -65 64 -117 64c-49 0 -105 -23 -105 -81c0 -54 40 -72 117 -89c99 -22 156 -58 156 -134c0 -99 -84 -141 -169 -141c-70 0 -137 28 -177 87l43 31c27 -42 77 -72 134 -72c58 0 115 26 115 91c0 127 -271 50 -271 223c0 90 78 130 159 130
c68 0 127 -28 157 -79z" />
    <glyph glyph-name="uni040C" unicode="&#x40c;" horiz-adv-x="609" 
d="M454 908l-126 -144h-47l101 144h72zM98 0v708h57v-320l343 320h82l-358 -322l377 -386h-83l-361 378v-378h-57z" />
    <glyph glyph-name="uni045C" unicode="&#x45c;" horiz-adv-x="496" 
d="M400 708l-126 -144h-47l101 144h72zM96 0v466h54v-220h3l227 220h78l-243 -222l268 -244h-80l-250 237h-3v-237h-54z" />
    <glyph glyph-name="uni0407" unicode="&#x407;" horiz-adv-x="252" 
d="M-7 851c0 22 18 43 43 43c24 0 42 -21 42 -43c0 -23 -18 -44 -42 -44c-25 0 -43 21 -43 44zM174 851c0 22 18 43 42 43c25 0 43 -21 43 -43c0 -23 -18 -44 -43 -44c-24 0 -42 21 -42 44zM98 0v708h57v-708h-57z" />
    <glyph glyph-name="uni0457" unicode="&#x457;" horiz-adv-x="243" 
d="M-12 651c0 22 18 43 43 43s43 -21 43 -43c0 -23 -19 -44 -43 -44c-25 0 -43 21 -43 44zM169 651c0 22 18 43 43 43c24 0 42 -21 42 -43c0 -23 -18 -44 -42 -44c-25 0 -43 21 -43 44zM149 466v-466h-55v466h55z" />
    <glyph glyph-name="uni040E" unicode="&#x40e;" horiz-adv-x="619" 
d="M124 -7c-17 0 -41 2 -57 6l10 53c12 -4 30 -7 47 -7c47 0 77 26 106 79l53 98l-276 486h66l242 -428l234 428h63l-333 -604c-38 -68 -79 -111 -155 -111zM314 775c-79 0 -131 51 -140 125l38 7c10 -57 51 -88 102 -88s92 31 102 88l38 -7c-9 -74 -61 -125 -140 -125z" />
    <glyph glyph-name="uni045E" unicode="&#x45e;" horiz-adv-x="470" 
d="M242 575c-79 0 -131 51 -140 125l38 7c10 -57 51 -88 102 -88s92 31 102 88l38 -7c-9 -74 -61 -125 -140 -125zM84 -241c-18 0 -38 3 -55 7l7 49c13 -5 29 -8 46 -8c49 0 72 36 91 85l40 105l-195 469h61l162 -410l152 410h59l-232 -596c-27 -68 -63 -111 -136 -111z" />
    <glyph glyph-name="uni040F" unicode="&#x40f;" horiz-adv-x="719" 
d="M332 -178v178h-234v708h57v-657h410v657h57v-708h-235v-178h-55z" />
    <glyph glyph-name="uni045F" unicode="&#x45f;" horiz-adv-x="577" 
d="M263 -153v153h-169v466h55v-419h279v419h54v-466h-168v-153h-51z" />
    <glyph glyph-name="uni0409" unicode="&#x409;" horiz-adv-x="1078" 
d="M64 -7c-15 0 -41 2 -60 8l10 51c16 -4 27 -7 42 -7c129 0 172 151 172 507v156h415v-312h143c138 0 244 -64 244 -200c0 -137 -107 -196 -247 -196h-197v658h-302v-131c0 -346 -50 -534 -220 -534zM643 49h134c112 0 195 42 195 146c0 102 -77 151 -190 151h-139v-297z
" />
    <glyph glyph-name="uni0459" unicode="&#x459;" horiz-adv-x="834" 
d="M58 -5c-13 0 -36 3 -46 6l7 47c8 -3 20 -5 31 -5c80 0 114 84 114 261v162h323v-183h125c116 0 177 -54 177 -144c0 -88 -59 -139 -176 -139h-180v420h-216v-133c0 -170 -37 -292 -159 -292zM487 47h131c82 0 115 35 115 92s-31 98 -115 98h-131v-190z" />
    <glyph glyph-name="uni040A" unicode="&#x40a;" horiz-adv-x="1059" 
d="M98 0v708h57v-312h413v312h57v-312h142c138 0 244 -64 244 -200c0 -137 -107 -196 -247 -196h-196v346h-413v-346h-57zM625 49h134c112 0 194 42 194 146c0 102 -77 151 -190 151h-138v-297z" />
    <glyph glyph-name="uni045A" unicode="&#x45a;" horiz-adv-x="836" 
d="M94 0v466h55v-193h286v193h54v-193h125c116 0 177 -49 177 -139c0 -88 -59 -134 -176 -134h-180v227h-286v-227h-55zM489 47h131c82 0 115 30 115 87s-31 93 -115 93h-131v-180z" />
    <glyph glyph-name="uni0404" unicode="&#x404;" horiz-adv-x="721" 
d="M427 -19c-213 0 -366 157 -366 373s155 373 366 373c100 0 196 -40 247 -106l-46 -36c-38 50 -114 91 -200 91c-174 0 -288 -126 -305 -283h369v-50h-371v-4c7 -168 124 -307 307 -307c83 0 166 32 217 104l44 -30c-51 -71 -144 -125 -262 -125z" />
    <glyph glyph-name="uni0454" unicode="&#x454;" horiz-adv-x="496" 
d="M303 -13c-146 0 -245 101 -245 246c0 144 97 245 244 245c68 0 132 -26 170 -71l-37 -34c-27 30 -76 61 -133 61c-104 0 -173 -72 -186 -169h243v-46h-245c5 -104 77 -187 189 -187c57 0 105 27 134 60l39 -32c-40 -46 -100 -73 -173 -73z" />
    <glyph glyph-name="uni2116" unicode="&#x2116;" horiz-adv-x="1036" 
d="M98 0v708h77l369 -628v628h57v-708h-77l-369 632v-632h-57zM716 311v46h278v-46h-278zM855 419c-87 0 -149 62 -149 149s62 148 149 148s149 -61 149 -148s-62 -149 -149 -149zM855 457c66 0 102 52 102 111s-36 110 -102 110s-102 -51 -102 -110s36 -111 102 -111z" />
    <glyph glyph-name="uni040B" unicode="&#x40b;" horiz-adv-x="787" 
d="M252 0v657h-238v51h533v-51h-238v-265c36 10 106 22 170 22c155 0 223 -65 223 -183v-231h-57v226c0 81 -46 138 -164 138c-71 0 -138 -11 -172 -23v-341h-57z" />
    <glyph glyph-name="uni0402" unicode="&#x402;" horiz-adv-x="787" 
d="M488 -9c-32 0 -61 4 -80 8l9 50c13 -3 47 -7 66 -7c124 0 199 53 199 159s-72 164 -205 164c-67 0 -136 -13 -168 -25v-340h-57v657h-238v51h533v-51h-238v-265c35 10 111 22 171 22c159 0 259 -71 259 -212s-100 -211 -251 -211z" />
    <glyph glyph-name="uni045B" unicode="&#x45b;" horiz-adv-x="579" 
d="M95 0v573h-86v41h86v142h54v-142h162v-41h-162v-198h2c26 64 95 103 164 103c122 0 175 -84 175 -194v-284h-54v264c0 92 -29 169 -133 169c-80 0 -154 -66 -154 -196v-237h-54z" />
    <glyph glyph-name="uni0452" unicode="&#x452;" horiz-adv-x="579" 
d="M346 -241c-21 0 -40 2 -56 7l9 47c14 -3 28 -6 46 -6c73 0 91 55 91 121v336c0 92 -29 169 -133 169c-80 0 -154 -66 -154 -196v-237h-54v573h-86v41h86v142h54v-142h162v-41h-162v-198h2c26 64 95 103 164 103c122 0 175 -84 175 -194v-361c0 -108 -56 -164 -144 -164z
" />
    <glyph glyph-name="uni0401" unicode="&#x401;" horiz-adv-x="591" 
d="M183 851c0 22 18 43 42 43c25 0 43 -21 43 -43c0 -23 -18 -44 -43 -44c-24 0 -42 21 -42 44zM363 851c0 22 18 43 43 43s43 -21 43 -43c0 -23 -19 -44 -43 -44c-25 0 -43 21 -43 44zM98 0v708h431v-51h-375v-264h351v-50h-351v-292h388v-51h-444z" />
    <glyph glyph-name="uni0451" unicode="&#x451;" horiz-adv-x="567" 
d="M161 651c0 22 18 43 43 43s43 -21 43 -43c0 -23 -19 -44 -43 -44c-25 0 -43 21 -43 44zM342 651c0 22 18 43 43 43c24 0 42 -21 42 -43c0 -23 -18 -44 -42 -44c-25 0 -43 21 -43 44zM115 265h340c-4 98 -65 168 -167 168c-105 0 -169 -91 -173 -168zM294 -13
c-136 0 -236 105 -236 247c0 141 101 244 231 244c146 0 220 -106 220 -228v-28h-395c2 -99 72 -188 182 -188c70 0 117 28 160 79l36 -29c-52 -67 -120 -97 -198 -97z" />
    <glyph glyph-name="uni0400" unicode="&#x400;" horiz-adv-x="591" 
d="M154 343v-292h388v-51h-444v708h431v-51h-375v-264h351v-50h-351zM317 764l-126 144h72l101 -144h-47z" />
    <glyph glyph-name="uni0450" unicode="&#x450;" horiz-adv-x="567" 
d="M115 265h340c-4 98 -65 168 -167 168c-105 0 -169 -91 -173 -168zM294 -13c-136 0 -236 105 -236 247c0 141 101 244 231 244c146 0 220 -106 220 -228v-28h-395c2 -99 72 -188 182 -188c70 0 117 28 160 79l36 -29c-52 -67 -120 -97 -198 -97zM286 564l-126 144h72
l101 -144h-47z" />
    <glyph glyph-name="uni040D" unicode="&#x40d;" horiz-adv-x="737" 
d="M362 764l-126 144h72l101 -144h-47zM98 0v708h57v-621h2l416 621h67v-708h-57v625h-3l-416 -625h-66z" />
    <glyph glyph-name="uni045D" unicode="&#x45d;" horiz-adv-x="596" 
d="M296 564l-125 144h71l101 -144h-47zM94 0v466h55v-390l293 390h59v-466h-53v393h-2l-293 -393h-59z" />
    <glyph glyph-name="uni2010" unicode="&#x2010;" horiz-adv-x="314" 
d="M262 269v-46h-210v46h210z" />
    <glyph glyph-name="cyrbreve" 
d="M120 575c-79 0 -131 51 -140 125l38 7c10 -57 51 -88 102 -88s92 31 102 88l38 -7c-9 -74 -61 -125 -140 -125z" />
    <glyph glyph-name="cyrbreve.cap" 
d="M120 775c-79 0 -131 51 -140 125l38 7c10 -57 51 -88 102 -88s92 31 102 88l38 -7c-9 -74 -61 -125 -140 -125z" />
    <glyph glyph-name="tonos.cap" horiz-adv-x="239" 
d="M191 708l-77 -144h-46l51 144h72z" />
    <glyph glyph-name="afii00208" unicode="&#x2015;" horiz-adv-x="600" 
d="M570 269v-46h-540v46h540z" />
    <glyph glyph-name="uni037E" unicode="&#x37e;" horiz-adv-x="294" 
d="M192 424c0 -24 -19 -45 -45 -45s-45 21 -45 45c0 25 19 46 45 46s45 -21 45 -46zM188 94l-76 -233h-47l64 233h59z" />
    <glyph glyph-name="uni0374" unicode="&#x374;" horiz-adv-x="238" 
d="M191 728l-79 -184h-44l54 184h69z" />
    <glyph glyph-name="uni0375" unicode="&#x375;" horiz-adv-x="238" 
d="M68 -164l79 184h44l-54 -184h-69z" />
    <glyph glyph-name="tonos" unicode="&#x384;" horiz-adv-x="239" 
d="M191 708l-77 -144h-46l51 144h72z" />
    <glyph glyph-name="dieresistonos" unicode="&#x385;" horiz-adv-x="292" 
d="M-13 640c0 23 18 44 43 44c24 0 42 -21 42 -44s-18 -43 -42 -43c-25 0 -43 20 -43 43zM220 640c0 23 18 44 43 44c24 0 42 -21 42 -44s-18 -43 -42 -43c-25 0 -43 20 -43 43zM197 708l-57 -144h-39l29 144h67z" />
    <glyph glyph-name="anoteleia" unicode="&#x387;" horiz-adv-x="254" 
d="M172 296c0 -24 -19 -45 -45 -45s-45 21 -45 45s19 46 45 46s45 -22 45 -46z" />
    <glyph glyph-name="Alphatonos" unicode="&#x386;" horiz-adv-x="690" 
d="M155 191l-80 -191h-63l307 708h57l301 -708h-63l-80 191h-379zM346 648l-170 -405h337zM190 708l-77 -144h-46l51 144h72z" />
    <glyph glyph-name="Epsilontonos" unicode="&#x388;" horiz-adv-x="591" 
d="M154 343v-292h388v-51h-444v708h431v-51h-375v-264h351v-50h-351zM14 708l-77 -144h-46l51 144h72z" />
    <glyph glyph-name="Etatonos" unicode="&#x389;" horiz-adv-x="722" 
d="M14 708l-77 -144h-46l51 144h72zM98 0v708h57v-314h413v314h57v-708h-57v341h-413v-341h-57z" />
    <glyph glyph-name="Iotatonos" unicode="&#x38a;" horiz-adv-x="252" 
d="M14 708l-77 -144h-46l51 144h72zM155 708v-708h-57v708h57z" />
    <glyph glyph-name="Omicrontonos" unicode="&#x38c;" horiz-adv-x="857" 
d="M796 354c0 -216 -157 -373 -368 -373c-210 0 -367 157 -367 373s157 373 367 373c211 0 368 -157 368 -373zM736 354c0 175 -120 322 -308 322c-187 0 -307 -147 -307 -322s118 -322 307 -322s308 147 308 322zM69 708l-77 -144h-46l51 144h72z" />
    <glyph glyph-name="Upsilontonos" unicode="&#x38e;" horiz-adv-x="583" 
d="M320 306v-306h-57v306l-259 402h71l218 -353l219 353h66zM-47 708l-77 -144h-46l51 144h72z" />
    <glyph glyph-name="Omegatonos" unicode="&#x38f;" horiz-adv-x="774" 
d="M388 676c-163 0 -264 -114 -264 -270c0 -137 80 -232 198 -261v-145h-251v48h205v58c-125 39 -212 146 -212 300c0 204 147 321 324 321c181 0 323 -122 323 -322c0 -147 -82 -259 -212 -299v-58h204v-48h-251v145c121 30 198 126 198 261c0 152 -97 270 -262 270z
M62 708l-77 -144h-46l51 144h72z" />
    <glyph glyph-name="iotadieresistonos" unicode="&#x390;" horiz-adv-x="306" 
d="M-17 640c0 23 18 44 43 44c24 0 42 -21 42 -44s-18 -43 -42 -43c-25 0 -43 20 -43 43zM216 640c0 23 18 44 43 44c24 0 42 -21 42 -44s-18 -43 -42 -43c-25 0 -43 20 -43 43zM193 708l-57 -144h-39l29 144h67zM143 466v-341c0 -69 32 -86 74 -86c20 0 42 6 56 13l3 -47
c-18 -7 -43 -13 -74 -13c-55 0 -114 28 -114 119v355h55z" />
    <glyph glyph-name="Alpha" unicode="&#x391;" horiz-adv-x="690" 
d="M155 191l-80 -191h-63l307 708h57l301 -708h-63l-80 191h-379zM346 648l-170 -405h337z" />
    <glyph glyph-name="Beta" unicode="&#x392;" horiz-adv-x="629" 
d="M98 0v708h205c108 0 226 -38 226 -177c0 -82 -57 -139 -131 -156v-2c86 -9 165 -69 165 -179c0 -128 -109 -194 -253 -194h-212zM155 659v-265h152c77 0 164 34 164 133c0 97 -83 132 -179 132h-137zM155 346v-297h149c110 0 201 42 201 147c0 104 -81 150 -189 150h-161
z" />
    <glyph glyph-name="Gamma" unicode="&#x393;" horiz-adv-x="541" 
d="M155 657v-657h-57v708h400v-51h-343z" />
    <glyph glyph-name="Epsilon" unicode="&#x395;" horiz-adv-x="591" 
d="M154 343v-292h388v-51h-444v708h431v-51h-375v-264h351v-50h-351z" />
    <glyph glyph-name="Zeta" unicode="&#x396;" horiz-adv-x="579" 
d="M536 708v-51l-428 -606h436v-51h-506v50l429 607h-418v51h487z" />
    <glyph glyph-name="Eta" unicode="&#x397;" horiz-adv-x="722" 
d="M98 0v708h57v-314h413v314h57v-708h-57v341h-413v-341h-57z" />
    <glyph glyph-name="Theta" unicode="&#x398;" horiz-adv-x="857" 
d="M796 354c0 -216 -157 -373 -368 -373c-210 0 -367 157 -367 373s157 373 367 373c211 0 368 -157 368 -373zM736 354c0 175 -120 322 -308 322c-187 0 -307 -147 -307 -322s118 -322 307 -322s308 147 308 322zM638 334h-416v47h416v-47z" />
    <glyph glyph-name="Iota" unicode="&#x399;" horiz-adv-x="252" 
d="M155 708v-708h-57v708h57z" />
    <glyph glyph-name="Kappa" unicode="&#x39a;" horiz-adv-x="609" 
d="M155 708v-320l343 320h82l-358 -322l377 -386h-83l-361 378v-378h-57v708h57z" />
    <glyph glyph-name="Lambda" unicode="&#x39b;" horiz-adv-x="684" 
d="M594 0l-258 648l-261 -648h-63l297 708h57l291 -708h-63z" />
    <glyph glyph-name="Mu" unicode="&#x39c;" horiz-adv-x="892" 
d="M98 0v708h88l261 -613l259 613h88v-708h-57v635h-2l-273 -635h-32l-273 635h-2v-635h-57z" />
    <glyph glyph-name="Nu" unicode="&#x39d;" horiz-adv-x="768" 
d="M170 708l441 -626h2v626h57v-708h-72l-441 630h-2v-630h-57v708h72z" />
    <glyph glyph-name="Xi" unicode="&#x39e;" horiz-adv-x="619" 
d="M95 341v51h429v-51h-429zM50 0v53h519v-53h-519zM50 655v53h519v-53h-519z" />
    <glyph glyph-name="Omicron" unicode="&#x39f;" horiz-adv-x="857" 
d="M796 354c0 -216 -157 -373 -368 -373c-210 0 -367 157 -367 373s157 373 367 373c211 0 368 -157 368 -373zM736 354c0 175 -120 322 -308 322c-187 0 -307 -147 -307 -322s118 -322 307 -322s308 147 308 322z" />
    <glyph glyph-name="Pi" unicode="&#x3a0;" horiz-adv-x="712" 
d="M98 0v708h517v-708h-57v657h-403v-657h-57z" />
    <glyph glyph-name="Rho" unicode="&#x3a1;" horiz-adv-x="578" 
d="M98 0v708h197c131 0 233 -55 233 -185c0 -125 -96 -188 -230 -188h-143v-335h-57zM155 659v-276h140c105 0 176 46 176 140c0 96 -75 136 -177 136h-139z" />
    <glyph glyph-name="Sigma" unicode="&#x3a3;" horiz-adv-x="581" 
d="M546 0h-506v51l230 324l-221 280v53h487v-51h-418l221 -279l-231 -327h438v-51z" />
    <glyph glyph-name="Tau" unicode="&#x3a4;" horiz-adv-x="561" 
d="M309 657v-657h-57v657h-238v51h533v-51h-238z" />
    <glyph glyph-name="Upsilon" unicode="&#x3a5;" horiz-adv-x="583" 
d="M320 306v-306h-57v306l-259 402h71l218 -353l219 353h66z" />
    <glyph glyph-name="Phi" unicode="&#x3a6;" horiz-adv-x="852" 
d="M454 -33h-57v57c-246 7 -343 163 -343 334c0 158 88 323 343 331v58h57v-58c242 -7 344 -161 344 -331c0 -158 -86 -324 -344 -334v-57zM113 358c0 -176 102 -277 284 -284v566c-183 -7 -284 -111 -284 -282zM738 358c0 168 -96 275 -284 282v-566c176 6 284 102 284 284
z" />
    <glyph glyph-name="Chi" unicode="&#x3a7;" horiz-adv-x="621" 
d="M598 0h-73c-49 74 -168 254 -216 328l-215 -328h-71c59 87 193 285 251 372l-226 336h70l192 -295l193 295h67l-226 -336z" />
    <glyph glyph-name="Psi" unicode="&#x3a8;" horiz-adv-x="787" 
d="M365 177v531h57v-531c161 0 236 70 236 201v330h57v-339c0 -128 -65 -243 -293 -243v-126h-57v126c-218 0 -293 107 -293 243v339h57v-330c0 -130 73 -201 236 -201z" />
    <glyph glyph-name="Iotadieresis" unicode="&#x3aa;" horiz-adv-x="252" 
d="M155 708v-708h-57v708h57zM-7 851c0 22 18 43 43 43c24 0 42 -21 42 -43c0 -23 -18 -44 -42 -44c-25 0 -43 21 -43 44zM174 851c0 22 18 43 42 43c25 0 43 -21 43 -43c0 -23 -18 -44 -43 -44c-24 0 -42 21 -42 44z" />
    <glyph glyph-name="Upsilondieresis" unicode="&#x3ab;" horiz-adv-x="583" 
d="M320 306v-306h-57v306l-259 402h71l218 -353l219 353h66zM160 851c0 22 18 43 43 43c24 0 42 -21 42 -43c0 -23 -18 -44 -42 -44c-25 0 -43 21 -43 44zM341 851c0 22 18 43 42 43c25 0 43 -21 43 -43c0 -23 -18 -44 -43 -44c-24 0 -42 21 -42 44z" />
    <glyph glyph-name="alphatonos" unicode="&#x3ac;" horiz-adv-x="684" 
d="M411 708l-77 -144h-46l51 144h72zM293 34c111 0 184 93 184 199c0 102 -68 198 -184 198c-104 0 -178 -85 -178 -198c0 -124 84 -199 178 -199zM500 127h-2c-25 -70 -96 -140 -205 -140c-141 0 -235 109 -235 246c0 136 93 245 235 245c135 0 201 -88 216 -169h2l48 157
h57l-87 -260l27 -96c18 -63 30 -71 55 -71c8 0 19 2 27 5l3 -44c-8 -4 -26 -8 -42 -8c-51 0 -66 26 -87 96z" />
    <glyph glyph-name="epsilontonos" unicode="&#x3ad;" horiz-adv-x="493" 
d="M378 708l-77 -144h-46l51 144h72zM59 122c0 68 43 109 102 119v2c-52 14 -83 46 -83 101c0 89 76 134 189 134c71 0 136 -16 174 -45l-28 -39c-39 28 -96 38 -150 38c-87 0 -128 -33 -128 -87c0 -56 38 -79 124 -79h98v-46h-107c-72 0 -133 -19 -133 -91
c0 -61 51 -95 143 -95c68 0 115 17 160 61l35 -32c-46 -52 -106 -76 -201 -76c-129 0 -195 53 -195 135z" />
    <glyph glyph-name="etatonos" unicode="&#x3ae;" horiz-adv-x="582" 
d="M376 708l-77 -144h-46l51 144h72zM91 466h51c6 -26 8 -62 8 -102h2c29 75 97 114 168 114c120 0 173 -84 173 -194v-524h-54v504c0 92 -29 169 -132 169c-81 0 -155 -67 -155 -196v-237h-54v359c0 35 -2 80 -7 107z" />
    <glyph glyph-name="iotatonos" unicode="&#x3af;" horiz-adv-x="306" 
d="M220 708l-77 -144h-46l51 144h72zM143 466v-341c0 -69 32 -86 74 -86c20 0 42 6 56 13l3 -47c-18 -7 -43 -13 -74 -13c-55 0 -114 28 -114 119v355h55z" />
    <glyph glyph-name="upsilondieresistonos" unicode="&#x3b0;" horiz-adv-x="565" 
d="M128 640c0 23 18 44 43 44c24 0 42 -21 42 -44s-18 -43 -42 -43c-25 0 -43 20 -43 43zM361 640c0 23 18 44 43 44c24 0 42 -21 42 -44s-18 -43 -42 -43c-25 0 -43 20 -43 43zM338 708l-57 -144h-39l29 144h67zM497 254c0 -169 -67 -267 -215 -267c-97 0 -194 40 -194 203
v276h55v-268c0 -87 31 -164 139 -164c148 0 158 132 158 214c0 92 -21 166 -44 218h59c16 -37 42 -114 42 -212z" />
    <glyph glyph-name="alpha" unicode="&#x3b1;" horiz-adv-x="684" 
d="M293 34c111 0 184 93 184 199c0 102 -68 198 -184 198c-104 0 -178 -85 -178 -198c0 -124 84 -199 178 -199zM500 127h-2c-25 -70 -96 -140 -205 -140c-141 0 -235 109 -235 246c0 136 93 245 235 245c135 0 201 -88 216 -169h2l48 157h57l-87 -260l27 -96
c18 -63 30 -71 55 -71c8 0 19 2 27 5l3 -44c-8 -4 -26 -8 -42 -8c-51 0 -66 26 -87 96z" />
    <glyph glyph-name="beta" unicode="&#x3b2;" horiz-adv-x="633" 
d="M148 512v-266c0 -146 103 -212 197 -212c98 0 175 70 175 180c0 141 -92 182 -211 182h-83v47h79c105 0 161 49 161 140c0 90 -60 139 -152 139c-123 0 -166 -88 -166 -210zM348 -13c-97 0 -166 51 -197 105h-3v-332h-54v755c0 137 55 253 224 253
c140 0 204 -86 204 -183c0 -85 -51 -138 -107 -155v-2c113 -26 160 -109 160 -210c0 -125 -90 -231 -227 -231z" />
    <glyph glyph-name="gamma" unicode="&#x3b3;" horiz-adv-x="546" 
d="M319 -205h-54v181l-139 352c-33 82 -44 95 -94 96l8 49c61 0 93 -13 118 -79l133 -345h3l174 417h56l-205 -487v-184z" />
    <glyph glyph-name="delta" unicode="&#x3b4;" horiz-adv-x="592" 
d="M480 235c-1 129 -89 201 -182 201c-123 0 -185 -98 -185 -202c0 -111 71 -200 181 -200c117 0 186 93 186 201zM58 230c0 126 71 232 216 243v2c-98 43 -124 94 -124 144c0 77 49 149 189 149c77 0 129 -16 165 -36l-23 -45c-34 19 -80 33 -141 33
c-98 0 -134 -45 -134 -98c0 -54 31 -84 136 -129c125 -53 192 -124 192 -259c0 -159 -115 -247 -240 -247c-124 0 -236 90 -236 243z" />
    <glyph glyph-name="epsilon" unicode="&#x3b5;" horiz-adv-x="493" 
d="M59 122c0 68 43 109 102 119v2c-52 14 -83 46 -83 101c0 89 76 134 189 134c71 0 136 -16 174 -45l-28 -39c-39 28 -96 38 -150 38c-87 0 -128 -33 -128 -87c0 -56 38 -79 124 -79h98v-46h-107c-72 0 -133 -19 -133 -91c0 -61 51 -95 143 -95c68 0 115 17 160 61l35 -32
c-46 -52 -106 -76 -201 -76c-129 0 -195 53 -195 135z" />
    <glyph glyph-name="zeta" unicode="&#x3b6;" horiz-adv-x="448" 
d="M105 261c0 -110 61 -150 184 -190c108 -35 151 -67 151 -149c0 -85 -70 -136 -179 -138v48c80 4 127 33 127 91c0 48 -20 68 -112 98c-129 41 -228 84 -228 237c0 173 124 339 306 447v2h-272v49h357v-50c-206 -118 -334 -269 -334 -445z" />
    <glyph glyph-name="eta" unicode="&#x3b7;" horiz-adv-x="582" 
d="M91 466h51c6 -26 8 -62 8 -102h2c29 75 97 114 168 114c120 0 173 -84 173 -194v-524h-54v504c0 92 -29 169 -132 169c-81 0 -155 -67 -155 -196v-237h-54v359c0 35 -2 80 -7 107z" />
    <glyph glyph-name="theta" unicode="&#x3b8;" horiz-adv-x="614" 
d="M307 768c168 0 241 -147 241 -389c0 -270 -87 -392 -241 -392c-149 0 -241 115 -241 392c0 217 58 389 241 389zM307 34c121 0 184 113 186 323h-372c3 -231 76 -323 186 -323zM307 722c-140 0 -183 -150 -186 -315h372c-2 179 -54 315 -186 315z" />
    <glyph glyph-name="iota" unicode="&#x3b9;" horiz-adv-x="306" 
d="M143 466v-341c0 -69 32 -86 74 -86c20 0 42 6 56 13l3 -47c-18 -7 -43 -13 -74 -13c-55 0 -114 28 -114 119v355h55z" />
    <glyph glyph-name="kappa" unicode="&#x3ba;" horiz-adv-x="549" 
d="M378 375l-75 -81l210 -294h-68l-180 253l-119 -129v-124h-54v466h54v-271h3l207 226c33 36 59 53 89 52c13 0 25 -2 39 -7l-13 -47c-8 2 -15 3 -22 3c-19 0 -37 -11 -71 -47z" />
    <glyph glyph-name="lambda" unicode="&#x3bb;" horiz-adv-x="569" 
d="M445 53l-141 384h-2l-210 -437h-61l249 501l-55 148c-19 51 -33 70 -63 70c-8 0 -18 -1 -29 -4l-7 45c19 5 36 8 51 8c46 0 72 -28 100 -104l219 -596c7 -20 19 -29 35 -29c6 0 12 1 20 4l3 -44c-13 -4 -26 -7 -38 -7c-29 0 -54 15 -71 61z" />
    <glyph glyph-name="nu" unicode="&#x3bd;" horiz-adv-x="477" 
d="M235 49h5l77 174c53 119 66 158 66 243h56c0 -89 -22 -142 -63 -233l-105 -233h-69l-184 466h61z" />
    <glyph glyph-name="xi" unicode="&#x3be;" horiz-adv-x="498" 
d="M57 241c0 87 52 159 145 183v3c-71 18 -110 67 -110 139c0 67 28 117 101 139v2h-110v49h387v-50h-72c-191 0 -256 -42 -256 -137c0 -96 82 -117 185 -117h99v-52h-98c-163 0 -217 -70 -217 -160c0 -93 62 -129 179 -166c119 -37 169 -69 169 -150
c0 -89 -70 -138 -179 -140v48c83 4 127 36 127 90c0 60 -40 72 -140 105c-162 54 -210 113 -210 214z" />
    <glyph glyph-name="omicron" unicode="&#x3bf;" horiz-adv-x="609" 
d="M551 233c0 -142 -102 -246 -247 -246c-144 0 -246 104 -246 246s102 245 246 245c145 0 247 -103 247 -245zM494 233c0 111 -73 200 -190 200c-116 0 -189 -89 -189 -200s73 -199 189 -199c117 0 190 88 190 199z" />
    <glyph glyph-name="rho" unicode="&#x3c1;" horiz-adv-x="618" 
d="M134 -240h-55v468c0 149 97 250 240 250c168 0 241 -130 241 -245c0 -139 -96 -246 -235 -246c-78 0 -151 39 -188 105h-3v-332zM503 233c0 108 -69 200 -186 200c-112 0 -189 -87 -189 -200c0 -112 79 -199 189 -199c117 0 186 89 186 199z" />
    <glyph glyph-name="sigma1" unicode="&#x3c2;" horiz-adv-x="509" 
d="M56 254c0 115 72 224 238 224c85 0 141 -20 188 -60l-32 -39c-39 32 -87 51 -154 51c-138 0 -183 -98 -183 -173c0 -108 70 -152 186 -187c104 -31 149 -68 149 -147c0 -87 -70 -137 -178 -139v48c79 4 126 34 126 90c0 52 -31 75 -112 98c-130 37 -228 84 -228 234z" />
    <glyph glyph-name="sigma" unicode="&#x3c3;" horiz-adv-x="632" 
d="M593 418h-158v-2c57 -28 102 -98 102 -187c0 -148 -103 -242 -239 -242c-135 0 -240 99 -240 239c0 133 91 240 239 240h296v-48zM482 229c0 104 -69 191 -181 191c-120 0 -186 -91 -186 -191c0 -111 73 -195 184 -195c105 0 183 78 183 195z" />
    <glyph glyph-name="tau" unicode="&#x3c4;" horiz-adv-x="489" 
d="M421 52l3 -46c-18 -7 -48 -14 -87 -14c-98 0 -134 55 -134 124v302h-174v48h433v-48h-204v-296c0 -67 44 -83 87 -83c35 0 61 7 76 13z" />
    <glyph glyph-name="upsilon" unicode="&#x3c5;" horiz-adv-x="565" 
d="M497 254c0 -169 -67 -267 -215 -267c-97 0 -194 40 -194 203v276h55v-268c0 -87 31 -164 139 -164c148 0 158 132 158 214c0 92 -21 166 -44 218h59c16 -37 42 -114 42 -212z" />
    <glyph glyph-name="phi" unicode="&#x3c6;" horiz-adv-x="705" 
d="M380 -240h-55v221c-172 1 -267 105 -267 252c0 117 65 249 267 252v149h55v-149c197 -3 267 -129 267 -252c0 -143 -91 -251 -267 -252v-221zM114 233c0 -128 74 -204 211 -204v407c-167 -1 -211 -107 -211 -203zM591 233c0 97 -45 202 -211 203v-407
c147 1 211 87 211 204z" />
    <glyph glyph-name="chi" unicode="&#x3c7;" horiz-adv-x="552" 
d="M41 -240l215 359l-130 247c-22 41 -32 58 -84 58l8 49c73 0 91 -16 123 -78l116 -224l164 295h62l-196 -343l155 -293c11 -20 21 -30 42 -30c6 0 14 1 23 3l3 -44c-14 -5 -27 -7 -40 -7c-31 0 -57 15 -77 53l-140 267l-182 -312h-62z" />
    <glyph glyph-name="psi" unicode="&#x3c8;" horiz-adv-x="712" 
d="M385 -240h-54v220h-10c-141 1 -233 45 -233 213v273h55v-266c0 -107 32 -171 172 -171h16v605h54v-605h10c156 2 192 108 192 214c0 97 -23 175 -44 223h59c17 -38 42 -116 42 -223c0 -166 -85 -262 -251 -263h-8v-220z" />
    <glyph glyph-name="omega" unicode="&#x3c9;" horiz-adv-x="765" 
d="M355 196v165h55v-165c0 -126 58 -162 116 -162c72 0 118 65 118 174c0 111 -38 187 -81 245l49 21c42 -52 89 -145 89 -265c0 -163 -84 -222 -175 -222c-81 0 -127 55 -142 115h-2c-13 -49 -54 -115 -144 -115c-101 0 -174 74 -174 222c0 119 46 211 89 265l49 -21
c-43 -58 -81 -134 -81 -245c0 -86 35 -174 117 -174c73 0 117 53 117 162z" />
    <glyph glyph-name="iotadieresis" unicode="&#x3ca;" horiz-adv-x="306" 
d="M143 466v-341c0 -69 32 -86 74 -86c20 0 42 6 56 13l3 -47c-18 -7 -43 -13 -74 -13c-55 0 -114 28 -114 119v355h55zM-15 651c0 22 18 43 43 43c24 0 42 -21 42 -43c0 -23 -18 -44 -42 -44c-25 0 -43 21 -43 44zM166 651c0 22 18 43 42 43c25 0 43 -21 43 -43
c0 -23 -18 -44 -43 -44c-24 0 -42 21 -42 44z" />
    <glyph glyph-name="upsilondieresis" unicode="&#x3cb;" horiz-adv-x="565" 
d="M497 254c0 -169 -67 -267 -215 -267c-97 0 -194 40 -194 203v276h55v-268c0 -87 31 -164 139 -164c148 0 158 132 158 214c0 92 -21 166 -44 218h59c16 -37 42 -114 42 -212zM140 651c0 22 18 43 43 43c24 0 42 -21 42 -43c0 -23 -18 -44 -42 -44c-25 0 -43 21 -43 44z
M321 651c0 22 18 43 42 43c25 0 43 -21 43 -43c0 -23 -18 -44 -43 -44c-24 0 -42 21 -42 44z" />
    <glyph glyph-name="omicrontonos" unicode="&#x3cc;" horiz-adv-x="609" 
d="M411 708l-77 -144h-46l51 144h72zM551 233c0 -142 -102 -246 -247 -246c-144 0 -246 104 -246 246s102 245 246 245c145 0 247 -103 247 -245zM494 233c0 111 -73 200 -190 200c-116 0 -189 -89 -189 -200s73 -199 189 -199c117 0 190 88 190 199z" />
    <glyph glyph-name="upsilontonos" unicode="&#x3cd;" horiz-adv-x="565" 
d="M376 708l-77 -144h-46l51 144h72zM497 254c0 -169 -67 -267 -215 -267c-97 0 -194 40 -194 203v276h55v-268c0 -87 31 -164 139 -164c148 0 158 132 158 214c0 92 -21 166 -44 218h59c16 -37 42 -114 42 -212z" />
    <glyph glyph-name="omegatonos" unicode="&#x3ce;" horiz-adv-x="765" 
d="M484 708l-77 -144h-46l51 144h72zM355 196v165h55v-165c0 -126 58 -162 116 -162c72 0 118 65 118 174c0 111 -38 187 -81 245l49 21c42 -52 89 -145 89 -265c0 -163 -84 -222 -175 -222c-81 0 -127 55 -142 115h-2c-13 -49 -54 -115 -144 -115c-101 0 -174 74 -174 222
c0 119 46 211 89 265l49 -21c-43 -58 -81 -134 -81 -245c0 -86 35 -174 117 -174c73 0 117 53 117 162z" />
    <glyph glyph-name="Xi.alt" horiz-adv-x="629" 
d="M50 658v50h530v-50h-241v-268h195v-46h-195v-295h241v-49h-530v49h240v295h-195v46h195v268h-240z" />
    <glyph glyph-name="alpha.alt" horiz-adv-x="646" 
d="M296 -13c-142 0 -238 107 -238 246s95 245 238 245c73 0 146 -37 185 -107h3v95h55v-376c0 -38 7 -51 34 -51c11 0 18 1 26 4l3 -44c-9 -3 -21 -7 -40 -7c-46 0 -71 24 -76 74c-1 4 -1 22 -2 27h-2c-38 -67 -113 -106 -186 -106zM301 34c110 0 189 87 189 199
s-79 200 -189 200c-117 0 -186 -91 -186 -200c0 -110 69 -199 186 -199z" />
    <glyph glyph-name="phi.alt" horiz-adv-x="715" 
d="M322 29v301c0 109 61 148 141 148c98 0 194 -61 194 -234c0 -144 -100 -262 -281 -263v-221h-54v221c-167 1 -264 99 -264 249c0 129 68 208 151 240l27 -39c-55 -23 -122 -78 -122 -200c0 -135 82 -201 208 -202zM601 244c0 142 -70 189 -136 189
c-54 0 -89 -28 -89 -112v-292c153 1 225 101 225 215z" />
    <glyph glyph-name="alphatonos.alt" horiz-adv-x="646" 
d="M403 708l-77 -144h-46l51 144h72zM296 -13c-142 0 -238 107 -238 246s95 245 238 245c73 0 146 -37 185 -107h3v95h55v-376c0 -38 7 -51 34 -51c11 0 18 1 26 4l3 -44c-9 -3 -21 -7 -40 -7c-46 0 -71 24 -76 74c-1 4 -1 22 -2 27h-2c-38 -67 -113 -106 -186 -106zM301 34
c110 0 189 87 189 199s-79 200 -189 200c-117 0 -186 -91 -186 -200c0 -110 69 -199 186 -199z" />
    <glyph glyph-name="uni03A9.alt" horiz-adv-x="749" 
d="M64 433c0 177 132 294 311 294c178 0 311 -117 311 -294c0 -168 -122 -281 -284 -294v-87h258v-52h-567v52h254v87c-134 9 -283 98 -283 294zM121 424c0 -129 99 -235 254 -235c159 0 253 110 253 235c0 140 -95 251 -253 251c-150 0 -254 -103 -254 -251z" />
    <glyph glyph-name="Omega.alt" horiz-adv-x="749" 
d="M64 433c0 177 132 294 311 294c178 0 311 -117 311 -294c0 -168 -122 -281 -284 -294v-87h258v-52h-567v52h254v87c-134 9 -283 98 -283 294zM121 424c0 -129 99 -235 254 -235c159 0 253 110 253 235c0 140 -95 251 -253 251c-150 0 -254 -103 -254 -251z" />
    <glyph glyph-name="Omegatonos.alt" horiz-adv-x="749" 
d="M59 708l-77 -144h-46l51 144h72zM64 433c0 177 132 294 311 294c178 0 311 -117 311 -294c0 -168 -122 -281 -284 -294v-87h258v-52h-567v52h254v87c-134 9 -283 98 -283 294zM121 424c0 -129 99 -235 254 -235c159 0 253 110 253 235c0 140 -95 251 -253 251
c-150 0 -254 -103 -254 -251z" />
    <glyph glyph-name="exclam.sc" horiz-adv-x="275" 
d="M165 528v-377h-55v377h55zM182 39c0 -24 -18 -45 -44 -45c-27 0 -44 21 -44 45s17 45 44 45c26 0 44 -21 44 -45z" />
    <glyph glyph-name="dollar.sc" horiz-adv-x="478" 
d="M216 44v209c-78 22 -139 58 -139 142c0 83 62 127 139 133v56h39v-56c55 -2 100 -23 133 -57l-37 -36c-24 30 -61 49 -96 49v-190c95 -29 147 -73 147 -155c0 -80 -64 -136 -147 -139v-58h-39v58c-63 3 -111 30 -150 78l36 31c28 -39 75 -64 114 -65zM255 242v-198
c53 4 93 37 93 95c0 55 -40 85 -93 103zM216 306v179c-47 -3 -87 -32 -87 -87c0 -54 36 -77 87 -92z" />
    <glyph glyph-name="percent.sc" horiz-adv-x="669" 
d="M310 411c0 -73 -57 -130 -130 -130c-72 0 -129 57 -129 130c0 72 57 129 129 129c73 0 130 -57 130 -129zM264 411c0 47 -38 84 -84 84c-45 0 -83 -37 -83 -84c0 -49 38 -84 83 -84c46 0 84 35 84 84zM619 117c0 -73 -57 -130 -130 -130c-72 0 -129 57 -129 130
c0 72 57 129 129 129c73 0 130 -57 130 -129zM573 117c0 48 -38 84 -84 84c-45 0 -83 -36 -83 -84c0 -49 38 -84 83 -84c46 0 84 35 84 84zM522 534l-338 -564l-38 22l338 564z" />
    <glyph glyph-name="ampersand.sc" horiz-adv-x="569" 
d="M517 281l-94 -164l114 -117h-77l-68 72c-46 -60 -100 -85 -167 -85c-88 0 -162 56 -162 150c0 74 48 121 117 157c-42 48 -58 83 -58 126c0 72 55 120 130 120c76 0 127 -44 127 -114c0 -63 -51 -107 -119 -142l125 -130l71 127h61zM324 425c0 43 -32 70 -72 70
s-76 -31 -76 -77c0 -32 17 -63 51 -100c68 33 97 68 97 107zM356 109l-143 150c-62 -31 -92 -69 -92 -123c0 -61 45 -102 106 -102c56 0 98 27 129 75z" />
    <glyph glyph-name="parenleft.sc" horiz-adv-x="236" 
d="M84 264c0 -109 40 -226 98 -307l-42 -26c-64 86 -108 210 -108 333c0 124 44 247 108 333l42 -25c-58 -81 -98 -199 -98 -308z" />
    <glyph glyph-name="parenright.sc" horiz-adv-x="236" 
d="M203 264c0 -124 -44 -247 -107 -333l-43 25c58 81 99 199 99 308s-41 226 -99 307l43 26c63 -87 107 -210 107 -333z" />
    <glyph glyph-name="bracketleft.sc" horiz-adv-x="236" 
d="M177 -65h-128v658h128v-42h-77v-573h77v-43z" />
    <glyph glyph-name="backslash.sc" horiz-adv-x="289" 
d="M282 2l-47 -16l-227 541l46 16z" />
    <glyph glyph-name="bracketright.sc" horiz-adv-x="236" 
d="M187 -65h-128v43h76v573h-76v42h128v-658z" />
    <glyph glyph-name="braceleft.sc" horiz-adv-x="236" 
d="M195 -65h-50c-46 0 -84 24 -84 97v125c0 61 -19 83 -58 83v48c39 0 58 22 58 83v125c0 73 38 97 84 97h50v-42h-41c-31 0 -41 -24 -41 -59v-121c0 -68 -30 -96 -62 -106v-2c32 -10 62 -38 62 -107v-120c0 -35 10 -58 41 -58h41v-43z" />
    <glyph glyph-name="slash.sc" horiz-adv-x="289" 
d="M55 -14l-47 16l227 541l47 -16z" />
    <glyph glyph-name="braceright.sc" horiz-adv-x="236" 
d="M90 -65h-49v43h41c31 0 41 23 41 58v121c0 68 29 96 62 106v2c-33 10 -62 38 -62 107v120c0 35 -10 59 -41 59h-41v42h49c46 0 84 -24 84 -97v-125c0 -61 20 -83 59 -83v-48c-39 0 -59 -22 -59 -83v-125c0 -73 -38 -97 -84 -97z" />
    <glyph glyph-name="zero.sc" horiz-adv-x="478" 
d="M239 540c135 0 176 -144 176 -277s-41 -276 -176 -276c-137 0 -176 143 -176 276s39 277 176 277zM239 492c-95 0 -116 -136 -116 -229c0 -94 21 -226 116 -226c94 0 116 132 116 226c0 93 -22 229 -116 229z" />
    <glyph glyph-name="one.sc" horiz-adv-x="478" 
d="M300 528v-528h-56v457l-93 -80l-33 39l132 112h50z" />
    <glyph glyph-name="two.sc" horiz-adv-x="478" 
d="M408 50v-50h-331v55l202 210c43 44 66 84 67 130c0 60 -41 95 -97 95c-51 0 -90 -31 -104 -90l-55 12c18 80 77 128 159 128c88 0 154 -50 154 -144c0 -60 -34 -112 -89 -169l-170 -177h264z" />
    <glyph glyph-name="three.sc" horiz-adv-x="478" 
d="M226 -13c-72 0 -136 33 -169 112l52 20c24 -57 68 -81 117 -81c64 0 113 42 113 108c0 76 -61 105 -130 105h-30v50h30c63 0 116 30 116 96c0 56 -47 94 -101 94c-40 0 -76 -20 -99 -62l-46 26c34 57 83 85 147 85c85 0 154 -50 154 -141c0 -53 -32 -100 -86 -118l-8 -4
c67 -15 109 -67 109 -130c0 -97 -70 -160 -169 -160z" />
    <glyph glyph-name="four.sc" horiz-adv-x="478" 
d="M340 528v-352h78v-49h-78v-127h-53v127h-236v50l224 351h65zM287 176v281h-2l-175 -281h177z" />
    <glyph glyph-name="five.sc" horiz-adv-x="478" 
d="M380 528v-50h-221l-5 -157c21 8 46 12 68 12c107 0 176 -64 176 -168c0 -105 -74 -178 -178 -178c-76 0 -135 40 -160 98l51 23c18 -48 62 -70 107 -70c70 0 123 49 123 124c0 74 -51 124 -128 124c-34 0 -77 -13 -113 -35l6 277h274z" />
    <glyph glyph-name="six.sc" horiz-adv-x="478" 
d="M240 -13c-101 0 -172 69 -172 169c0 47 18 94 49 143l143 229h64l-148 -229h1c23 14 48 20 72 20c91 0 162 -64 162 -162c0 -99 -70 -170 -171 -170zM240 38c69 0 116 51 116 118c0 65 -45 117 -114 117c-70 0 -119 -50 -119 -117c0 -68 49 -118 117 -118z" />
    <glyph glyph-name="seven.sc" horiz-adv-x="478" 
d="M400 528v-47l-213 -481h-63l216 477h-255v51h315z" />
    <glyph glyph-name="eight.sc" horiz-adv-x="478" 
d="M388 398c0 -51 -30 -97 -78 -116v-2c62 -22 97 -74 97 -139c0 -95 -72 -154 -168 -154s-169 59 -169 154c0 65 36 117 97 139v2c-48 19 -78 65 -78 116c0 85 66 142 150 142c83 0 149 -57 149 -142zM126 147c0 -62 45 -109 113 -109s113 47 113 109s-48 107 -113 107
c-64 0 -113 -45 -113 -107zM144 396c0 -53 41 -91 95 -91c52 0 95 36 95 91c0 56 -40 94 -95 94c-56 0 -95 -38 -95 -94z" />
    <glyph glyph-name="nine.sc" horiz-adv-x="478" 
d="M154 0l148 229h-4c-22 -14 -45 -19 -68 -19c-91 0 -162 64 -162 161c0 99 70 169 171 169c100 0 172 -68 172 -168c0 -47 -19 -96 -50 -143l-143 -229h-64zM237 256c70 0 118 50 118 116c0 68 -49 117 -116 117c-69 0 -115 -50 -115 -117c0 -65 44 -116 113 -116z" />
    <glyph glyph-name="question.sc" horiz-adv-x="353" 
d="M146 157v37c0 37 11 68 50 106c1 2 22 21 23 23c31 31 44 49 44 91c0 47 -31 86 -83 86c-44 0 -77 -26 -89 -85l-53 9c14 79 65 125 145 125c88 0 136 -59 136 -132c0 -59 -21 -92 -65 -129c-46 -39 -54 -63 -54 -106v-25h-54zM177 -6c-25 0 -43 21 -43 44
c0 24 18 44 43 44c26 0 44 -20 44 -44c0 -23 -18 -44 -44 -44z" />
    <glyph glyph-name="a.sc" horiz-adv-x="528" 
d="M128 137l-58 -137h-59l228 528h52l225 -528h-62l-56 137h-270zM264 464l-116 -279h229z" />
    <glyph glyph-name="b.sc" horiz-adv-x="508" 
d="M94 0v528h168c78 0 164 -32 164 -132c0 -63 -37 -101 -88 -118v-2c60 -10 113 -52 113 -130c0 -101 -88 -146 -191 -146h-166zM149 478v-179h107c60 0 114 26 114 92c0 64 -54 87 -125 87h-96zM149 250v-200h105c72 0 140 24 140 99c0 72 -54 101 -132 101h-113z" />
    <glyph glyph-name="c.sc" horiz-adv-x="558" 
d="M486 109l41 -30c-42 -54 -106 -92 -196 -92c-159 0 -274 116 -274 277c0 163 118 276 276 276c72 0 143 -27 184 -78l-42 -34c-29 37 -85 62 -142 62c-131 0 -216 -101 -216 -226s84 -226 215 -226c63 0 118 25 154 71z" />
    <glyph glyph-name="d.sc" horiz-adv-x="607" 
d="M94 0v528h171c141 0 284 -80 284 -264c0 -180 -143 -264 -284 -264h-171zM149 478v-428h104c140 0 237 79 237 214c0 136 -97 214 -237 214h-104z" />
    <glyph glyph-name="e.sc" horiz-adv-x="492" 
d="M149 249v-199h283v-50h-338v528h327v-50h-272v-180h256v-49h-256z" />
    <glyph glyph-name="f.sc" horiz-adv-x="463" 
d="M149 245v-245h-55v528h319v-50h-264v-184h247v-49h-247z" />
    <glyph glyph-name="g.sc" horiz-adv-x="615" 
d="M523 473l-38 -40c-33 35 -89 57 -150 57c-133 0 -218 -101 -218 -225c0 -125 84 -227 220 -227c57 0 104 12 139 32v162h-123v49h179v-246c-52 -29 -118 -48 -196 -48c-164 0 -279 117 -279 278c0 162 118 275 278 275c80 0 144 -25 188 -67z" />
    <glyph glyph-name="h.sc" horiz-adv-x="606" 
d="M94 0v528h55v-231h307v231h56v-528h-56v249h-307v-249h-55z" />
    <glyph glyph-name="i.sc" horiz-adv-x="243" 
d="M149 528v-528h-55v528h55z" />
    <glyph glyph-name="j.sc" horiz-adv-x="392" 
d="M21 92l52 16c12 -41 42 -69 87 -69c71 0 91 54 91 121v368h56v-372c0 -78 -31 -169 -144 -169c-77 0 -126 46 -142 105z" />
    <glyph glyph-name="k.sc" horiz-adv-x="502" 
d="M149 528v-236h2l246 236h78l-261 -242l276 -286h-81l-258 277h-2v-277h-55v528h55z" />
    <glyph glyph-name="l.sc" horiz-adv-x="412" 
d="M149 528v-478h244v-50h-299v528h55z" />
    <glyph glyph-name="m.sc" horiz-adv-x="720" 
d="M94 0v528h88l179 -436l178 436h87v-528h-55v461h-3l-191 -461h-35l-191 461h-2v-461h-55z" />
    <glyph glyph-name="n.sc" horiz-adv-x="612" 
d="M166 528l295 -448h2v448h56v-528h-71l-297 454h-2v-454h-55v528h72z" />
    <glyph glyph-name="o.sc" horiz-adv-x="668" 
d="M611 265c0 -161 -117 -278 -278 -278c-159 0 -276 117 -276 278c0 163 117 275 276 275c161 0 278 -112 278 -275zM551 265c0 124 -84 227 -218 227c-133 0 -216 -103 -216 -227s84 -227 216 -227c134 0 218 103 218 227z" />
    <glyph glyph-name="p.sc" horiz-adv-x="477" 
d="M94 0v528h160c104 0 179 -50 179 -153c0 -100 -78 -153 -181 -153h-103v-222h-55zM149 478v-209h100c73 0 127 35 127 106c0 74 -55 103 -128 103h-99z" />
    <glyph glyph-name="q.sc" horiz-adv-x="668" 
d="M634 50v-50h-305c-156 0 -272 107 -272 269c0 158 116 271 272 271s271 -114 271 -271c0 -100 -51 -180 -127 -217v-2h161zM117 269c0 -122 84 -219 212 -219c129 0 212 99 212 219c0 121 -84 222 -212 222c-127 0 -212 -101 -212 -222z" />
    <glyph glyph-name="r.sc" horiz-adv-x="491" 
d="M149 243v-243h-55v528h159c97 0 182 -37 182 -142c0 -82 -60 -127 -135 -136l150 -250h-67l-142 243h-92zM149 478v-186h97c79 0 132 28 132 94c0 71 -60 92 -130 92h-99z" />
    <glyph glyph-name="s.sc" horiz-adv-x="440" 
d="M378 479l-40 -38c-23 31 -63 51 -109 51c-54 0 -114 -30 -114 -96c0 -141 270 -69 270 -254c0 -104 -84 -155 -175 -155c-65 0 -129 27 -167 75l44 37c27 -38 73 -63 124 -63c57 0 118 33 118 101c0 143 -271 69 -271 257c0 100 88 146 174 146c60 0 115 -24 146 -61z
" />
    <glyph glyph-name="t.sc" horiz-adv-x="428" 
d="M241 478v-478h-56v478h-172v50h402v-50h-174z" />
    <glyph glyph-name="u.sc" horiz-adv-x="574" 
d="M287 -13c-144 0 -201 103 -201 211v330h55v-326c0 -83 37 -163 146 -163s146 80 146 163v326h56v-330c0 -108 -59 -211 -202 -211z" />
    <glyph glyph-name="v.sc" horiz-adv-x="488" 
d="M73 528l170 -458h2l170 458h61l-204 -528h-57l-203 528h61z" />
    <glyph glyph-name="w.sc" horiz-adv-x="759" 
d="M85 528l128 -451h2l132 451h65l132 -451h2l128 451h60l-156 -528h-63l-135 452l-137 -452h-62l-155 528h59z" />
    <glyph glyph-name="x.sc" horiz-adv-x="474" 
d="M99 528l138 -211l137 211h65l-168 -251l189 -277h-69l-154 235l-154 -235h-69l188 277l-171 251h68z" />
    <glyph glyph-name="y.sc" horiz-adv-x="450" 
d="M252 229v-229h-55v229l-193 299h67l154 -253l155 253h66z" />
    <glyph glyph-name="z.sc" horiz-adv-x="484" 
d="M429 528v-50l-312 -428h317v-50h-384v50l311 428h-303v50h371z" />
    <glyph glyph-name="agrave.sc" horiz-adv-x="528" 
d="M128 137l-58 -137h-59l228 528h52l225 -528h-62l-56 137h-270zM264 464l-116 -279h229zM240 585l-126 144h72l101 -144h-47z" />
    <glyph glyph-name="aacute.sc" horiz-adv-x="528" 
d="M128 137l-58 -137h-59l228 528h52l225 -528h-62l-56 137h-270zM264 464l-116 -279h229zM417 729l-126 -144h-47l101 144h72z" />
    <glyph glyph-name="acircumflex.sc" horiz-adv-x="528" 
d="M128 137l-58 -137h-59l228 528h52l225 -528h-62l-56 137h-270zM264 464l-116 -279h229zM296 729l107 -144h-53l-86 115l-86 -115h-53l107 144h64z" />
    <glyph glyph-name="atilde.sc" horiz-adv-x="528" 
d="M128 137l-58 -137h-59l228 528h52l225 -528h-62l-56 137h-270zM264 464l-116 -279h229zM151 605h-35c8 51 32 94 82 94c43 0 103 -46 135 -46c28 0 40 22 46 49h35c-8 -51 -31 -93 -81 -93c-45 0 -102 47 -135 47c-28 0 -41 -23 -47 -51z" />
    <glyph glyph-name="adieresis.sc" horiz-adv-x="528" 
d="M128 137l-58 -137h-59l228 528h52l225 -528h-62l-56 137h-270zM264 464l-116 -279h229zM132 672c0 22 18 43 43 43c24 0 42 -21 42 -43c0 -23 -18 -44 -42 -44c-25 0 -43 21 -43 44zM313 672c0 22 18 43 42 43c25 0 43 -21 43 -43c0 -23 -18 -44 -43 -44
c-24 0 -42 21 -42 44z" />
    <glyph glyph-name="amacron.sc" horiz-adv-x="528" 
d="M128 137l-58 -137h-59l228 528h52l225 -528h-62l-56 137h-270zM264 464l-116 -279h229zM394 671v-44h-258v44h258z" />
    <glyph glyph-name="abreve.sc" horiz-adv-x="528" 
d="M128 137l-58 -137h-59l228 528h52l225 -528h-62l-56 137h-270zM264 464l-116 -279h229zM369 726h36c-7 -82 -63 -130 -141 -130c-77 0 -133 48 -140 130h37c10 -57 53 -86 103 -86c53 0 94 27 105 86z" />
    <glyph glyph-name="aring.sc" horiz-adv-x="528" 
d="M128 137l-58 -137h-59l228 528h52l225 -528h-62l-56 137h-270zM264 464l-116 -279h229zM361 671c0 -54 -44 -95 -96 -95s-96 41 -96 95s44 95 96 95s96 -41 96 -95zM330 671c0 36 -29 65 -65 65s-65 -29 -65 -65s29 -65 65 -65s65 29 65 65z" />
    <glyph glyph-name="aogonek.sc" horiz-adv-x="528" 
d="M11 0l228 528h52l225 -528c0 -1 -23 -1 -23 -2c-52 -51 -80 -84 -80 -125c0 -32 24 -53 54 -53c21 0 43 9 57 24l16 -32c-22 -22 -55 -35 -88 -35c-47 0 -88 33 -88 84c0 54 47 102 90 139l-56 137h-270l-58 -137h-59zM148 185h229l-113 279z" />
    <glyph glyph-name="ae.sc" horiz-adv-x="767" 
d="M424 249v-199h283v-50h-338v147h-222l-95 -147h-64l343 528h365v-50h-272v-180h256v-49h-256zM359 478l-181 -283h191v283h-10z" />
    <glyph glyph-name="cacute.sc" horiz-adv-x="558" 
d="M486 109l41 -30c-42 -54 -106 -92 -196 -92c-159 0 -274 116 -274 277c0 163 118 276 276 276c72 0 143 -27 184 -78l-42 -34c-29 37 -85 62 -142 62c-131 0 -216 -101 -216 -226s84 -226 215 -226c63 0 118 25 154 71zM445 729l-126 -144h-47l101 144h72z" />
    <glyph glyph-name="ccircumflex.sc" horiz-adv-x="558" 
d="M486 109l41 -30c-42 -54 -106 -92 -196 -92c-159 0 -274 116 -274 277c0 163 118 276 276 276c72 0 143 -27 184 -78l-42 -34c-29 37 -85 62 -142 62c-131 0 -216 -101 -216 -226s84 -226 215 -226c63 0 118 25 154 71zM365 729l107 -144h-53l-86 115l-86 -115h-53
l107 144h64z" />
    <glyph glyph-name="ccaron.sc" horiz-adv-x="558" 
d="M486 109l41 -30c-42 -54 -106 -92 -196 -92c-159 0 -274 116 -274 277c0 163 118 276 276 276c72 0 143 -27 184 -78l-42 -34c-29 37 -85 62 -142 62c-131 0 -216 -101 -216 -226s84 -226 215 -226c63 0 118 25 154 71zM470 729l-107 -144h-64l-107 144h53l86 -115
l86 115h53z" />
    <glyph glyph-name="cdotaccent.sc" horiz-adv-x="558" 
d="M486 109l41 -30c-42 -54 -106 -92 -196 -92c-159 0 -274 116 -274 277c0 163 118 276 276 276c72 0 143 -27 184 -78l-42 -34c-29 37 -85 62 -142 62c-131 0 -216 -101 -216 -226s84 -226 215 -226c63 0 118 25 154 71zM375 672c0 -24 -21 -41 -41 -41s-41 17 -41 41
s21 41 41 41s41 -17 41 -41z" />
    <glyph glyph-name="ccedilla.sc" horiz-adv-x="558" 
d="M486 109l41 -30c-42 -53 -104 -90 -192 -92l-41 -65c12 4 24 5 40 5c40 0 84 -22 84 -71c0 -66 -66 -85 -116 -85c-27 0 -65 7 -93 20l13 31c23 -11 51 -16 76 -16c26 0 72 11 72 49c0 31 -27 43 -60 43c-15 0 -37 -4 -51 -10l-15 13l56 88c-143 13 -243 124 -243 275
c0 163 118 276 276 276c72 0 143 -27 184 -78l-42 -34c-29 37 -85 62 -142 62c-131 0 -216 -101 -216 -226s84 -226 215 -226c63 0 118 25 154 71z" />
    <glyph glyph-name="dcaron.sc" horiz-adv-x="607" 
d="M94 0v528h171c141 0 284 -80 284 -264c0 -180 -143 -264 -284 -264h-171zM149 478v-428h104c140 0 237 79 237 214c0 136 -97 214 -237 214h-104zM429 729l-107 -144h-64l-107 144h53l86 -115l86 115h53z" />
    <glyph glyph-name="dcroat.sc" horiz-adv-x="607" 
d="M18 255v42h76v231h171c141 0 284 -80 284 -264c0 -180 -143 -264 -284 -264h-171v255h-76zM149 478v-181h154v-42h-154v-205h104c140 0 237 79 237 214c0 136 -97 214 -237 214h-104z" />
    <glyph glyph-name="eth.sc" horiz-adv-x="607" 
d="M18 255v42h76v231h171c141 0 284 -80 284 -264c0 -180 -143 -264 -284 -264h-171v255h-76zM149 478v-181h154v-42h-154v-205h104c140 0 237 79 237 214c0 136 -97 214 -237 214h-104z" />
    <glyph glyph-name="egrave.sc" horiz-adv-x="492" 
d="M149 249v-199h283v-50h-338v528h327v-50h-272v-180h256v-49h-256zM250 585l-126 144h72l101 -144h-47z" />
    <glyph glyph-name="eacute.sc" horiz-adv-x="492" 
d="M149 249v-199h283v-50h-338v528h327v-50h-272v-180h256v-49h-256zM393 729l-126 -144h-47l101 144h72z" />
    <glyph glyph-name="ecircumflex.sc" horiz-adv-x="492" 
d="M149 249v-199h283v-50h-338v528h327v-50h-272v-180h256v-49h-256zM288 729l107 -144h-53l-86 115l-86 -115h-53l107 144h64z" />
    <glyph glyph-name="ecaron.sc" horiz-adv-x="492" 
d="M149 249v-199h283v-50h-338v528h327v-50h-272v-180h256v-49h-256zM398 729l-107 -144h-64l-107 144h53l86 -115l86 115h53z" />
    <glyph glyph-name="edieresis.sc" horiz-adv-x="492" 
d="M149 249v-199h283v-50h-338v528h327v-50h-272v-180h256v-49h-256zM126 672c0 22 18 43 43 43c24 0 42 -21 42 -43c0 -23 -18 -44 -42 -44c-25 0 -43 21 -43 44zM307 672c0 22 18 43 42 43c25 0 43 -21 43 -43c0 -23 -18 -44 -43 -44c-24 0 -42 21 -42 44z" />
    <glyph glyph-name="emacron.sc" horiz-adv-x="492" 
d="M149 249v-199h283v-50h-338v528h327v-50h-272v-180h256v-49h-256zM389 671v-44h-258v44h258z" />
    <glyph glyph-name="ebreve.sc" horiz-adv-x="492" 
d="M149 249v-199h283v-50h-338v528h327v-50h-272v-180h256v-49h-256zM361 726h36c-7 -82 -63 -130 -141 -130c-77 0 -133 48 -140 130h37c10 -57 53 -86 103 -86c53 0 94 27 105 86z" />
    <glyph glyph-name="edotaccent.sc" horiz-adv-x="492" 
d="M149 249v-199h283v-50h-338v528h327v-50h-272v-180h256v-49h-256zM303 672c0 -24 -21 -41 -41 -41s-41 17 -41 41s21 41 41 41s41 -17 41 -41z" />
    <glyph glyph-name="eogonek.sc" horiz-adv-x="492" 
d="M443 -156l16 -32c-22 -22 -55 -35 -87 -35c-47 0 -89 33 -89 84c0 54 47 102 90 139h-279v528h327v-50h-272v-180h256v-49h-256v-199h283v-50h-18c-53 -53 -82 -86 -82 -127c0 -32 24 -53 54 -53c21 0 43 9 57 24z" />
    <glyph glyph-name="gcircumflex.sc" horiz-adv-x="615" 
d="M523 473l-38 -40c-33 35 -89 57 -150 57c-133 0 -218 -101 -218 -225c0 -125 84 -227 220 -227c57 0 104 12 139 32v162h-123v49h179v-246c-52 -29 -118 -48 -196 -48c-164 0 -279 117 -279 278c0 162 118 275 278 275c80 0 144 -25 188 -67zM368 729l107 -144h-53
l-86 115l-86 -115h-53l107 144h64z" />
    <glyph glyph-name="gbreve.sc" horiz-adv-x="615" 
d="M523 473l-38 -40c-33 35 -89 57 -150 57c-133 0 -218 -101 -218 -225c0 -125 84 -227 220 -227c57 0 104 12 139 32v162h-123v49h179v-246c-52 -29 -118 -48 -196 -48c-164 0 -279 117 -279 278c0 162 118 275 278 275c80 0 144 -25 188 -67zM441 726h36
c-7 -82 -63 -130 -141 -130c-77 0 -133 48 -140 130h37c10 -57 53 -86 103 -86c53 0 94 27 105 86z" />
    <glyph glyph-name="gdotaccent.sc" horiz-adv-x="615" 
d="M523 473l-38 -40c-33 35 -89 57 -150 57c-133 0 -218 -101 -218 -225c0 -125 84 -227 220 -227c57 0 104 12 139 32v162h-123v49h179v-246c-52 -29 -118 -48 -196 -48c-164 0 -279 117 -279 278c0 162 118 275 278 275c80 0 144 -25 188 -67zM375 672
c0 -24 -21 -41 -41 -41s-41 17 -41 41s21 41 41 41s41 -17 41 -41z" />
    <glyph glyph-name="gcommaaccent.sc" horiz-adv-x="615" 
d="M523 473l-38 -40c-33 35 -89 57 -150 57c-133 0 -218 -101 -218 -225c0 -125 84 -227 220 -227c57 0 104 12 139 32v162h-123v49h179v-246c-52 -29 -118 -48 -196 -48c-164 0 -279 117 -279 278c0 162 118 275 278 275c80 0 144 -25 188 -67zM371 -45l-71 -185h-45
l59 185h57z" />
    <glyph glyph-name="kgreenlandic.sc" horiz-adv-x="502" 
d="M149 528v-236h2l246 236h78l-261 -242l276 -286h-81l-258 277h-2v-277h-55v528h55z" />
    <glyph glyph-name="hcircumflex.sc" horiz-adv-x="606" 
d="M94 0v528h55v-231h307v231h56v-528h-56v249h-307v-249h-55zM334 729l107 -144h-53l-86 115l-86 -115h-53l107 144h64z" />
    <glyph glyph-name="hbar.sc" horiz-adv-x="606" 
d="M94 0v528h55v-115h307v115h56v-528h-56v249h-307v-249h-55zM149 297h307v83h-307v-83z" />
    <glyph glyph-name="igrave.sc" horiz-adv-x="243" 
d="M149 528v-528h-55v528h55zM103 585l-126 144h72l101 -144h-47z" />
    <glyph glyph-name="iacute.sc" horiz-adv-x="243" 
d="M149 528v-528h-55v528h55zM268 729l-126 -144h-47l101 144h72z" />
    <glyph glyph-name="ibreve.sc" horiz-adv-x="243" 
d="M149 528v-528h-55v528h55zM226 726h36c-7 -82 -63 -130 -141 -130c-77 0 -133 48 -140 130h37c10 -57 53 -86 103 -86c53 0 94 27 105 86z" />
    <glyph glyph-name="icircumflex.sc" horiz-adv-x="243" 
d="M149 528v-528h-55v528h55zM152 729l107 -144h-53l-86 115l-86 -115h-53l107 144h64z" />
    <glyph glyph-name="itilde.sc" horiz-adv-x="243" 
d="M149 528v-528h-55v528h55zM7 605h-35c8 51 32 94 82 94c43 0 103 -46 135 -46c28 0 40 22 46 49h35c-8 -51 -31 -93 -81 -93c-45 0 -102 47 -135 47c-28 0 -41 -23 -47 -51z" />
    <glyph glyph-name="idieresis.sc" horiz-adv-x="243" 
d="M149 528v-528h-55v528h55zM-13 672c0 22 18 43 43 43c24 0 42 -21 42 -43c0 -23 -18 -44 -42 -44c-25 0 -43 21 -43 44zM168 672c0 22 18 43 42 43c25 0 43 -21 43 -43c0 -23 -18 -44 -43 -44c-24 0 -42 21 -42 44z" />
    <glyph glyph-name="imacron.sc" horiz-adv-x="243" 
d="M149 528v-528h-55v528h55zM251 671v-44h-258v44h258z" />
    <glyph glyph-name="idotaccent.sc" horiz-adv-x="243" 
d="M149 528v-528h-55v528h55zM164 651c0 -24 -21 -41 -41 -41s-41 17 -41 41s21 41 41 41s41 -17 41 -41z" />
    <glyph glyph-name="iogonek.sc" horiz-adv-x="243" 
d="M107 -223c-47 0 -88 33 -88 84c0 54 46 101 89 138c0 0 -15 1 -14 1v528h55v-528c-51 -52 -81 -85 -81 -127c0 -32 24 -53 54 -53c21 0 43 9 57 24l16 -32c-22 -22 -55 -35 -88 -35z" />
    <glyph glyph-name="jcircumflex.sc" horiz-adv-x="392" 
d="M21 92l52 16c12 -41 42 -69 87 -69c71 0 91 54 91 121v368h56v-372c0 -78 -31 -169 -144 -169c-77 0 -126 46 -142 105zM309 729l107 -144h-53l-86 115l-86 -115h-53l107 144h64z" />
    <glyph glyph-name="kcommaaccent.sc" horiz-adv-x="502" 
d="M149 528v-236h2l246 236h78l-261 -242l276 -286h-81l-258 277h-2v-277h-55v528h55zM306 -44l-71 -185h-45l59 185h57z" />
    <glyph glyph-name="lacute.sc" horiz-adv-x="412" 
d="M149 528v-478h244v-50h-299v528h55zM272 729l-126 -144h-47l101 144h72z" />
    <glyph glyph-name="lcaron.sc" horiz-adv-x="412" 
d="M149 528v-478h244v-50h-299v528h55zM337 528l-71 -185h-45l59 185h57z" />
    <glyph glyph-name="lcommaaccent.sc" horiz-adv-x="412" 
d="M149 528v-478h244v-50h-299v528h55zM288 -47l-71 -185h-45l59 185h57z" />
    <glyph glyph-name="lslash.sc" horiz-adv-x="412" 
d="M149 528v-181l123 103v-56l-123 -104v-240h244v-50h-299v244l-77 -64v57l77 64v227h55z" />
    <glyph glyph-name="ldot.sc" horiz-adv-x="412" 
d="M149 528v-478h244v-50h-299v528h55zM316 312c0 -24 -21 -41 -41 -41s-41 17 -41 41s21 41 41 41s41 -17 41 -41z" />
    <glyph glyph-name="nacute.sc" horiz-adv-x="612" 
d="M166 528l295 -448h2v448h56v-528h-71l-297 454h-2v-454h-55v528h72zM428 729l-126 -144h-47l101 144h72z" />
    <glyph glyph-name="ncaron.sc" horiz-adv-x="612" 
d="M166 528l295 -448h2v448h56v-528h-71l-297 454h-2v-454h-55v528h72zM446 729l-107 -144h-64l-107 144h53l86 -115l86 115h53z" />
    <glyph glyph-name="ntilde.sc" horiz-adv-x="612" 
d="M166 528l295 -448h2v448h56v-528h-71l-297 454h-2v-454h-55v528h72zM192 605h-35c8 51 32 94 82 94c43 0 103 -46 135 -46c28 0 40 22 46 49h35c-8 -51 -31 -93 -81 -93c-45 0 -102 47 -135 47c-28 0 -41 -23 -47 -51z" />
    <glyph glyph-name="ncommaaccent.sc" horiz-adv-x="612" 
d="M166 528l295 -448h2v448h56v-528h-71l-297 454h-2v-454h-55v528h72zM346 -45l-71 -185h-45l59 185h57z" />
    <glyph glyph-name="ograve.sc" horiz-adv-x="668" 
d="M611 265c0 -161 -117 -278 -278 -278c-159 0 -276 117 -276 278c0 163 117 275 276 275c161 0 278 -112 278 -275zM551 265c0 124 -84 227 -218 227c-133 0 -216 -103 -216 -227s84 -227 216 -227c134 0 218 103 218 227zM327 585l-126 144h72l101 -144h-47z" />
    <glyph glyph-name="oacute.sc" horiz-adv-x="668" 
d="M611 265c0 -161 -117 -278 -278 -278c-159 0 -276 117 -276 278c0 163 117 275 276 275c161 0 278 -112 278 -275zM551 265c0 124 -84 227 -218 227c-133 0 -216 -103 -216 -227s84 -227 216 -227c134 0 218 103 218 227zM465 729l-126 -144h-47l101 144h72z" />
    <glyph glyph-name="ocircumflex.sc" horiz-adv-x="668" 
d="M611 265c0 -161 -117 -278 -278 -278c-159 0 -276 117 -276 278c0 163 117 275 276 275c161 0 278 -112 278 -275zM551 265c0 124 -84 227 -218 227c-133 0 -216 -103 -216 -227s84 -227 216 -227c134 0 218 103 218 227zM365 729l107 -144h-53l-86 115l-86 -115h-53
l107 144h64z" />
    <glyph glyph-name="otilde.sc" horiz-adv-x="668" 
d="M611 265c0 -161 -117 -278 -278 -278c-159 0 -276 117 -276 278c0 163 117 275 276 275c161 0 278 -112 278 -275zM551 265c0 124 -84 227 -218 227c-133 0 -216 -103 -216 -227s84 -227 216 -227c134 0 218 103 218 227zM220 605h-35c8 51 32 94 82 94
c43 0 103 -46 135 -46c28 0 40 22 46 49h35c-8 -51 -31 -93 -81 -93c-45 0 -102 47 -135 47c-28 0 -41 -23 -47 -51z" />
    <glyph glyph-name="odieresis.sc" horiz-adv-x="668" 
d="M611 265c0 -161 -117 -278 -278 -278c-159 0 -276 117 -276 278c0 163 117 275 276 275c161 0 278 -112 278 -275zM551 265c0 124 -84 227 -218 227c-133 0 -216 -103 -216 -227s84 -227 216 -227c134 0 218 103 218 227zM200 672c0 22 18 43 43 43c24 0 42 -21 42 -43
c0 -23 -18 -44 -42 -44c-25 0 -43 21 -43 44zM381 672c0 22 18 43 42 43c25 0 43 -21 43 -43c0 -23 -18 -44 -43 -44c-24 0 -42 21 -42 44z" />
    <glyph glyph-name="omacron.sc" horiz-adv-x="668" 
d="M611 265c0 -161 -117 -278 -278 -278c-159 0 -276 117 -276 278c0 163 117 275 276 275c161 0 278 -112 278 -275zM551 265c0 124 -84 227 -218 227c-133 0 -216 -103 -216 -227s84 -227 216 -227c134 0 218 103 218 227zM463 671v-44h-258v44h258z" />
    <glyph glyph-name="obreve.sc" horiz-adv-x="668" 
d="M611 265c0 -161 -117 -278 -278 -278c-159 0 -276 117 -276 278c0 163 117 275 276 275c161 0 278 -112 278 -275zM551 265c0 124 -84 227 -218 227c-133 0 -216 -103 -216 -227s84 -227 216 -227c134 0 218 103 218 227zM438 726h36c-7 -82 -63 -130 -141 -130
c-77 0 -133 48 -140 130h37c10 -57 53 -86 103 -86c53 0 94 27 105 86z" />
    <glyph glyph-name="ohungarumlaut.sc" horiz-adv-x="668" 
d="M611 265c0 -161 -117 -278 -278 -278c-159 0 -276 117 -276 278c0 163 117 275 276 275c161 0 278 -112 278 -275zM551 265c0 124 -84 227 -218 227c-133 0 -216 -103 -216 -227s84 -227 216 -227c134 0 218 103 218 227zM228 585l101 144h72l-126 -144h-47zM382 585
l101 144h72l-126 -144h-47z" />
    <glyph glyph-name="oslash.sc" horiz-adv-x="668" 
d="M73 -22l-26 26l74 76c-40 48 -64 111 -64 185c0 163 117 275 276 275c71 0 133 -20 180 -59l67 69l26 -26l-66 -68c45 -49 71 -114 71 -191c0 -163 -117 -278 -278 -278c-74 0 -138 24 -187 66zM333 37c134 0 218 102 218 228c0 57 -18 109 -51 150l-315 -322
c37 -35 87 -56 148 -56zM161 121l313 320c-36 31 -84 51 -141 51c-133 0 -216 -103 -216 -227c0 -55 15 -105 44 -144z" />
    <glyph glyph-name="oe.sc" horiz-adv-x="778" 
d="M434 249v-199h284v-50h-381c-151 0 -274 105 -274 264c0 160 124 264 274 264h370v-50h-273v-180h256v-49h-256zM337 50h42v428h-42c-124 0 -215 -92 -215 -214c0 -123 91 -214 215 -214z" />
    <glyph glyph-name="racute.sc" horiz-adv-x="491" 
d="M149 243v-243h-55v528h159c97 0 182 -37 182 -142c0 -82 -60 -127 -135 -136l150 -250h-67l-142 243h-92zM149 478v-186h97c79 0 132 28 132 94c0 71 -60 92 -130 92h-99zM365 729l-126 -144h-47l101 144h72z" />
    <glyph glyph-name="rcaron.sc" horiz-adv-x="491" 
d="M149 243v-243h-55v528h159c97 0 182 -37 182 -142c0 -82 -60 -127 -135 -136l150 -250h-67l-142 243h-92zM149 478v-186h97c79 0 132 28 132 94c0 71 -60 92 -130 92h-99zM387 729l-107 -144h-64l-107 144h53l86 -115l86 115h53z" />
    <glyph glyph-name="rcommaaccent.sc" horiz-adv-x="491" 
d="M149 243v-243h-55v528h159c97 0 182 -37 182 -142c0 -82 -60 -127 -135 -136l150 -250h-67l-142 243h-92zM149 478v-186h97c79 0 132 28 132 94c0 71 -60 92 -130 92h-99zM296 -45l-71 -185h-45l59 185h57z" />
    <glyph glyph-name="sacute.sc" horiz-adv-x="440" 
d="M378 479l-40 -38c-23 31 -63 51 -109 51c-54 0 -114 -30 -114 -96c0 -141 270 -69 270 -254c0 -104 -84 -155 -175 -155c-65 0 -129 27 -167 75l44 37c27 -38 73 -63 124 -63c57 0 118 33 118 101c0 143 -271 69 -271 257c0 100 88 146 174 146c60 0 115 -24 146 -61z
M343 729l-126 -144h-47l101 144h72z" />
    <glyph glyph-name="scircumflex.sc" horiz-adv-x="440" 
d="M378 479l-40 -38c-23 31 -63 51 -109 51c-54 0 -114 -30 -114 -96c0 -141 270 -69 270 -254c0 -104 -84 -155 -175 -155c-65 0 -129 27 -167 75l44 37c27 -38 73 -63 124 -63c57 0 118 33 118 101c0 143 -271 69 -271 257c0 100 88 146 174 146c60 0 115 -24 146 -61z
M263 729l107 -144h-53l-86 115l-86 -115h-53l107 144h64z" />
    <glyph glyph-name="scaron.sc" horiz-adv-x="440" 
d="M378 479l-40 -38c-23 31 -63 51 -109 51c-54 0 -114 -30 -114 -96c0 -141 270 -69 270 -254c0 -104 -84 -155 -175 -155c-65 0 -129 27 -167 75l44 37c27 -38 73 -63 124 -63c57 0 118 33 118 101c0 143 -271 69 -271 257c0 100 88 146 174 146c60 0 115 -24 146 -61z
M369 729l-107 -144h-64l-107 144h53l86 -115l86 115h53z" />
    <glyph glyph-name="scedilla.sc" horiz-adv-x="440" 
d="M378 479l-40 -38c-23 31 -63 51 -109 51c-54 0 -114 -30 -114 -96c0 -141 270 -69 270 -254c0 -97 -73 -147 -156 -154l-42 -66c12 4 24 5 40 5c40 0 84 -22 84 -71c0 -66 -66 -85 -116 -85c-27 0 -65 7 -93 20l13 31c23 -11 51 -16 76 -16c26 0 72 11 72 49
c0 31 -27 43 -60 43c-15 0 -37 -4 -51 -10l-15 13l56 87c-59 4 -116 30 -150 74l44 37c27 -38 73 -63 124 -63c57 0 118 33 118 101c0 143 -271 69 -271 257c0 100 88 146 174 146c60 0 115 -24 146 -61z" />
    <glyph glyph-name="scommaaccent.sc" horiz-adv-x="440" 
d="M378 479l-40 -38c-23 31 -63 51 -109 51c-54 0 -114 -30 -114 -96c0 -141 270 -69 270 -254c0 -104 -84 -155 -175 -155c-65 0 -129 27 -167 75l44 37c27 -38 73 -63 124 -63c57 0 118 33 118 101c0 143 -271 69 -271 257c0 100 88 146 174 146c60 0 115 -24 146 -61z
M252 -47l-71 -185h-45l59 185h57z" />
    <glyph glyph-name="tcaron.sc" horiz-adv-x="428" 
d="M241 478v-478h-56v478h-172v50h402v-50h-174zM352 729l-107 -144h-64l-107 144h53l86 -115l86 115h53z" />
    <glyph glyph-name="tcommaaccent.sc" horiz-adv-x="428" 
d="M241 478v-478h-56v478h-172v50h402v-50h-174zM255 -45l-71 -185h-45l59 185h57z" />
    <glyph glyph-name="tbar.sc" horiz-adv-x="428" 
d="M66 323v37h119v118h-172v50h402v-50h-174v-118h121v-37h-121v-323h-56v323h-119z" />
    <glyph glyph-name="thorn.sc" horiz-adv-x="480" 
d="M94 0v528h56v-104h104c114 0 181 -43 181 -140c0 -96 -70 -145 -184 -145h-101v-139h-56zM150 375v-187h95c85 0 134 29 134 96c0 64 -44 91 -133 91h-96z" />
    <glyph glyph-name="ugrave.sc" horiz-adv-x="574" 
d="M287 -13c-144 0 -201 103 -201 211v330h55v-326c0 -83 37 -163 146 -163s146 80 146 163v326h56v-330c0 -108 -59 -211 -202 -211zM275 585l-126 144h72l101 -144h-47z" />
    <glyph glyph-name="uacute.sc" horiz-adv-x="574" 
d="M287 -13c-144 0 -201 103 -201 211v330h55v-326c0 -83 37 -163 146 -163s146 80 146 163v326h56v-330c0 -108 -59 -211 -202 -211zM426 729l-126 -144h-47l101 144h72z" />
    <glyph glyph-name="ucircumflex.sc" horiz-adv-x="574" 
d="M287 -13c-144 0 -201 103 -201 211v330h55v-326c0 -83 37 -163 146 -163s146 80 146 163v326h56v-330c0 -108 -59 -211 -202 -211zM320 729l107 -144h-53l-86 115l-86 -115h-53l107 144h64z" />
    <glyph glyph-name="utilde.sc" horiz-adv-x="574" 
d="M287 -13c-144 0 -201 103 -201 211v330h55v-326c0 -83 37 -163 146 -163s146 80 146 163v326h56v-330c0 -108 -59 -211 -202 -211zM175 605h-35c8 51 32 94 82 94c43 0 103 -46 135 -46c28 0 40 22 46 49h35c-8 -51 -31 -93 -81 -93c-45 0 -102 47 -135 47
c-28 0 -41 -23 -47 -51z" />
    <glyph glyph-name="udieresis.sc" horiz-adv-x="574" 
d="M287 -13c-144 0 -201 103 -201 211v330h55v-326c0 -83 37 -163 146 -163s146 80 146 163v326h56v-330c0 -108 -59 -211 -202 -211zM156 672c0 22 18 43 43 43c24 0 42 -21 42 -43c0 -23 -18 -44 -42 -44c-25 0 -43 21 -43 44zM337 672c0 22 18 43 42 43
c25 0 43 -21 43 -43c0 -23 -18 -44 -43 -44c-24 0 -42 21 -42 44z" />
    <glyph glyph-name="umacron.sc" horiz-adv-x="574" 
d="M287 -13c-144 0 -201 103 -201 211v330h55v-326c0 -83 37 -163 146 -163s146 80 146 163v326h56v-330c0 -108 -59 -211 -202 -211zM418 671v-44h-258v44h258z" />
    <glyph glyph-name="ubreve.sc" horiz-adv-x="574" 
d="M287 -13c-144 0 -201 103 -201 211v330h55v-326c0 -83 37 -163 146 -163s146 80 146 163v326h56v-330c0 -108 -59 -211 -202 -211zM393 726h36c-7 -82 -63 -130 -141 -130c-77 0 -133 48 -140 130h37c10 -57 53 -86 103 -86c53 0 94 27 105 86z" />
    <glyph glyph-name="uring.sc" horiz-adv-x="574" 
d="M287 -13c-144 0 -201 103 -201 211v330h55v-326c0 -83 37 -163 146 -163s146 80 146 163v326h56v-330c0 -108 -59 -211 -202 -211zM383 671c0 -54 -44 -95 -96 -95s-96 41 -96 95s44 95 96 95s96 -41 96 -95zM352 671c0 36 -29 65 -65 65s-65 -29 -65 -65s29 -65 65 -65
s65 29 65 65z" />
    <glyph glyph-name="uhungarumlaut.sc" horiz-adv-x="574" 
d="M287 -13c-144 0 -201 103 -201 211v330h55v-326c0 -83 37 -163 146 -163s146 80 146 163v326h56v-330c0 -108 -59 -211 -202 -211zM178 585l101 144h72l-126 -144h-47zM332 585l101 144h72l-126 -144h-47z" />
    <glyph glyph-name="uogonek.sc" horiz-adv-x="574" 
d="M365 -156l16 -32c-22 -22 -55 -35 -88 -35c-47 0 -88 33 -88 84c0 49 37 92 75 126c-139 4 -194 105 -194 211v330h55v-326c0 -83 37 -163 146 -163s146 80 146 163v326h56v-330c0 -98 -48 -191 -163 -207c-46 -48 -72 -79 -72 -118c0 -32 24 -53 54 -53c21 0 43 9 57 24
z" />
    <glyph glyph-name="wacute.sc" horiz-adv-x="759" 
d="M85 528l128 -451h2l132 451h65l132 -451h2l128 451h60l-156 -528h-63l-135 452l-137 -452h-62l-155 528h59zM528 729l-126 -144h-47l101 144h72z" />
    <glyph glyph-name="wcircumflex.sc" horiz-adv-x="759" 
d="M85 528l128 -451h2l132 451h65l132 -451h2l128 451h60l-156 -528h-63l-135 452l-137 -452h-62l-155 528h59zM412 729l107 -144h-53l-86 115l-86 -115h-53l107 144h64z" />
    <glyph glyph-name="wdieresis.sc" horiz-adv-x="759" 
d="M85 528l128 -451h2l132 451h65l132 -451h2l128 451h60l-156 -528h-63l-135 452l-137 -452h-62l-155 528h59zM246 672c0 22 18 43 43 43c24 0 42 -21 42 -43c0 -23 -18 -44 -42 -44c-25 0 -43 21 -43 44zM427 672c0 22 18 43 42 43c25 0 43 -21 43 -43
c0 -23 -18 -44 -43 -44c-24 0 -42 21 -42 44z" />
    <glyph glyph-name="wgrave.sc" horiz-adv-x="759" 
d="M85 528l128 -451h2l132 451h65l132 -451h2l128 451h60l-156 -528h-63l-135 452l-137 -452h-62l-155 528h59zM357 585l-126 144h72l101 -144h-47z" />
    <glyph glyph-name="yacute.sc" horiz-adv-x="450" 
d="M252 229v-229h-55v229l-193 299h67l154 -253l155 253h66zM351 729l-126 -144h-47l101 144h72z" />
    <glyph glyph-name="ycircumflex.sc" horiz-adv-x="450" 
d="M252 229v-229h-55v229l-193 299h67l154 -253l155 253h66zM257 729l107 -144h-53l-86 115l-86 -115h-53l107 144h64z" />
    <glyph glyph-name="ydieresis.sc" horiz-adv-x="450" 
d="M252 229v-229h-55v229l-193 299h67l154 -253l155 253h66zM93 672c0 22 18 43 43 43c24 0 42 -21 42 -43c0 -23 -18 -44 -42 -44c-25 0 -43 21 -43 44zM274 672c0 22 18 43 42 43c25 0 43 -21 43 -43c0 -23 -18 -44 -43 -44c-24 0 -42 21 -42 44z" />
    <glyph glyph-name="ygrave.sc" horiz-adv-x="450" 
d="M252 229v-229h-55v229l-193 299h67l154 -253l155 253h66zM224 585l-126 144h72l101 -144h-47z" />
    <glyph glyph-name="zacute.sc" horiz-adv-x="484" 
d="M429 528v-50l-312 -428h317v-50h-384v50l311 428h-303v50h371zM350 729l-126 -144h-47l101 144h72z" />
    <glyph glyph-name="zcaron.sc" horiz-adv-x="484" 
d="M429 528v-50l-312 -428h317v-50h-384v50l311 428h-303v50h371zM386 729l-107 -144h-64l-107 144h53l86 -115l86 115h53z" />
    <glyph glyph-name="zdotaccent.sc" horiz-adv-x="484" 
d="M429 528v-50l-312 -428h317v-50h-384v50l311 428h-303v50h371zM283 672c0 -24 -21 -41 -41 -41s-41 17 -41 41s21 41 41 41s41 -17 41 -41z" />
    <glyph glyph-name="ij.sc" horiz-adv-x="630" 
d="M149 528v-528h-55v528h55zM259 92l52 16c11 -41 42 -69 87 -69c70 0 91 54 91 121v368h55v-372c0 -78 -31 -169 -143 -169c-77 0 -126 46 -142 105z" />
    <glyph glyph-name="germandbls.sc" horiz-adv-x="893" 
d="M385 479l-40 -38c-24 31 -63 51 -109 51c-55 0 -115 -30 -115 -96c0 -141 271 -68 271 -254c0 -104 -85 -155 -175 -155c-66 0 -130 27 -167 75l44 37c26 -38 73 -63 123 -63c58 0 118 33 118 101c0 143 -270 69 -270 257c0 100 88 146 174 146c60 0 115 -24 146 -61z
M831 479l-40 -38c-23 31 -63 51 -109 51c-55 0 -115 -30 -115 -96c0 -141 271 -68 271 -254c0 -104 -85 -155 -175 -155c-65 0 -129 27 -167 75l44 37c26 -38 73 -63 124 -63c57 0 118 33 118 101c0 143 -271 69 -271 257c0 100 88 146 174 146c60 0 115 -24 146 -61z" />
    <glyph glyph-name="eng.sc" horiz-adv-x="612" 
d="M94 0v528h72l295 -433h2v433h56v-622c0 -81 -26 -146 -127 -146c-13 0 -32 1 -47 6l8 45c12 -3 27 -5 38 -5c65 0 73 48 73 107v78l-313 463h-2v-454h-55z" />
    <glyph glyph-name="grave.sc" 
d="M125 585l-126 144h72l101 -144h-47z" />
    <glyph glyph-name="acute.sc" 
d="M241 729l-126 -144h-47l101 144h72z" />
    <glyph glyph-name="circumflex.sc" 
d="M152 729l107 -144h-53l-86 115l-86 -115h-53l107 144h64z" />
    <glyph glyph-name="caron.sc" 
d="M259 729l-107 -144h-64l-107 144h53l86 -115l86 115h53z" />
    <glyph glyph-name="tilde.sc" 
d="M6 605h-35c8 51 32 94 82 94c43 0 103 -46 135 -46c28 0 40 22 46 49h35c-8 -51 -31 -93 -81 -93c-45 0 -102 47 -135 47c-28 0 -41 -23 -47 -51z" />
    <glyph glyph-name="dieresis.sc" 
d="M-13 672c0 22 18 43 43 43c24 0 42 -21 42 -43c0 -23 -18 -44 -42 -44c-25 0 -43 21 -43 44zM168 672c0 22 18 43 42 43c25 0 43 -21 43 -43c0 -23 -18 -44 -43 -44c-24 0 -42 21 -42 44z" />
    <glyph glyph-name="macron.sc" 
d="M249 671v-44h-258v44h258z" />
    <glyph glyph-name="breve.sc" 
d="M224 726h36c-7 -82 -63 -130 -141 -130c-77 0 -133 48 -140 130h37c10 -57 53 -86 103 -86c53 0 94 27 105 86z" />
    <glyph glyph-name="ring.sc" 
d="M216 671c0 -54 -44 -95 -96 -95s-96 41 -96 95s44 95 96 95s96 -41 96 -95zM185 671c0 36 -29 65 -65 65s-65 -29 -65 -65s29 -65 65 -65s65 29 65 65z" />
    <glyph glyph-name="hungarumlaut.sc" 
d="M-30 585l101 144h72l-126 -144h-47zM124 585l101 144h72l-126 -144h-47z" />
    <glyph glyph-name="dotaccent.sc" 
d="M161 672c0 -24 -21 -41 -41 -41s-41 17 -41 41s21 41 41 41s41 -17 41 -41z" />
    <glyph glyph-name="exclamdown.sc" horiz-adv-x="275" 
d="M165 0h-55v376h55v-376zM182 489c0 -24 -18 -45 -44 -45c-27 0 -44 21 -44 45s17 45 44 45c26 0 44 -21 44 -45z" />
    <glyph glyph-name="questiondown.sc" horiz-adv-x="353" 
d="M172 -13c-89 0 -137 59 -137 133c0 59 22 91 66 128c45 38 54 64 54 106v26h54v-38c0 -47 -17 -72 -74 -129c-31 -31 -44 -49 -44 -90c0 -47 31 -87 84 -87c43 0 77 26 89 86l53 -10c-15 -78 -65 -125 -145 -125zM177 454c-25 0 -43 21 -43 44c0 24 17 44 43 44
s43 -20 43 -44c0 -23 -17 -44 -43 -44z" />
    <glyph glyph-name="Euro.sc" horiz-adv-x="478" 
d="M401 465c-33 18 -63 25 -98 25c-76 0 -139 -51 -160 -148h223l-14 -42h-214c-3 -17 -4 -34 -4 -45c0 -10 1 -23 3 -35h194l-14 -43h-173c13 -78 72 -141 150 -141c38 0 74 9 109 34l22 -43c-39 -27 -81 -40 -132 -40c-120 0 -193 92 -208 190h-59l16 43h37
c-1 6 -2 22 -2 31c0 15 2 37 3 49h-53l15 42h44c25 126 112 198 218 198c42 0 81 -9 116 -29z" />
    <glyph glyph-name="cent.sc" horiz-adv-x="478" 
d="M304 -72h-44v61c-128 13 -208 112 -208 244c0 130 83 229 208 243v64h44v-62c62 -3 118 -27 155 -73l-36 -33c-26 33 -73 56 -119 59v-395c51 3 92 23 124 56l34 -31c-38 -44 -91 -71 -158 -74v-59zM108 233c0 -100 59 -180 152 -195v390c-94 -16 -152 -96 -152 -195z
" />
    <glyph glyph-name="sterling.sc" horiz-adv-x="478" 
d="M324 295v-46h-120v-199h185v-50h-313v50h72v199h-66v46h66v74c0 105 58 171 157 171c42 0 79 -14 107 -39l-36 -39c-24 24 -48 31 -73 31c-64 0 -99 -45 -99 -129v-69h120z" />
    <glyph glyph-name="florin.sc" horiz-adv-x="478" 
d="M355 317v-42h-93l-39 -235c-14 -82 -50 -126 -119 -126c-24 0 -55 9 -71 21l21 42c13 -10 34 -16 50 -16c30 0 56 22 66 85l37 229h-83v42h87l20 113c12 70 52 109 112 109c29 0 60 -10 80 -26l-29 -38c-13 11 -33 18 -48 18c-35 0 -55 -26 -62 -69l-18 -107h89z" />
    <glyph glyph-name="yen.sc" horiz-adv-x="478" 
d="M91 166h123v74h-123v42h112l-171 246h63l146 -220l145 220h60l-169 -246h113v-42h-123v-74h123v-42h-123v-124h-53v124h-123v42z" />
    <glyph glyph-name="perthousand.sc" horiz-adv-x="970" 
d="M310 411c0 -73 -57 -130 -130 -130c-72 0 -129 57 -129 130c0 72 57 129 129 129c73 0 130 -57 130 -129zM264 411c0 47 -38 84 -84 84c-45 0 -83 -37 -83 -84c0 -49 38 -84 83 -84c46 0 84 35 84 84zM619 117c0 -73 -57 -130 -130 -130c-72 0 -129 57 -129 130
c0 72 57 129 129 129c73 0 130 -57 130 -129zM573 117c0 48 -38 84 -84 84c-45 0 -83 -36 -83 -84c0 -49 38 -84 83 -84c46 0 84 35 84 84zM925 117c0 -73 -57 -130 -130 -130s-130 57 -130 130c0 72 57 129 130 129s130 -57 130 -129zM879 117c0 48 -39 84 -84 84
s-84 -36 -84 -84c0 -49 39 -84 84 -84s84 35 84 84zM522 534l-338 -564l-38 22l338 564z" />
    <glyph glyph-name="zero.onum" horiz-adv-x="684" 
d="M621 265c0 -163 -117 -278 -280 -278c-160 0 -278 115 -278 278c0 165 118 277 278 277c163 0 280 -112 280 -277zM560 265c0 127 -84 226 -219 226c-134 0 -217 -99 -217 -226s84 -227 217 -227c135 0 219 100 219 227z" />
    <glyph glyph-name="one.onum" horiz-adv-x="375" 
d="M237 0h-56v456l-102 -86l-33 40l141 118h50v-528z" />
    <glyph glyph-name="two.onum" horiz-adv-x="514" 
d="M449 0h-393v53l99 70c149 106 226 162 226 252c0 72 -53 117 -132 117c-63 0 -117 -33 -146 -95l-44 27c37 75 106 118 191 118c113 0 188 -60 188 -166c0 -105 -87 -172 -221 -266l-81 -57v-3h313v-50z" />
    <glyph glyph-name="three.onum" horiz-adv-x="525" 
d="M182 -170c-34 0 -73 2 -103 9l9 52c28 -8 64 -11 93 -11c121 0 217 56 217 184c0 102 -73 159 -182 159c-32 0 -68 -5 -105 -15l-16 43c82 63 216 172 272 224v4h-294v49h363v-58c-58 -54 -169 -144 -246 -204v-4c17 3 34 5 51 5c114 0 214 -75 214 -199
c0 -160 -123 -238 -273 -238z" />
    <glyph glyph-name="four.onum" horiz-adv-x="563" 
d="M535 9h-118v-179h-55v179h-316v52l285 481h61l-288 -483h258v266h55v-266h118v-50z" />
    <glyph glyph-name="five.onum" horiz-adv-x="519" 
d="M443 528v-52h-275l-26 -218c22 7 59 12 86 12c115 0 221 -69 221 -204c0 -160 -119 -236 -266 -236c-36 0 -80 3 -111 10l9 48c28 -6 61 -9 97 -9c130 0 214 63 214 185c0 111 -90 159 -181 159c-42 0 -94 -10 -127 -23l37 328h322z" />
    <glyph glyph-name="six.onum" horiz-adv-x="578" 
d="M515 209c0 -132 -97 -225 -227 -225c-132 0 -226 91 -226 230c0 177 147 357 311 498l45 -32c-104 -84 -216 -207 -261 -311l3 -2c34 40 85 61 143 61c123 0 212 -93 212 -219zM291 381c-97 0 -171 -72 -171 -174c0 -98 69 -173 168 -173s169 73 169 173
s-65 174 -166 174z" />
    <glyph glyph-name="seven.onum" horiz-adv-x="514" 
d="M464 475c-106 -217 -229 -487 -298 -658l-58 15c73 171 219 485 299 644h-355v52h412v-53z" />
    <glyph glyph-name="eight.onum" horiz-adv-x="571" 
d="M508 190c0 -127 -98 -205 -222 -205c-125 0 -223 78 -223 205c0 88 54 162 142 186v2c-74 27 -116 91 -116 163c0 109 86 182 197 182c109 0 196 -72 196 -182c0 -70 -42 -137 -116 -163v-2c92 -25 142 -100 142 -186zM286 675c-79 0 -140 -56 -140 -136
c0 -75 58 -138 140 -138c80 0 140 63 140 138c0 80 -63 136 -140 136zM449 193c0 93 -71 160 -163 160c-93 0 -164 -67 -164 -160c0 -92 65 -159 164 -159c97 0 163 67 163 159z" />
    <glyph glyph-name="nine.onum" horiz-adv-x="578" 
d="M516 313c0 -178 -154 -366 -311 -497l-45 32c103 82 211 202 260 306l-2 2c-37 -38 -86 -58 -144 -58c-122 0 -211 93 -211 219c0 132 96 225 227 225c132 0 226 -91 226 -229zM289 493c-99 0 -168 -73 -168 -174c0 -99 65 -174 165 -174c97 0 172 73 172 175
c0 98 -69 173 -169 173z" />
    <glyph glyph-name="napostrophe.sc" horiz-adv-x="642" 
d="M197 528l294 -448h2v448h56v-528h-71l-298 454v-454h-56v528h73zM82 528l-71 -185h-45l59 185h57z" />
    <glyph glyph-name="ordfeminine.sc" horiz-adv-x="357" 
d="M104 500l-29 -69h-48l129 290h48l126 -290h-48l-29 69h-149zM179 678l-63 -147h125z" />
    <glyph glyph-name="fi.sc" horiz-adv-x="711" 
d="M149 245v-245h-55v528h319v-50h-264v-184h247v-49h-247zM617 528v-528h-55v528h55z" />
    <glyph glyph-name="fl.sc" horiz-adv-x="880" 
d="M149 245v-245h-55v528h319v-50h-264v-184h247v-49h-247zM618 528v-478h243v-50h-299v528h56z" />
    </font>
</defs>
</svg>
