<svg xmlns="http://www.w3.org/2000/svg" width="20mm" height="55.088" viewBox="0 0 1200 875" shape-rendering="geometricPrecision" text-rendering="geometricPrecision" image-rendering="optimizeQuality" fill-rule="evenodd" clip-rule="evenodd"><defs><style>.fil0{fill:#f04130}</style></defs><path class="fil0" d="M549 185c35-26 82-31 114 1l16 16c22-35 62-40 101-30l7 2 28 28 33-33c19-68 21-99 6-136 40 0 77-2 109 30 77 77 140 152 216 227 29 34 3 99-8 138-8 31-19 72-21 104l50 50c-17 56-32 104-74 147-42 44-97 65-157 71-118 10-252-41-366-69-29-7-87-22-118-9-5 3-10 6-14 10l79 79c-21 25-33 42-64 54-46 19-103 9-143-20l-8-7-114-114c-5-4-9-9-14-14-22 1-47-7-63-22L30 574C-7 536-4 501 9 455c12 4 33 10 46 5 33-16 49-112 56-144l-76-76 4-15c8-24 29-43 55-43h46C164 92 209 0 317 0c33 0 65 12 89 36 49 48 96 103 143 149zM317 25c-95 0-134 85-158 182H94c-11 0-26 8-31 26h90c-29 131-38 273-126 252-11 35 12 87 65 87 109 0 119-190 140-339h57c-14 86-84 263 41 253 15-89 66-213 83-240h7c-16 78 56 76 84 20-52-4 22-115-37-115-57 0-107 146-126 196h-7c11-44 30-89 23-115-9-29-42-25-65-25h-56c14-84 33-150 81-150 51 0 21 94-21 94 22 51 119 44 119-40 0-30-30-86-98-86zm567 33c12 23 2 70-14 124-25 27-60 61-96 97-1-7-3-15-4-24-4-20-13-42 4-58-15-4-27-5-37-4-34 5-44 29-52 57-26 81-93 197-133 197-24 0-17-42-5-88 93-7 157-170 61-170-74 0-142 144-142 230 0 38 28 68 74 67 64-1 134-140 162-206 5 22 9 43 12 64-53 59-96 118-96 159 0 45 40 53 46 54 77 12 140-44 132-145-3-45-9-74-16-105 27-29 54-55 74-74-38 120-79 252 29 253 6-62 52-175 86-222h7c-27 53-95 279-6 279 17 0 35-17 44-29l6 3c-121 238-426 9-629-9-78-6-187 15-187 125 0 99 143 139 199 67-28 11-77-9-77-56 0-51 41-65 77-65 169 0 561 245 656-103h-1c-34 8-45-8-46-36-3-40 12-96 26-146 10-35 38-110-16-110-48 0-102 106-130 173h-5c16-62 56-138 68-201 10-54-1-98-71-98zM667 516c-43-3-4-72 52-140 8 83-5 144-52 140zM556 329c44-9 79-80 52-80-17 0-38 38-52 80z" id="Слой_x0020_1"/></svg>